<?xml version="1.0" encoding="utf-8"?>
<!-- Generator: Adobe Illustrator 16.0.0, SVG Export Plug-In . SVG Version: 6.00 Build 0)  -->
<!DOCTYPE svg PUBLIC "-//W3C//DTD SVG 1.1//EN" "http://www.w3.org/Graphics/SVG/1.1/DTD/svg11.dtd">
<svg version="1.1" xmlns="http://www.w3.org/2000/svg" xmlns:xlink="http://www.w3.org/1999/xlink" x="0px" y="0px" width="730px"
	 height="320px" viewBox="0 0 730 320" enable-background="new 0 0 730 320" xml:space="preserve">
<g id="Layer_2">
	<circle opacity="0.25" fill="#22B573" stroke="#009245" cx="364.504" cy="350.5" r="375.001"/>
	<circle opacity="0.25" fill="#22B573" stroke="#009245" cx="269.997" cy="484.001" r="212.499"/>
	<circle opacity="0.25" fill="#22B573" stroke="#009245" cx="436.625" cy="282.625" r="47.625"/>
	<circle opacity="0.25" fill="#22B573" stroke="#009245" cx="219.583" cy="67.583" r="57.417"/>
	<circle opacity="0.25" fill="#22B573" stroke="#009245" cx="95.083" cy="231.583" r="50.417"/>
	<circle opacity="0.25" fill="#22B573" stroke="#009245" cx="187.583" cy="225.581" r="42.417"/>
	<circle opacity="0.25" fill="#22B573" stroke="#009245" cx="333.248" cy="176.747" r="99.749"/>
	<circle opacity="0.25" fill="#22B573" stroke="#009245" cx="134.495" cy="201.831" r="99.999"/>
	<circle opacity="0.25" fill="#22B573" stroke="#009245" cx="492.334" cy="87.331" r="82.166"/>
	<circle opacity="0.25" fill="#22B573" stroke="#009245" cx="477.963" cy="206.959" r="37.542"/>
	<circle opacity="0.25" fill="#22B573" stroke="#009245" cx="615.329" cy="182.997" r="72.833"/>
	<circle opacity="0.25" fill="#22B573" stroke="#009245" cx="533.625" cy="256.625" r="35.875"/>
	<ellipse opacity="0.25" fill="#22B573" stroke="#009245" cx="613" cy="323.5" rx="67.5" ry="67"/>
	<circle opacity="0.25" fill="#22B573" stroke="#009245" cx="509.458" cy="325.459" r="36.208"/>
	<circle opacity="0.25" fill="#22B573" stroke="#009245" cx="487.416" cy="254.082" r="9.75"/>
	<circle opacity="0.25" fill="#22B573" stroke="#009245" cx="302.01" cy="375.999" r="100.003"/>
	<circle opacity="0.25" fill="#22B573" stroke="#009245" cx="341.5" cy="308" r="21"/>
	<circle opacity="0.25" fill="#22B573" stroke="#009245" cx="282" cy="319" r="39.5"/>
	<circle opacity="0.25" fill="#22B573" stroke="#009245" cx="185.5" cy="321.001" r="28.5"/>
	<circle opacity="0.25" fill="#22B573" stroke="#009245" cx="513.625" cy="115.125" r="47.625"/>
	<circle opacity="0.25" fill="#22B573" stroke="#009245" cx="461" cy="53.25" r="33.25"/>
	<circle opacity="0.25" fill="#22B573" stroke="#009245" cx="342.5" cy="247" r="29"/>
	<circle opacity="0.25" fill="#22B573" stroke="#009245" cx="393.254" cy="216.25" r="28.751"/>
	<circle opacity="0.25" fill="#22B573" stroke="#009245" cx="649.5" cy="165.166" r="35"/>
	<circle opacity="0.25" fill="#22B573" stroke="#009245" cx="452" cy="279" r="32"/>
	<circle opacity="0.25" fill="#22B573" stroke="#009245" cx="598.5" cy="296.5" r="37.5"/>
	<circle opacity="0.25" fill="#22B573" stroke="#009245" cx="318" cy="151" r="70"/>
	<circle opacity="0.25" fill="#22B573" stroke="#009245" cx="656.75" cy="311.25" r="21.75"/>
</g>
<g id="Layer_3">
	<circle fill="#29ABE2" stroke="#0071BC" stroke-width="0.75" cx="346" cy="261.167" r="14.333"/>
	<circle fill="#29ABE2" stroke="#0071BC" stroke-width="0.75" cx="275.875" cy="295.792" r="15.458"/>
	<circle fill="#29ABE2" stroke="#0071BC" stroke-width="0.75" cx="260" cy="323.417" r="16.083"/>
	<ellipse fill="#29ABE2" stroke="#0071BC" stroke-width="0.75" cx="190" cy="213.417" rx="20.083" ry="19.75"/>
	<circle fill="#29ABE2" stroke="#0071BC" stroke-width="0.75" cx="328" cy="135.833" r="14.333"/>
	<circle fill="#29ABE2" stroke="#0071BC" stroke-width="0.75" cx="234.001" cy="40.833" r="12.667"/>
	<circle fill="#29ABE2" stroke="#0071BC" stroke-width="0.75" cx="256.167" cy="76.666" r="10.833"/>
	<circle fill="#29ABE2" stroke="#0071BC" stroke-width="0.75" cx="348.75" cy="154.333" r="13.083"/>
	<circle fill="#29ABE2" stroke="#0071BC" stroke-width="0.75" cx="321.626" cy="180.957" r="11.708"/>
	<circle fill="#29ABE2" stroke="#0071BC" stroke-width="0.75" cx="298.125" cy="167.208" r="15.208"/>
	<circle fill="#29ABE2" stroke="#0071BC" stroke-width="0.75" cx="178.625" cy="61.041" r="15.708"/>
	<circle fill="#29ABE2" stroke="#0071BC" stroke-width="0.75" cx="245.459" cy="100.208" r="15.208"/>
	<circle fill="#29ABE2" stroke="#0071BC" stroke-width="0.75" cx="273.667" cy="184.832" r="14.333"/>
	<circle fill="#29ABE2" stroke="#0071BC" stroke-width="0.75" cx="317.334" cy="206.498" r="14.333"/>
	<circle fill="#29ABE2" stroke="#0071BC" stroke-width="0.75" cx="368.334" cy="173.832" r="14.333"/>
	<circle fill="#29ABE2" stroke="#0071BC" stroke-width="0.75" cx="376.417" cy="149.333" r="11.083"/>
	<circle fill="#29ABE2" stroke="#0071BC" stroke-width="0.75" cx="291.75" cy="203.666" r="11.083"/>
	<circle fill="#29ABE2" stroke="#0071BC" stroke-width="0.75" cx="359.667" cy="123.167" r="19.333"/>
	<circle fill="#29ABE2" stroke="#0071BC" stroke-width="0.75" cx="346.5" cy="195.667" r="16.499"/>
	<circle fill="#29ABE2" stroke="#0071BC" stroke-width="0.75" cx="454.5" cy="291.335" r="18.499"/>
	<circle fill="#29ABE2" stroke="#0071BC" stroke-width="0.75" cx="468.5" cy="224.002" r="18.499"/>
	<circle fill="#29ABE2" stroke="#0071BC" stroke-width="0.75" cx="484.167" cy="190.002" r="18.499"/>
	<circle fill="#29ABE2" stroke="#0071BC" stroke-width="0.75" cx="544.5" cy="247.335" r="18.499"/>
	<circle fill="#29ABE2" stroke="#0071BC" stroke-width="0.75" cx="589.501" cy="157.335" r="24.165"/>
	<circle fill="#29ABE2" stroke="#0071BC" stroke-width="0.75" cx="569.167" cy="197.001" r="19.832"/>
	<circle fill="#29ABE2" stroke="#0071BC" stroke-width="0.75" cx="605.167" cy="194.668" r="15.832"/>
	<circle fill="#29ABE2" stroke="#0071BC" stroke-width="0.75" cx="444.834" cy="261.335" r="12.499"/>
	<circle fill="#29ABE2" stroke="#0071BC" stroke-width="0.75" cx="513.168" cy="253.335" r="12.499"/>
	<circle fill="#29ABE2" stroke="#0071BC" stroke-width="0.75" cx="499.668" cy="315.418" r="12.499"/>
	<circle fill="#29ABE2" stroke="#0071BC" stroke-width="0.75" cx="520.918" cy="309.668" r="8.999"/>
	<circle fill="#29ABE2" stroke="#0071BC" stroke-width="0.75" cx="267.333" cy="150.834" r="19.333"/>
	<circle fill="#29ABE2" stroke="#0071BC" stroke-width="0.75" cx="287.833" cy="114.334" r="21.833"/>
	<circle fill="#29ABE2" stroke="#0071BC" stroke-width="0.75" cx="203.667" cy="94.501" r="26.333"/>
	<circle fill="#29ABE2" stroke="#0071BC" stroke-width="0.75" cx="143.667" cy="180.5" r="19.333"/>
	<circle fill="#29ABE2" stroke="#0071BC" stroke-width="0.75" cx="74.667" cy="255.167" r="18.333"/>
	<circle fill="#29ABE2" stroke="#0071BC" stroke-width="0.75" cx="124" cy="233.5" r="11.999"/>
	<circle fill="#29ABE2" stroke="#0071BC" stroke-width="0.75" cx="178.667" cy="244.166" r="11.999"/>
	<circle fill="#29ABE2" stroke="#0071BC" stroke-width="0.75" cx="104.667" cy="248.5" r="11.999"/>
	<circle fill="#29ABE2" stroke="#0071BC" stroke-width="0.75" cx="203.667" cy="242.833" r="11.999"/>
	<circle fill="#29ABE2" stroke="#0071BC" stroke-width="0.75" cx="90.334" cy="211.165" r="27.666"/>
	<circle fill="#29ABE2" stroke="#0071BC" stroke-width="0.75" cx="391.833" cy="72.668" r="19"/>
	<circle fill="#29ABE2" stroke="#0071BC" stroke-width="0.75" cx="531.833" cy="136.335" r="19"/>
	<circle fill="#29ABE2" stroke="#0071BC" stroke-width="0.75" cx="496.834" cy="135.335" r="15.667"/>
	<circle fill="#29ABE2" stroke="#0071BC" stroke-width="0.75" cx="480.5" cy="111.002" r="13.667"/>
	<circle fill="#29ABE2" stroke="#0071BC" stroke-width="0.75" cx="491.167" cy="89.002" r="10.667"/>
	<circle fill="#29ABE2" stroke="#0071BC" stroke-width="0.75" cx="509.167" cy="81.335" r="8.333"/>
	<circle fill="#29ABE2" stroke="#0071BC" stroke-width="0.75" cx="524.833" cy="84.001" r="7.333"/>
	<circle fill="#29ABE2" stroke="#0071BC" stroke-width="0.75" cx="537.167" cy="89.001" r="5.999"/>
	<circle fill="#29ABE2" stroke="#0071BC" stroke-width="0.75" cx="540.166" cy="100.333" r="5.665"/>
	<circle fill="#29ABE2" stroke="#0071BC" stroke-width="0.75" cx="537.164" cy="112" r="5.665"/>
	<circle fill="#29ABE2" stroke="#0071BC" stroke-width="0.75" cx="512.497" cy="120.333" r="5.665"/>
	<circle fill="#29ABE2" stroke="#0071BC" stroke-width="0.75" cx="516.165" cy="91.834" r="3.665"/>
	<circle fill="#29ABE2" stroke="#0071BC" stroke-width="0.75" cx="507.998" cy="104.334" r="2.832"/>
	<circle fill="#29ABE2" stroke="#0071BC" stroke-width="0.75" cx="522.164" cy="93.668" r="2.166"/>
	<circle fill="#29ABE2" stroke="#0071BC" stroke-width="0.75" cx="525.83" cy="102.834" r="2.166"/>
	<circle fill="#29ABE2" stroke="#0071BC" stroke-width="0.75" cx="513.663" cy="104.334" r="2.166"/>
	<circle fill="#29ABE2" stroke="#0071BC" stroke-width="0.75" cx="510.996" cy="108.834" r="2.166"/>
	<circle fill="#29ABE2" stroke="#0071BC" stroke-width="0.75" cx="515.496" cy="112.168" r="2.166"/>
	<circle fill="#29ABE2" stroke="#0071BC" stroke-width="0.75" cx="520.33" cy="104.668" r="2.166"/>
	<circle fill="#29ABE2" stroke="#0071BC" stroke-width="0.75" cx="515.834" cy="107.834" r="1.333"/>
	<circle fill="#29ABE2" stroke="#0071BC" stroke-width="0.75" cx="509.834" cy="113.501" r="1.333"/>
	<circle fill="#29ABE2" stroke="#0071BC" stroke-width="0.75" cx="519.834" cy="109.335" r="1.333"/>
	<circle fill="#29ABE2" stroke="#0071BC" stroke-width="0.75" cx="532.167" cy="98.501" r="1.333"/>
	<circle fill="#29ABE2" stroke="#0071BC" stroke-width="0.75" cx="528.665" cy="94.334" r="3.665"/>
	<circle fill="#29ABE2" stroke="#0071BC" stroke-width="0.75" cx="531.498" cy="104.667" r="3.665"/>
	<circle fill="#29ABE2" stroke="#0071BC" stroke-width="0.75" cx="521.414" cy="115.75" r="4.081"/>
	<circle fill="#29ABE2" stroke="#0071BC" stroke-width="0.75" cx="498.165" cy="113" r="3.665"/>
	<circle fill="#29ABE2" stroke="#0071BC" stroke-width="0.75" cx="503.832" cy="117.5" r="2.998"/>
	<circle fill="#29ABE2" stroke="#0071BC" stroke-width="0.75" cx="505.332" cy="110.834" r="2.998"/>
	<circle fill="#29ABE2" stroke="#0071BC" stroke-width="0.75" cx="514.999" cy="98.834" r="2.998"/>
	<circle fill="#29ABE2" stroke="#0071BC" stroke-width="0.75" cx="524.999" cy="108.334" r="2.998"/>
	<circle fill="#29ABE2" stroke="#0071BC" stroke-width="0.75" cx="521.331" cy="99.167" r="2.998"/>
	<circle fill="#29ABE2" stroke="#0071BC" stroke-width="0.75" cx="528.499" cy="114.334" r="2.998"/>
	<circle fill="#29ABE2" stroke="#0071BC" stroke-width="0.75" cx="506.83" cy="95.333" r="5.665"/>
	<circle fill="#29ABE2" stroke="#0071BC" stroke-width="0.75" cx="498.83" cy="103.333" r="5.665"/>
	<circle fill="#29ABE2" stroke="#0071BC" stroke-width="0.75" cx="651.77" cy="141.948" r="10.666"/>
	<circle fill="#29ABE2" stroke="#0071BC" stroke-width="0.75" cx="633.52" cy="225.698" r="10.666"/>
	<circle fill="#29ABE2" stroke="#0071BC" stroke-width="0.75" cx="664.875" cy="156.474" r="8.333"/>
	<circle fill="#29ABE2" stroke="#0071BC" stroke-width="0.75" cx="667.452" cy="172.156" r="7.333"/>
	<circle fill="#29ABE2" stroke="#0071BC" stroke-width="0.75" cx="666.737" cy="185.445" r="5.999"/>
	<circle fill="#29ABE2" stroke="#0071BC" stroke-width="0.75" cx="656.998" cy="191.968" r="5.665"/>
	<circle fill="#29ABE2" stroke="#0071BC" stroke-width="0.75" cx="644.99" cy="192.926" r="5.665"/>
	<circle fill="#29ABE2" stroke="#0071BC" stroke-width="0.75" cx="629.083" cy="172.313" r="5.665"/>
	<circle fill="#29ABE2" stroke="#0071BC" stroke-width="0.75" cx="657.225" cy="166.508" r="3.664"/>
	<circle fill="#29ABE2" stroke="#0071BC" stroke-width="0.75" cx="642.747" cy="162.852" r="2.832"/>
	<circle fill="#29ABE2" stroke="#0071BC" stroke-width="0.75" cx="657.443" cy="172.777" r="2.165"/>
	<circle fill="#29ABE2" stroke="#0071BC" stroke-width="0.75" cx="649.967" cy="179.226" r="2.165"/>
	<circle fill="#29ABE2" stroke="#0071BC" stroke-width="0.75" cx="644.59" cy="168.209" r="2.166"/>
	<circle fill="#29ABE2" stroke="#0071BC" stroke-width="0.75" cx="639.467" cy="167.151" r="2.166"/>
	<circle fill="#29ABE2" stroke="#0071BC" stroke-width="0.75" cx="637.78" cy="172.491" r="2.166"/>
	<circle fill="#29ABE2" stroke="#0071BC" stroke-width="0.75" cx="646.445" cy="174.622" r="2.166"/>
	<circle fill="#29ABE2" stroke="#0071BC" stroke-width="0.75" cx="641.987" cy="171.402" r="1.333"/>
	<circle fill="#29ABE2" stroke="#0071BC" stroke-width="0.75" cx="634.677" cy="167.572" r="1.332"/>
	<circle fill="#29ABE2" stroke="#0071BC" stroke-width="0.75" cx="641.87" cy="175.672" r="1.333"/>
	<circle fill="#29ABE2" stroke="#0071BC" stroke-width="0.75" cx="656.127" cy="183.809" r="1.333"/>
	<circle fill="#29ABE2" stroke="#0071BC" stroke-width="0.75" cx="621.211" cy="228.058" r="1.333"/>
	<circle fill="#29ABE2" stroke="#0071BC" stroke-width="0.75" cx="658.928" cy="179.141" r="3.664"/>
	<circle fill="#29ABE2" stroke="#0071BC" stroke-width="0.75" cx="650.079" cy="185.182" r="3.665"/>
	<circle fill="#29ABE2" stroke="#0071BC" stroke-width="0.75" cx="636.318" cy="179.253" r="4.081"/>
	<circle fill="#29ABE2" stroke="#0071BC" stroke-width="0.75" cx="631.354" cy="156.373" r="3.665"/>
	<circle fill="#29ABE2" stroke="#0071BC" stroke-width="0.75" cx="628.942" cy="163.197" r="2.998"/>
	<circle fill="#29ABE2" stroke="#0071BC" stroke-width="0.75" cx="635.734" cy="162.446" r="2.998"/>
	<circle fill="#29ABE2" stroke="#0071BC" stroke-width="0.75" cx="650.227" cy="167.682" r="2.998"/>
	<circle fill="#29ABE2" stroke="#0071BC" stroke-width="0.75" cx="644.498" cy="180.23" r="2.998"/>
	<circle fill="#29ABE2" stroke="#0071BC" stroke-width="0.75" cx="651.971" cy="173.779" r="2.998"/>
	<circle fill="#29ABE2" stroke="#0071BC" stroke-width="0.75" cx="639.963" cy="185.492" r="2.998"/>
	<circle fill="#29ABE2" stroke="#0071BC" stroke-width="0.75" cx="650.878" cy="158.819" r="5.666"/>
	<circle fill="#29ABE2" stroke="#0071BC" stroke-width="0.75" cx="640.71" cy="153.857" r="5.665"/>
	<circle fill="#29ABE2" stroke="#0071BC" stroke-width="0.75" cx="447.333" cy="58.501" r="15.833"/>
	<circle fill="#29ABE2" stroke="#0071BC" stroke-width="0.75" cx="469.5" cy="41.668" r="11.999"/>
	<circle fill="#29ABE2" stroke="#0071BC" stroke-width="0.75" cx="327.333" cy="101.833" r="19.333"/>
	<circle fill="#29ABE2" stroke="#0071BC" stroke-width="0.75" cx="202.333" cy="34.833" r="19.333"/>
	<circle fill="#29ABE2" stroke="#0071BC" stroke-width="0.75" cx="399.667" cy="223.834" r="9"/>
	<circle fill="#29ABE2" stroke="#0071BC" stroke-width="0.75" cx="304.5" cy="142" r="10"/>
	<circle fill="#29ABE2" stroke="#0071BC" stroke-width="0.75" cx="303.25" cy="189.25" r="6.75"/>
	<circle fill="#29ABE2" stroke="#0071BC" stroke-width="0.75" cx="524.667" cy="212.334" r="9"/>
	<circle fill="#29ABE2" stroke="#0071BC" stroke-width="0.75" cx="495.001" cy="215.335" r="9"/>
	<circle fill="#29ABE2" stroke="#0071BC" stroke-width="0.75" cx="527.334" cy="269.334" r="9"/>
	<circle fill="#29ABE2" stroke="#0071BC" stroke-width="0.75" cx="591.334" cy="215.667" r="9"/>
	<circle fill="#29ABE2" stroke="#0071BC" stroke-width="0.75" cx="664.667" cy="307.667" r="9"/>
	<circle fill="#29ABE2" stroke="#0071BC" stroke-width="0.75" cx="608.001" cy="217.667" r="7.334"/>
	<circle fill="#29ABE2" stroke="#0071BC" stroke-width="0.75" cx="621.668" cy="211" r="7.334"/>
	<circle fill="#29ABE2" stroke="#0071BC" stroke-width="0.75" cx="578.668" cy="219.333" r="4"/>
	<circle fill="#29ABE2" stroke="#0071BC" stroke-width="0.75" cx="599.668" cy="225.333" r="4"/>
	<circle fill="#29ABE2" stroke="#0071BC" stroke-width="0.75" cx="618.668" cy="222.333" r="4"/>
	<circle fill="#29ABE2" stroke="#0071BC" stroke-width="0.75" cx="459.667" cy="198.667" r="7.498"/>
	<circle fill="#29ABE2" stroke="#0071BC" stroke-width="0.75" cx="390.334" cy="212.168" r="5.333"/>
	<circle fill="#29ABE2" stroke="#0071BC" stroke-width="0.75" cx="327.667" cy="241.168" r="13"/>
	<circle fill="#29ABE2" stroke="#0071BC" stroke-width="0.75" cx="178.167" cy="304.334" r="10.833"/>
	<circle fill="#29ABE2" stroke="#0071BC" stroke-width="0.75" cx="186.792" cy="326.709" r="12.708"/>
	<circle fill="#29ABE2" stroke="#0071BC" stroke-width="0.75" cx="347.667" cy="239.918" r="6.75"/>
	<circle fill="#29ABE2" stroke="#0071BC" stroke-width="0.75" cx="408.334" cy="311.251" r="8.083"/>
	<circle fill="#29ABE2" stroke="#0071BC" stroke-width="0.75" cx="425.334" cy="309.584" r="8.083"/>
	<circle fill="#29ABE2" stroke="#0071BC" stroke-width="0.75" cx="282.667" cy="317.668" r="6.75"/>
	<circle fill="#29ABE2" stroke="#0071BC" stroke-width="0.75" cx="300.167" cy="314.168" r="6.25"/>
	<circle fill="#29ABE2" stroke="#0071BC" stroke-width="0.75" cx="298.167" cy="292.168" r="6.75"/>
	<circle fill="#29ABE2" stroke="#0071BC" stroke-width="0.75" cx="196.333" cy="302.918" r="6.75"/>
	<circle fill="#29ABE2" stroke="#0071BC" stroke-width="0.75" cx="326.917" cy="258.918" r="4.5"/>
	<circle fill="#29ABE2" stroke="#0071BC" stroke-width="0.75" cx="357.667" cy="245.418" r="4.5"/>
	<circle fill="#29ABE2" stroke="#0071BC" stroke-width="0.75" cx="407.333" cy="296.084" r="6.167"/>
	<circle fill="#29ABE2" stroke="#0071BC" stroke-width="0.75" cx="461.667" cy="254.085" r="4.834"/>
	<circle fill="#29ABE2" stroke="#0071BC" stroke-width="0.75" cx="487.167" cy="249.335" r="4.834"/>
	<circle fill="#29ABE2" stroke="#0071BC" stroke-width="0.75" cx="469" cy="266.085" r="4.834"/>
	<circle fill="#29ABE2" stroke="#0071BC" stroke-width="0.75" cx="515.417" cy="322.418" r="4.834"/>
	<circle fill="#29ABE2" stroke="#0071BC" stroke-width="0.75" cx="541.417" cy="271.085" r="4.834"/>
	<circle fill="#29ABE2" stroke="#0071BC" stroke-width="0.75" cx="330.917" cy="296.918" r="4.5"/>
	<circle fill="#29ABE2" stroke="#0071BC" stroke-width="0.75" cx="356.917" cy="314.168" r="4.5"/>
	<circle fill="#29ABE2" stroke="#0071BC" stroke-width="0.75" cx="325.667" cy="304.668" r="4.5"/>
	<circle fill="#29ABE2" stroke="#0071BC" stroke-width="0.75" cx="352.917" cy="295.668" r="4.5"/>
	<circle fill="#29ABE2" stroke="#0071BC" stroke-width="0.75" cx="336.292" cy="322.293" r="5.875"/>
	<circle fill="#29ABE2" stroke="#0071BC" stroke-width="0.75" cx="341.417" cy="229.668" r="4.5"/>
	<circle fill="#29ABE2" stroke="#0071BC" stroke-width="0.75" cx="349.417" cy="229.668" r="3.167"/>
	<circle fill="#29ABE2" stroke="#0071BC" stroke-width="0.75" cx="164.083" cy="309.335" r="3.833"/>
	<circle fill="#29ABE2" stroke="#0071BC" stroke-width="0.75" cx="171.417" cy="229.335" r="3.833"/>
	<circle fill="#29ABE2" stroke="#0071BC" stroke-width="0.75" cx="209.75" cy="227.335" r="3.833"/>
	<circle fill="#29ABE2" stroke="#0071BC" stroke-width="0.75" cx="121.417" cy="250.002" r="3.833"/>
	<circle fill="#29ABE2" stroke="#0071BC" stroke-width="0.75" cx="96.083" cy="262.335" r="3.833"/>
	<circle fill="#29ABE2" stroke="#0071BC" stroke-width="0.75" cx="579.694" cy="279.869" r="11.272"/>
	<circle fill="#29ABE2" stroke="#0071BC" stroke-width="0.75" cx="588.825" cy="311.713" r="7.377"/>
	<circle fill="#29ABE2" stroke="#0071BC" stroke-width="0.75" cx="581.281" cy="298.697" r="7.378"/>
	<circle fill="#29ABE2" stroke="#0071BC" stroke-width="0.75" cx="595.615" cy="272.364" r="5.967"/>
	<circle fill="#29ABE2" stroke="#0071BC" stroke-width="0.75" cx="650.282" cy="303.364" r="5.967"/>
	<circle fill="#29ABE2" stroke="#0071BC" stroke-width="0.75" cx="605.21" cy="293.044" r="17.01"/>
	<circle fill="#29ABE2" stroke="#0071BC" stroke-width="0.75" cx="578.984" cy="308.778" r="2.356"/>
	<circle fill="#29ABE2" stroke="#0071BC" stroke-width="0.75" cx="573.56" cy="292.326" r="2.357"/>
	<circle fill="#29ABE2" stroke="#0071BC" stroke-width="0.75" cx="605.227" cy="272.992" r="2.357"/>
	<circle fill="#29ABE2" stroke="#0071BC" stroke-width="0.75" cx="598.561" cy="311.992" r="2.357"/>
	<circle fill="#29ABE2" stroke="#0071BC" stroke-width="0.75" cx="190.833" cy="311.21" r="2.958"/>
	<circle fill="#29ABE2" stroke="#0071BC" stroke-width="0.75" cx="205.708" cy="305.335" r="2.208"/>
	<circle fill="#29ABE2" stroke="#0071BC" stroke-width="0.75" cx="189.333" cy="296.21" r="2.208"/>
	<circle fill="#29ABE2" stroke="#0071BC" stroke-width="0.75" cx="211.5" cy="221.044" r="2.208"/>
	<circle fill="#29ABE2" stroke="#0071BC" stroke-width="0.75" cx="357.583" cy="237.168" r="3.167"/>
	<ellipse fill="#29ABE2" stroke="#0071BC" stroke-width="0.75" cx="337.188" cy="291.168" rx="3.313" ry="3.166"/>
	
		<ellipse transform="matrix(0.9997 0.0249 -0.0249 0.9997 7.3561 -8.4937)" fill="#29ABE2" stroke="#0071BC" stroke-width="0.75" cx="345.209" cy="291.543" rx="4.045" ry="3.781"/>
	
		<ellipse transform="matrix(0.9997 0.0249 -0.0249 0.9997 7.6991 -8.6892)" fill="#29ABE2" stroke="#0071BC" stroke-width="0.75" cx="352.187" cy="304.298" rx="3.818" ry="3.782"/>
	
		<ellipse transform="matrix(0.9997 0.0249 -0.0249 0.9997 7.5736 -8.5277)" fill="#29ABE2" stroke="#0071BC" stroke-width="0.75" cx="345.807" cy="299.488" rx="3.506" ry="3.473"/>
	
		<ellipse transform="matrix(0.9997 0.0249 -0.0249 0.9997 7.6993 -8.2348)" fill="#29ABE2" stroke="#0071BC" stroke-width="0.75" cx="334.12" cy="304.675" rx="3.506" ry="3.473"/>
	<circle fill="#29ABE2" stroke="#0071BC" stroke-width="0.75" cx="294.333" cy="301.918" r="3.167"/>
	<circle fill="#29ABE2" stroke="#0071BC" stroke-width="0.75" cx="305.333" cy="305.668" r="3.167"/>
	<circle fill="#29ABE2" stroke="#0071BC" stroke-width="0.75" cx="305.083" cy="299.668" r="2.667"/>
	<circle fill="#29ABE2" stroke="#0071BC" stroke-width="0.75" cx="308.833" cy="310.918" r="2.667"/>
	<circle fill="#29ABE2" stroke="#0071BC" stroke-width="0.75" cx="290.833" cy="309.168" r="4.417"/>
	<circle fill="#29ABE2" stroke="#0071BC" stroke-width="0.75" cx="399.584" cy="211.168" r="3.167"/>
	<circle fill="#29ABE2" stroke="#0071BC" stroke-width="0.75" cx="460.917" cy="262.501" r="3.167"/>
	<circle fill="#29ABE2" stroke="#0071BC" stroke-width="0.75" cx="491.667" cy="257.501" r="3.167"/>
	<circle fill="#29ABE2" stroke="#0071BC" stroke-width="0.75" cx="462.001" cy="187.834" r="3.167"/>
	<circle fill="#29ABE2" stroke="#0071BC" stroke-width="0.75" cx="501.001" cy="204.501" r="3.167"/>
	<circle fill="#29ABE2" stroke="#0071BC" stroke-width="0.75" cx="490.001" cy="226.168" r="3.167"/>
	<circle fill="#29ABE2" stroke="#0071BC" stroke-width="0.75" cx="416.25" cy="289.501" r="4.167"/>
	<circle fill="#29ABE2" stroke="#0071BC" stroke-width="0.75" cx="460.917" cy="269.834" r="3.167"/>
	<circle fill="#29ABE2" stroke="#0071BC" stroke-width="0.75" cx="523.418" cy="321.833" r="3.167"/>
	<circle fill="#29ABE2" stroke="#0071BC" stroke-width="0.75" cx="536.5" cy="278.334" r="3.167"/>
	<circle fill="#29ABE2" stroke="#0071BC" stroke-width="0.75" cx="550.5" cy="268.667" r="3.167"/>
	<circle fill="#29ABE2" stroke="#0071BC" stroke-width="0.75" cx="523.166" cy="240.667" r="3.167"/>
	<circle fill="#29ABE2" stroke="#0071BC" stroke-width="0.75" cx="292.584" cy="188.169" r="3.917"/>
	<circle fill="#29ABE2" stroke="#0071BC" stroke-width="0.75" cx="210.584" cy="58.168" r="2.25"/>
	<circle fill="#29ABE2" stroke="#0071BC" stroke-width="0.75" cx="223.917" cy="63.668" r="2.25"/>
	<circle fill="#29ABE2" stroke="#0071BC" stroke-width="0.75" cx="211.25" cy="65.502" r="3.094"/>
	<circle fill="#29ABE2" stroke="#0071BC" stroke-width="0.75" cx="223.167" cy="70.419" r="3.844"/>
	<circle fill="#29ABE2" stroke="#0071BC" stroke-width="0.75" cx="310.584" cy="128.419" r="4.667"/>
	<circle fill="#29ABE2" stroke="#0071BC" stroke-width="0.75" cx="467.917" cy="58.753" r="4.667"/>
	<circle fill="#29ABE2" stroke="#0071BC" stroke-width="0.75" cx="347.584" cy="173.67" r="5.667"/>
	<circle fill="#29ABE2" stroke="#0071BC" stroke-width="0.75" cx="335.834" cy="169.42" r="5.917"/>
	<circle fill="#29ABE2" stroke="#0071BC" stroke-width="0.75" cx="316.334" cy="154.17" r="6.667"/>
	<circle fill="#29ABE2" stroke="#0071BC" stroke-width="0.75" cx="480.334" cy="58.837" r="7.667"/>
	<circle fill="#29ABE2" stroke="#0071BC" stroke-width="0.75" cx="201.334" cy="61.17" r="6.667"/>
	<circle fill="#29ABE2" stroke="#0071BC" stroke-width="0.75" cx="219.667" cy="55.17" r="6.667"/>
	<circle fill="#29ABE2" stroke="#0071BC" stroke-width="0.75" cx="245.001" cy="62.836" r="6.667"/>
	<circle fill="#29ABE2" stroke="#0071BC" stroke-width="0.75" cx="232.334" cy="60.17" r="6.334"/>
	<path fill="#29ABE2" stroke="#0071BC" stroke-width="0.75" d="M245.668,77.004c0,5.426-4.403,9.831-9.833,9.831
		c-5.431,0-9.834-4.405-9.834-9.831c0-5.432,4.403-9.836,9.834-9.836C241.265,67.167,245.668,71.572,245.668,77.004z"/>
	<circle fill="#29ABE2" stroke="#0071BC" stroke-width="0.75" cx="291.084" cy="148.169" r="4.667"/>
	<circle fill="#29ABE2" stroke="#0071BC" stroke-width="0.75" cx="354" cy="233.002" r="2"/>
	<circle fill="#29ABE2" stroke="#0071BC" stroke-width="0.75" cx="421.667" cy="296.668" r="2"/>
	<circle fill="#29ABE2" stroke="#0071BC" stroke-width="0.75" cx="417" cy="299.669" r="2.75"/>
	<circle fill="#29ABE2" stroke="#0071BC" stroke-width="0.75" cx="261" cy="305.002" r="2"/>
	<circle fill="#29ABE2" stroke="#0071BC" stroke-width="0.75" cx="297" cy="306.252" r="2"/>
	<circle fill="#29ABE2" stroke="#0071BC" stroke-width="0.75" cx="323.562" cy="312.064" r="2.438"/>
	<circle fill="#29ABE2" stroke="#0071BC" stroke-width="0.75" cx="357.938" cy="301.064" r="2.438"/>
	<circle fill="#29ABE2" stroke="#0071BC" stroke-width="0.75" cx="358.938" cy="306.814" r="2.688"/>
	<circle fill="#29ABE2" stroke="#0071BC" stroke-width="0.75" cx="352.938" cy="320.939" r="2.688"/>
	<circle fill="#29ABE2" stroke="#0071BC" stroke-width="0.75" cx="349.5" cy="316.064" r="2.688"/>
	<circle fill="#29ABE2" stroke="#0071BC" stroke-width="0.75" cx="344.688" cy="319.252" r="2.375"/>
	<circle fill="#29ABE2" stroke="#0071BC" stroke-width="0.75" cx="340.771" cy="303.96" r="2.375"/>
	<circle fill="#29ABE2" stroke="#0071BC" stroke-width="0.75" cx="345.666" cy="305.773" r="2.146"/>
	<circle fill="#29ABE2" stroke="#0071BC" stroke-width="0.75" cx="333.562" cy="313.814" r="2.312"/>
	<circle fill="#29ABE2" stroke="#0071BC" stroke-width="0.75" cx="327.771" cy="317.023" r="3.646"/>
	<circle fill="#29ABE2" stroke="#0071BC" stroke-width="0.75" cx="299.75" cy="301.002" r="2"/>
	<circle fill="#29ABE2" stroke="#0071BC" stroke-width="0.75" cx="291.75" cy="316.002" r="2"/>
	<circle fill="#29ABE2" stroke="#0071BC" stroke-width="0.75" cx="300.5" cy="304.752" r="1.25"/>
	<circle fill="#29ABE2" stroke="#0071BC" stroke-width="0.75" cx="354.875" cy="308.502" r="0.814"/>
	<circle fill="#29ABE2" stroke="#0071BC" stroke-width="0.75" cx="340.625" cy="294.189" r="0.627"/>
	<circle fill="#29ABE2" stroke="#0071BC" stroke-width="0.75" cx="351.187" cy="312.377" r="0.814"/>
	<circle fill="#29ABE2" stroke="#0071BC" stroke-width="0.75" cx="348.896" cy="311.918" r="0.814"/>
	<circle fill="#29ABE2" stroke="#0071BC" stroke-width="0.75" cx="336.479" cy="309.127" r="0.814"/>
	<circle fill="#29ABE2" stroke="#0071BC" stroke-width="0.75" cx="339.187" cy="312.377" r="0.814"/>
	<circle fill="#29ABE2" stroke="#0071BC" stroke-width="0.75" cx="339.041" cy="310.231" r="0.877"/>
	<circle fill="#29ABE2" stroke="#0071BC" stroke-width="0.75" cx="336.874" cy="311.648" r="1.002"/>
	<circle fill="#29ABE2" stroke="#0071BC" stroke-width="0.75" cx="346.708" cy="312.855" r="0.877"/>
	<path fill="#29ABE2" stroke="#0071BC" stroke-width="0.75" d="M343.71,308.67c0,0.954-0.775,1.729-1.731,1.729
		c-0.956,0-1.731-0.775-1.731-1.729c0-0.958,0.775-1.733,1.731-1.733C342.936,306.937,343.71,307.712,343.71,308.67z"/>
	<circle fill="#29ABE2" stroke="#0071BC" stroke-width="0.75" cx="345.459" cy="309.855" r="1.21"/>
	<circle fill="#29ABE2" stroke="#0071BC" stroke-width="0.75" cx="330.125" cy="312.689" r="0.689"/>
	<circle fill="#29ABE2" stroke="#0071BC" stroke-width="0.75" cx="329.562" cy="308.689" r="0.689"/>
	<circle fill="#29ABE2" stroke="#0071BC" stroke-width="0.75" cx="331.312" cy="308.127" r="0.689"/>
	<circle fill="#29ABE2" stroke="#0071BC" stroke-width="0.75" cx="344.396" cy="312.377" r="0.855"/>
	<circle fill="#29ABE2" stroke="#0071BC" stroke-width="0.75" cx="341.646" cy="312.252" r="1.189"/>
	<path fill="#29ABE2" stroke="#0071BC" stroke-width="0.75" d="M332.501,310.44c0,0.689-0.561,1.25-1.252,1.25
		s-1.252-0.561-1.252-1.25c0-0.693,0.561-1.254,1.252-1.254S332.501,309.747,332.501,310.44z"/>
	<circle fill="#29ABE2" stroke="#0071BC" stroke-width="0.75" cx="334.125" cy="309.815" r="0.939"/>
	<circle fill="#29ABE2" stroke="#0071BC" stroke-width="0.75" cx="338.624" cy="307.606" r="1.106"/>
	<circle fill="#29ABE2" stroke="#0071BC" stroke-width="0.75" cx="336.25" cy="300.065" r="0.939"/>
	<circle fill="#29ABE2" stroke="#0071BC" stroke-width="0.75" cx="340.812" cy="298.812" r="0.814"/>
	<path fill="#29ABE2" stroke="#0071BC" stroke-width="0.75" d="M353.323,309.878c0,0.729-0.593,1.321-1.324,1.321
		s-1.324-0.592-1.324-1.321c0-0.733,0.593-1.325,1.324-1.325S353.323,309.145,353.323,309.878z"/>
	<path fill="#29ABE2" stroke="#0071BC" stroke-width="0.75" d="M350.114,309.003c0,0.798-0.648,1.445-1.448,1.445
		s-1.448-0.647-1.448-1.445c0-0.803,0.648-1.45,1.448-1.45S350.114,308.2,350.114,309.003z"/>
	<path fill="#29ABE2" stroke="#0071BC" stroke-width="0.75" d="M339.011,314.628c0,0.729-0.593,1.321-1.324,1.321
		s-1.324-0.592-1.324-1.321c0-0.733,0.593-1.325,1.324-1.325S339.011,313.895,339.011,314.628z"/>
	<path fill="#29ABE2" stroke="#0071BC" stroke-width="0.75" d="M346.198,315.065c0,0.66-0.537,1.196-1.199,1.196
		s-1.199-0.536-1.199-1.196c0-0.664,0.537-1.2,1.199-1.2S346.198,314.401,346.198,315.065z"/>
	<path fill="#29ABE2" stroke="#0071BC" stroke-width="0.75" d="M339.886,300.378c0,0.591-0.48,1.071-1.074,1.071
		s-1.074-0.48-1.074-1.071c0-0.595,0.48-1.075,1.074-1.075S339.886,299.783,339.886,300.378z"/>
	<path fill="#29ABE2" stroke="#0071BC" stroke-width="0.75" d="M343.136,315.691c0,0.971-0.789,1.758-1.761,1.758
		s-1.761-0.787-1.761-1.758c0-0.976,0.789-1.764,1.761-1.764S343.136,314.716,343.136,315.691z"/>
	<path fill="#29ABE2" stroke="#0071BC" stroke-width="0.75" d="M342.823,296.128c0,0.591-0.481,1.071-1.074,1.071
		s-1.074-0.48-1.074-1.071c0-0.595,0.481-1.075,1.074-1.075S342.823,295.533,342.823,296.128z"/>
	<circle fill="#29ABE2" stroke="#0071BC" stroke-width="0.75" cx="337.967" cy="296.784" r="1.968"/>
	<circle fill="#29ABE2" stroke="#0071BC" stroke-width="0.75" cx="308.25" cy="315.252" r="1.25"/>
	<circle fill="#29ABE2" stroke="#0071BC" stroke-width="0.75" cx="310" cy="306.5" r="1.25"/>
	<circle fill="#29ABE2" stroke="#0071BC" stroke-width="0.75" cx="327.875" cy="311" r="1.625"/>
	<circle fill="#29ABE2" stroke="#0071BC" stroke-width="0.75" cx="360.333" cy="251.835" r="2"/>
	<circle fill="#29ABE2" stroke="#0071BC" stroke-width="0.75" cx="346.5" cy="224.668" r="2"/>
	<circle fill="#29ABE2" stroke="#0071BC" stroke-width="0.75" cx="339.375" cy="177.293" r="2.375"/>
	<circle fill="#29ABE2" stroke="#0071BC" stroke-width="0.75" cx="334.667" cy="227.335" r="2"/>
</g>
</svg>
