<?xml version="1.0" encoding="utf-8"?>
<!-- Generator: Adobe Illustrator 16.0.0, SVG Export Plug-In . SVG Version: 6.00 Build 0)  -->
<!DOCTYPE svg PUBLIC "-//W3C//DTD SVG 1.1//EN" "http://www.w3.org/Graphics/SVG/1.1/DTD/svg11.dtd">
<svg version="1.1" xmlns="http://www.w3.org/2000/svg" xmlns:xlink="http://www.w3.org/1999/xlink" x="0px" y="0px" width="730px"
	 height="320px" viewBox="0 0 730 320" enable-background="new 0 0 730 320" xml:space="preserve">
<g id="Layer_2">
	<path fill="#8CC63F" fill-opacity="0.5" stroke="#7EBA2E" stroke-width="1.5" d="M462,283
		c-86.562-5.229-154.543-82.75-177.597-159.798c-31.454-105.12-89.772,14.904-103.975-15.424
		c-24.31-51.912-32.195-86.728-61.936-3.665C97.91,161.598,98.144,241.027,48.5,282.5"/>
	<path fill="#B160F0" fill-opacity="0.5" stroke="#B973F0" stroke-width="1.5" d="M706,283
		c-197-10.431-147.539-48.291-180.5-110.132c-17.903-33.591-27.784-83.218-75.833-34.709
		c-13.423,13.552-22.049,50.371-42.919,56.402c-19.556,5.655-43.166-16.219-54.585,5.897
		C318.79,265.091,111.811,284.487,48.25,282.5"/>
</g>
<g id="Layer_1">
	<text transform="matrix(1 0 0 1 38.4199 293.0605)" fill="#808080" font-family="'MyriadPro-Regular'" font-size="12">0</text>
	<text transform="matrix(1 0 0 1 23.4478 222.3096)" fill="#808080" font-family="'MyriadPro-Regular'" font-size="12">0.1</text>
	<text transform="matrix(1 0 0 1 23.4478 157.5625)" fill="#808080" font-family="'MyriadPro-Regular'" font-size="12">0.2</text>
	<text transform="matrix(1 0 0 1 23.4478 94.4775)" fill="#808080" font-family="'MyriadPro-Regular'" font-size="12">0.3</text>
	<text transform="matrix(1 0 0 1 23.4478 30.0596)" fill="#808080" font-family="'MyriadPro-Regular'" font-size="12">0.4</text>
	<line fill="none" stroke="#666666" x1="48.241" y1="283.015" x2="48.241" y2="26.542"/>
	<g>
		<g>
			<line fill="none" stroke="#666666" x1="41.496" y1="219.015" x2="47.913" y2="219.015"/>
			<line fill="none" stroke="#666666" x1="41.496" y1="155.011" x2="47.913" y2="155.011"/>
			<line fill="none" stroke="#666666" x1="41.496" y1="91.007" x2="47.913" y2="91.007"/>
			<line fill="none" stroke="#666666" x1="41.496" y1="27.007" x2="47.913" y2="27.007"/>
		</g>
	</g>
	<g>
		<line fill="none" stroke="#666666" x1="47.709" y1="283.015" x2="706.5" y2="283.015"/>
	</g>
	<line fill="none" stroke="#666666" x1="85.039" y1="283.008" x2="85.039" y2="290.508"/>
	<line fill="none" stroke="#666666" x1="121.828" y1="283.008" x2="121.828" y2="290.508"/>
	<line fill="none" stroke="#666666" x1="158.617" y1="283.008" x2="158.617" y2="290.508"/>
	<line fill="none" stroke="#666666" x1="195.407" y1="283.008" x2="195.407" y2="290.508"/>
	<line fill="none" stroke="#666666" x1="232.196" y1="283.008" x2="232.196" y2="290.508"/>
	<line fill="none" stroke="#666666" x1="268.986" y1="283.008" x2="268.986" y2="290.508"/>
	<line fill="none" stroke="#666666" x1="305.775" y1="283.008" x2="305.775" y2="290.508"/>
	<line fill="none" stroke="#666666" x1="342.564" y1="283.008" x2="342.564" y2="290.508"/>
	<line fill="none" stroke="#666666" x1="379.354" y1="283.008" x2="379.354" y2="290.508"/>
	<line fill="none" stroke="#666666" x1="416.143" y1="283.008" x2="416.143" y2="290.508"/>
	<line fill="none" stroke="#666666" x1="452.932" y1="283.008" x2="452.932" y2="290.508"/>
	<line fill="none" stroke="#666666" x1="489.722" y1="283.008" x2="489.722" y2="290.508"/>
	<line fill="none" stroke="#666666" x1="526.511" y1="283.008" x2="526.511" y2="290.508"/>
	<line fill="none" stroke="#666666" x1="563.3" y1="283.008" x2="563.3" y2="290.508"/>
	<line fill="none" stroke="#666666" x1="600.09" y1="283.008" x2="600.09" y2="290.508"/>
	<line fill="none" stroke="#666666" x1="636.879" y1="283.008" x2="636.879" y2="290.508"/>
	<line fill="none" stroke="#666666" x1="673.668" y1="283.008" x2="673.668" y2="290.508"/>
	<g>
		<text transform="matrix(1 0 0 1 82.165 305.0049)" fill="#808080" font-family="'MyriadPro-Regular'" font-size="12">1</text>
	</g>
	<g>
		<text transform="matrix(1 0 0 1 118.4966 305.0049)" fill="#808080" font-family="'MyriadPro-Regular'" font-size="12">2</text>
	</g>
	<g>
		<text transform="matrix(1 0 0 1 155.8301 305.0049)" fill="#808080" font-family="'MyriadPro-Regular'" font-size="12">3</text>
	</g>
	<g>
		<text transform="matrix(1 0 0 1 191.8301 305.0049)" fill="#808080" font-family="'MyriadPro-Regular'" font-size="12">4</text>
	</g>
	<g>
		<text transform="matrix(1 0 0 1 229.5 305.0049)" fill="#808080" font-family="'MyriadPro-Regular'" font-size="12">5</text>
	</g>
	<g>
		<text transform="matrix(1 0 0 1 265.4995 305.0049)" fill="#808080" font-family="'MyriadPro-Regular'" font-size="12">6</text>
	</g>
	<g>
		<text transform="matrix(1 0 0 1 302.4995 305.0049)" fill="#808080" font-family="'MyriadPro-Regular'" font-size="12">7</text>
	</g>
	<g>
		<text transform="matrix(1 0 0 1 339 305.0049)" fill="#808080" font-family="'MyriadPro-Regular'" font-size="12">8</text>
	</g>
	<g>
		<text transform="matrix(1 0 0 1 376.5 305.0049)" fill="#808080" font-family="'MyriadPro-Regular'" font-size="12">9</text>
	</g>
	<g>
		<text transform="matrix(1 0 0 1 409.498 305.0049)" fill="#808080" font-family="'MyriadPro-Regular'" font-size="12">10</text>
	</g>
	<g>
		<text transform="matrix(1 0 0 1 446.4961 305.0049)" fill="#808080" font-family="'MyriadPro-Regular'" font-size="12">11</text>
	</g>
	<g>
		<text transform="matrix(1 0 0 1 483.498 305.0049)" fill="#808080" font-family="'MyriadPro-Regular'" font-size="12">12</text>
	</g>
	<g>
		<text transform="matrix(1 0 0 1 520.5 305.0049)" fill="#808080" font-family="'MyriadPro-Regular'" font-size="12">13</text>
	</g>
	<g>
		<text transform="matrix(1 0 0 1 556.502 305.0049)" fill="#808080" font-family="'MyriadPro-Regular'" font-size="12">14</text>
	</g>
	<g>
		<text transform="matrix(1 0 0 1 594 305.0049)" fill="#808080" font-family="'MyriadPro-Regular'" font-size="12">15</text>
	</g>
	<g>
		<text transform="matrix(1 0 0 1 631 305.0049)" fill="#808080" font-family="'MyriadPro-Regular'" font-size="12">16</text>
	</g>
	<g>
		<text transform="matrix(1 0 0 1 666.998 305.0049)" fill="#808080" font-family="'MyriadPro-Regular'" font-size="12">17</text>
	</g>
</g>
</svg>
