<?xml version="1.0" encoding="utf-8"?>
<!-- Generator: Adobe Illustrator 16.0.0, SVG Export Plug-In . SVG Version: 6.00 Build 0)  -->
<!DOCTYPE svg PUBLIC "-//W3C//DTD SVG 1.1//EN" "http://www.w3.org/Graphics/SVG/1.1/DTD/svg11.dtd">
<svg version="1.1" xmlns="http://www.w3.org/2000/svg" xmlns:xlink="http://www.w3.org/1999/xlink" x="0px" y="0px" width="730px"
	 height="320px" viewBox="0 0 730 320" enable-background="new 0 0 730 320" xml:space="preserve">
<g id="Layer_3">
	<rect x="438.668" y="143.435" fill="#9FC66B" width="42" height="126.129"/>
	<rect x="484.894" y="97" fill="#9FC66B" width="42" height="172.564"/>
	<rect x="531.117" y="196.333" fill="#9FC66B" width="42" height="73.231"/>
	<rect x="577.342" y="160" fill="#9FC66B" width="42" height="109.564"/>
	<rect x="623.565" y="175.425" fill="#9FC66B" width="42" height="94.14"/>
</g>
<g id="Layer_2">
	<text transform="matrix(1 0 0 1 47.4351 282.8643)" fill="#B3B3B3" font-family="'MyriadPro-Light'" font-size="11.5247">0</text>
	
		<text transform="matrix(1 0 0 1 97.8896 284.1182)" fill="#B3B3B3" font-family="'MyriadPro-Light'" font-size="11.5247" letter-spacing="1">0.2</text>
	
		<text transform="matrix(1 0 0 1 144.1147 284.1182)" fill="#B3B3B3" font-family="'MyriadPro-Light'" font-size="11.5247" letter-spacing="1">0.4</text>
	
		<text transform="matrix(1 0 0 1 190.3379 284.1182)" fill="#B3B3B3" font-family="'MyriadPro-Light'" font-size="11.5247" letter-spacing="1">0.6</text>
	
		<text transform="matrix(1 0 0 1 236.5625 284.1182)" fill="#B3B3B3" font-family="'MyriadPro-Light'" font-size="11.5247" letter-spacing="1">0.8</text>
	
		<text transform="matrix(1 0 0 1 282.7842 284.1182)" fill="#B3B3B3" font-family="'MyriadPro-Light'" font-size="11.5247" letter-spacing="1">1.0</text>
	
		<text transform="matrix(1 0 0 1 327.2827 284.1182)" fill="#B3B3B3" font-family="'MyriadPro-Light'" font-size="11.5247" letter-spacing="1">1.2</text>
	<line fill="none" stroke="#CCCCCC" stroke-width="2" stroke-miterlimit="10" x1="58.915" y1="270.462" x2="337.75" y2="270.462"/>
	<g>
		
			<line fill="none" stroke="#CCCCCC" stroke-width="2" stroke-miterlimit="10" x1="105.672" y1="270.462" x2="105.672" y2="264.685"/>
		
			<line fill="none" stroke="#CCCCCC" stroke-width="2" stroke-miterlimit="10" x1="151.896" y1="270.462" x2="151.896" y2="264.685"/>
		
			<line fill="none" stroke="#CCCCCC" stroke-width="2" stroke-miterlimit="10" x1="198.119" y1="270.462" x2="198.119" y2="264.685"/>
		
			<line fill="none" stroke="#CCCCCC" stroke-width="2" stroke-miterlimit="10" x1="244.342" y1="270.462" x2="244.342" y2="264.685"/>
		
			<line fill="none" stroke="#CCCCCC" stroke-width="2" stroke-miterlimit="10" x1="290.565" y1="270.462" x2="290.565" y2="264.685"/>
		
			<line fill="none" stroke="#CCCCCC" stroke-width="2" stroke-miterlimit="10" x1="336.789" y1="270.462" x2="336.789" y2="264.685"/>
	</g>
	<text transform="matrix(1 0 0 1 39.5098 227.3379)" fill="#B3B3B3" font-family="'MyriadPro-Light'" font-size="11.5247">0.2</text>
	<text transform="matrix(1 0 0 1 39.5098 181.1162)" fill="#B3B3B3" font-family="'MyriadPro-Light'" font-size="11.5247">0.4</text>
	<text transform="matrix(1 0 0 1 39.5098 135.8525)" fill="#B3B3B3" font-family="'MyriadPro-Light'" font-size="11.5247">0.6</text>
	<text transform="matrix(1 0 0 1 39.5098 89.6294)" fill="#B3B3B3" font-family="'MyriadPro-Light'" font-size="11.5247">0.8</text>
	<text transform="matrix(1 0 0 1 39.5098 43.4058)" fill="#B3B3B3" font-family="'MyriadPro-Light'" font-size="11.5247">1.0</text>
	<line fill="none" stroke="#CCCCCC" stroke-width="2" stroke-miterlimit="10" x1="59.45" y1="270.462" x2="59.45" y2="38.811"/>
	<g>
		<line fill="none" stroke="#CCCCCC" stroke-width="2" stroke-miterlimit="10" x1="59.45" y1="224.241" x2="65.228" y2="224.241"/>
		<line fill="none" stroke="#CCCCCC" stroke-width="2" stroke-miterlimit="10" x1="59.45" y1="178.018" x2="65.228" y2="178.018"/>
		<line fill="none" stroke="#CCCCCC" stroke-width="2" stroke-miterlimit="10" x1="59.45" y1="131.793" x2="65.228" y2="131.793"/>
		<line fill="none" stroke="#CCCCCC" stroke-width="2" stroke-miterlimit="10" x1="59.45" y1="85.57" x2="65.228" y2="85.57"/>
		<line fill="none" stroke="#CCCCCC" stroke-width="2" stroke-miterlimit="10" x1="59.45" y1="39.347" x2="65.228" y2="39.347"/>
	</g>
	<text transform="matrix(1 0 0 1 400.4355 283.8643)" fill="#B3B3B3" font-family="'MyriadPro-Light'" font-size="11.5247">0</text>
	
		<text transform="matrix(1 0 0 1 456.2969 285.1182)" fill="#B3B3B3" font-family="'MyriadPro-Light'" font-size="11.5247" letter-spacing="1">A</text>
	
		<text transform="matrix(1 0 0 1 502.9834 285.1182)" fill="#B3B3B3" font-family="'MyriadPro-Light'" font-size="11.5247" letter-spacing="1">B</text>
	
		<text transform="matrix(1 0 0 1 548.832 285.1182)" fill="#B3B3B3" font-family="'MyriadPro-Light'" font-size="11.5247" letter-spacing="1">C</text>
	
		<text transform="matrix(1 0 0 1 594.6133 285.1182)" fill="#B3B3B3" font-family="'MyriadPro-Light'" font-size="11.5247" letter-spacing="1">D</text>
	
		<text transform="matrix(1 0 0 1 641.8779 285.1182)" fill="#B3B3B3" font-family="'MyriadPro-Light'" font-size="11.5247" letter-spacing="1">E</text>
	<line fill="none" stroke="#CCCCCC" stroke-width="2" stroke-miterlimit="10" x1="412.915" y1="270.462" x2="688.75" y2="270.462"/>
	<g>
		
			<line fill="none" stroke="#CCCCCC" stroke-width="2" stroke-miterlimit="10" x1="459.672" y1="270.462" x2="459.672" y2="264.685"/>
		
			<line fill="none" stroke="#CCCCCC" stroke-width="2" stroke-miterlimit="10" x1="505.896" y1="270.462" x2="505.896" y2="264.685"/>
		
			<line fill="none" stroke="#CCCCCC" stroke-width="2" stroke-miterlimit="10" x1="552.119" y1="270.462" x2="552.119" y2="264.685"/>
		
			<line fill="none" stroke="#CCCCCC" stroke-width="2" stroke-miterlimit="10" x1="598.342" y1="270.462" x2="598.342" y2="264.685"/>
		
			<line fill="none" stroke="#CCCCCC" stroke-width="2" stroke-miterlimit="10" x1="644.565" y1="270.462" x2="644.565" y2="264.685"/>
	</g>
	<text transform="matrix(1 0 0 1 393.5098 227.3379)" fill="#B3B3B3" font-family="'MyriadPro-Light'" font-size="11.5247">0.2</text>
	<text transform="matrix(1 0 0 1 393.5098 181.1162)" fill="#B3B3B3" font-family="'MyriadPro-Light'" font-size="11.5247">0.4</text>
	<text transform="matrix(1 0 0 1 393.5098 135.8525)" fill="#B3B3B3" font-family="'MyriadPro-Light'" font-size="11.5247">0.6</text>
	<text transform="matrix(1 0 0 1 393.5098 89.6294)" fill="#B3B3B3" font-family="'MyriadPro-Light'" font-size="11.5247">0.8</text>
	<text transform="matrix(1 0 0 1 393.5098 43.4058)" fill="#B3B3B3" font-family="'MyriadPro-Light'" font-size="11.5247">1.0</text>
	<line fill="none" stroke="#CCCCCC" stroke-width="2" stroke-miterlimit="10" x1="413.449" y1="270.462" x2="413.449" y2="38.811"/>
	<g>
		
			<line fill="none" stroke="#CCCCCC" stroke-width="2" stroke-miterlimit="10" x1="413.449" y1="224.241" x2="419.228" y2="224.241"/>
		
			<line fill="none" stroke="#CCCCCC" stroke-width="2" stroke-miterlimit="10" x1="413.449" y1="178.018" x2="419.228" y2="178.018"/>
		
			<line fill="none" stroke="#CCCCCC" stroke-width="2" stroke-miterlimit="10" x1="413.449" y1="131.793" x2="419.228" y2="131.793"/>
		<line fill="none" stroke="#CCCCCC" stroke-width="2" stroke-miterlimit="10" x1="413.449" y1="85.57" x2="419.228" y2="85.57"/>
		<line fill="none" stroke="#CCCCCC" stroke-width="2" stroke-miterlimit="10" x1="413.449" y1="39.347" x2="419.228" y2="39.347"/>
	</g>
</g>
<g id="Layer_1">
	<circle fill="#333333" cx="105.334" cy="199.833" r="3.5"/>
	<circle fill="#333333" cx="184.5" cy="108" r="3.5"/>
	<circle fill="#333333" cx="282.333" cy="85" r="3.5"/>
	<circle fill="#333333" cx="228" cy="205.5" r="3.5"/>
	<circle fill="#333333" cx="119.5" cy="69.5" r="3.5"/>
	<circle fill="#333333" cx="297" cy="180.705" r="3.5"/>
	<g>
		<g>
			<line fill="none" stroke="#333333" stroke-width="2" stroke-miterlimit="10" x1="95" y1="69.5" x2="144" y2="69.5"/>
			<g>
				<rect x="94" y="63" fill="#333333" width="2" height="13"/>
			</g>
			<g>
				<rect x="143" y="63" fill="#333333" width="2" height="13"/>
			</g>
		</g>
	</g>
	<g>
		<g>
			<line fill="none" stroke="#333333" stroke-width="2" stroke-miterlimit="10" x1="119.5" y1="50.371" x2="119.5" y2="88.629"/>
			<g>
				<rect x="113" y="49.371" fill="#333333" width="13" height="2"/>
			</g>
			<g>
				<rect x="113" y="87.629" fill="#333333" width="13" height="2"/>
			</g>
		</g>
	</g>
	<g>
		<g>
			<line fill="none" stroke="#333333" stroke-width="2" stroke-miterlimit="10" x1="184.5" y1="66.5" x2="184.5" y2="149.5"/>
			<g>
				<rect x="178" y="65.5" fill="#333333" width="13" height="2"/>
			</g>
			<g>
				<rect x="178" y="148.5" fill="#333333" width="13" height="2"/>
			</g>
		</g>
	</g>
	<g>
		<g>
			<line fill="none" stroke="#333333" stroke-width="2" stroke-miterlimit="10" x1="162.5" y1="108" x2="206.5" y2="108"/>
			<g>
				<rect x="161.5" y="101.5" fill="#333333" width="2" height="13"/>
			</g>
			<g>
				<rect x="205.5" y="101.5" fill="#333333" width="2" height="13"/>
			</g>
		</g>
	</g>
	<g>
		<g>
			
				<line fill="none" stroke="#333333" stroke-width="2" stroke-miterlimit="10" x1="85.502" y1="199.833" x2="125.167" y2="199.833"/>
			<g>
				<rect x="84.502" y="193.333" fill="#333333" width="2" height="13"/>
			</g>
			<g>
				<rect x="124.167" y="193.333" fill="#333333" width="2" height="13"/>
			</g>
		</g>
	</g>
	<g>
		<g>
			
				<line fill="none" stroke="#333333" stroke-width="2" stroke-miterlimit="10" x1="105.334" y1="176.425" x2="105.334" y2="223.241"/>
			<g>
				<rect x="98.834" y="175.425" fill="#333333" width="13" height="2"/>
			</g>
			<g>
				<rect x="98.834" y="222.241" fill="#333333" width="13" height="2"/>
			</g>
		</g>
	</g>
	<g>
		<g>
			<line fill="none" stroke="#333333" stroke-width="2" stroke-miterlimit="10" x1="195" y1="205.5" x2="261" y2="205.5"/>
			<g>
				<rect x="194" y="199" fill="#333333" width="2" height="13"/>
			</g>
			<g>
				<rect x="260" y="199" fill="#333333" width="2" height="13"/>
			</g>
		</g>
	</g>
	<g>
		<g>
			<line fill="none" stroke="#333333" stroke-width="2" stroke-miterlimit="10" x1="228" y1="167" x2="228" y2="244"/>
			<g>
				<rect x="221.5" y="166" fill="#333333" width="13" height="2"/>
			</g>
			<g>
				<rect x="221.5" y="243" fill="#333333" width="13" height="2"/>
			</g>
		</g>
	</g>
	<g>
		<g>
			<line fill="none" stroke="#333333" stroke-width="2" stroke-miterlimit="10" x1="297" y1="165.872" x2="297" y2="195.538"/>
			<g>
				<rect x="290.5" y="164.872" fill="#333333" width="13" height="2"/>
			</g>
			<g>
				<rect x="290.5" y="194.538" fill="#333333" width="13" height="2"/>
			</g>
		</g>
	</g>
	<g>
		<g>
			<line fill="none" stroke="#333333" stroke-width="2" stroke-miterlimit="10" x1="284" y1="180.705" x2="310" y2="180.705"/>
			<g>
				<rect x="283" y="174.205" fill="#333333" width="2" height="13"/>
			</g>
			<g>
				<rect x="309" y="174.205" fill="#333333" width="2" height="13"/>
			</g>
		</g>
	</g>
	<g>
		<g>
			<line fill="none" stroke="#333333" stroke-width="2" stroke-miterlimit="10" x1="282.333" y1="59.5" x2="282.333" y2="110.5"/>
			<g>
				<rect x="275.833" y="58.5" fill="#333333" width="13" height="2"/>
			</g>
			<g>
				<rect x="275.833" y="109.5" fill="#333333" width="13" height="2"/>
			</g>
		</g>
	</g>
	<g>
		<g>
			
				<line fill="none" stroke="#333333" stroke-width="2" stroke-miterlimit="10" x1="459.672" y1="117.935" x2="459.672" y2="168.936"/>
			<g>
				<rect x="453.172" y="116.935" fill="#333333" width="13" height="2"/>
			</g>
			<g>
				<rect x="453.172" y="167.936" fill="#333333" width="13" height="2"/>
			</g>
		</g>
	</g>
	<g>
		<g>
			<line fill="none" stroke="#333333" stroke-width="2" stroke-miterlimit="10" x1="505.896" y1="82.5" x2="505.896" y2="111.5"/>
			<g>
				<rect x="499.396" y="81.5" fill="#333333" width="13" height="2"/>
			</g>
			<g>
				<rect x="499.396" y="110.5" fill="#333333" width="13" height="2"/>
			</g>
		</g>
	</g>
	<g>
		<g>
			
				<line fill="none" stroke="#333333" stroke-width="2" stroke-miterlimit="10" x1="552.119" y1="151.5" x2="552.119" y2="241.575"/>
			<g>
				<rect x="545.619" y="150.5" fill="#333333" width="13" height="2"/>
			</g>
			<g>
				<rect x="545.619" y="240.575" fill="#333333" width="13" height="2"/>
			</g>
		</g>
	</g>
	<g>
		<g>
			
				<line fill="none" stroke="#333333" stroke-width="2" stroke-miterlimit="10" x1="598.342" y1="117.935" x2="598.342" y2="202.064"/>
			<g>
				<rect x="591.842" y="116.935" fill="#333333" width="13" height="2"/>
			</g>
			<g>
				<rect x="591.842" y="201.064" fill="#333333" width="13" height="2"/>
			</g>
		</g>
	</g>
	<g>
		<g>
			<line fill="none" stroke="#333333" stroke-width="2" stroke-miterlimit="10" x1="644.565" y1="161" x2="644.565" y2="189.85"/>
			<g>
				<rect x="638.065" y="160" fill="#333333" width="13" height="2"/>
			</g>
			<g>
				<rect x="638.065" y="188.85" fill="#333333" width="13" height="2"/>
			</g>
		</g>
	</g>
	<g>
		<g>
			<line fill="none" stroke="#333333" stroke-width="2" stroke-miterlimit="10" x1="265.833" y1="85" x2="298.833" y2="85"/>
			<g>
				<rect x="264.833" y="78.5" fill="#333333" width="2" height="13"/>
			</g>
			<g>
				<rect x="297.833" y="78.5" fill="#333333" width="2" height="13"/>
			</g>
		</g>
	</g>
</g>
</svg>
