<?xml version="1.0" encoding="utf-8"?>
<!-- Generator: Adobe Illustrator 16.0.0, SVG Export Plug-In . SVG Version: 6.00 Build 0)  -->
<!DOCTYPE svg PUBLIC "-//W3C//DTD SVG 1.1//EN" "http://www.w3.org/Graphics/SVG/1.1/DTD/svg11.dtd">
<svg version="1.1" xmlns="http://www.w3.org/2000/svg" xmlns:xlink="http://www.w3.org/1999/xlink" x="0px" y="0px" width="730px"
	 height="320px" viewBox="0 0 730 320" enable-background="new 0 0 730 320" xml:space="preserve">
<g id="Layer_1">
</g>
<g id="Layer_2">
	<g>
		<g>
			<line fill="none" stroke="#4D4D4D" stroke-width="1.3" x1="249.23" y1="57.499" x2="249.23" y2="83.938"/>
			<g>
				<polygon fill="#4D4D4D" points="243.914,79.63 244.866,78.743 249.229,83.438 253.594,78.743 254.546,79.63 249.229,85.347 				
					"/>
			</g>
		</g>
	</g>
	<g>
		<g>
			<line fill="none" stroke="#4D4D4D" stroke-width="1.3" x1="249.23" y1="125.6" x2="249.23" y2="152.038"/>
			<g>
				<polygon fill="#4D4D4D" points="243.914,147.73 244.866,146.844 249.229,151.539 253.594,146.844 254.546,147.73 
					249.229,153.448 				"/>
			</g>
		</g>
	</g>
	<g>
		<g>
			<line fill="none" stroke="#4D4D4D" stroke-width="1.3" x1="249.23" y1="194.606" x2="249.23" y2="221.044"/>
			<g>
				<polygon fill="#4D4D4D" points="243.914,216.736 244.866,215.85 249.229,220.545 253.594,215.85 254.546,216.736 
					249.229,222.454 				"/>
			</g>
		</g>
	</g>
	<g>
		<g>
			<line fill="none" stroke="#4D4D4D" stroke-width="1.3" x1="491.78" y1="243.218" x2="491.78" y2="197.819"/>
			<g>
				<polygon fill="#4D4D4D" points="497.097,202.127 496.145,203.014 491.781,198.318 487.417,203.014 486.465,202.127 
					491.781,196.409 				"/>
			</g>
		</g>
	</g>
	<g>
		<g>
			<line fill="none" stroke="#4D4D4D" stroke-width="1.3" x1="491.78" y1="155.785" x2="491.78" y2="129.347"/>
			<g>
				<polygon fill="#4D4D4D" points="497.097,133.655 496.145,134.542 491.781,129.846 487.417,134.542 486.465,133.655 
					491.781,127.938 				"/>
			</g>
		</g>
	</g>
	<g>
		<g>
			<line fill="none" stroke="#4D4D4D" stroke-width="1.3" x1="491.78" y1="87.468" x2="491.78" y2="61.03"/>
			<g>
				<polygon fill="#4D4D4D" points="497.097,65.337 496.145,66.224 491.781,61.529 487.417,66.224 486.465,65.337 491.781,59.62 
									"/>
			</g>
		</g>
	</g>
	<g>
		<g>
			<polyline fill="none" stroke="#4D4D4D" stroke-width="1.3" points="177.317,262.136 137.626,262.136 137.626,174.969 
				173.208,174.969 			"/>
			<g>
				<polygon fill="#4D4D4D" points="168.9,180.285 168.013,179.333 172.708,174.97 168.013,170.605 168.9,169.653 174.617,174.97 
									"/>
			</g>
		</g>
	</g>
	<g>
		<g>
			<line fill="none" stroke="#4D4D4D" stroke-width="1.3" x1="320.084" y1="262.136" x2="417.397" y2="262.136"/>
			<g>
				<polygon fill="#4D4D4D" points="413.09,267.452 412.203,266.5 416.898,262.137 412.203,257.772 413.09,256.82 418.808,262.137 
									"/>
			</g>
		</g>
	</g>
	<g>
		<polygon fill="#3BD490" points="176.256,262.136 249.23,223.98 322.205,262.136 249.23,300.292 		"/>
	</g>
	<rect x="418.807" y="155.482" fill="#6FA0CF" width="145.948" height="39.275"/>
	<rect x="418.808" y="242.499" fill="#6FA0CF" width="145.948" height="39.275"/>
	<rect x="176.256" y="86.718" fill="#6FA0CF" width="145.948" height="39.274"/>
	<rect x="176.256" y="155.332" fill="#6FA0CF" width="145.948" height="39.275"/>
	<rect x="418.807" y="86.718" fill="#6FA0CF" width="145.947" height="39.274"/>
	<path fill="#EC6166" d="M566.392,38.604c0,10.435-7.312,18.895-15.021,18.895H432.186c-7.71,0-15.021-8.46-15.021-18.895l0,0
		c0-10.436,7.311-18.896,15.021-18.896H551.37C559.079,19.708,566.392,28.168,566.392,38.604L566.392,38.604z"/>
	<path fill="#EC6166" d="M323.844,38.604c0,10.435-7.312,18.895-15.021,18.895H189.638c-7.71,0-15.021-8.46-15.021-18.895l0,0
		c0-10.436,7.311-18.896,15.021-18.896h119.184C316.531,19.708,323.844,28.168,323.844,38.604L323.844,38.604z"/>
	<g>
		<text transform="matrix(1 0 0 1 461.3516 42.8457)" fill="#FFFFFF" font-family="'Helvetica-Bold'" font-size="12.7257">Serve rice</text>
	</g>
	<text transform="matrix(1 0 0 1 198.3091 110.3159)" fill="#FFFFFF" font-family="'Helvetica'" font-size="12.7257">Fill pan with water</text>
	<text transform="matrix(1 0 0 1 197.585 179.623)" fill="#FFFFFF" font-family="'Helvetica'" font-size="12.7257">Heat pan on stove</text>
	<text transform="matrix(1 0 0 1 355.9785 253.6094)" fill="#1A1A1A" font-family="'Helvetica'" font-size="12.7257">Yes</text>
	<text transform="matrix(1 0 0 1 113.9385 218.5537)" fill="#1A1A1A" font-family="'Helvetica'" font-size="12.7257">No</text>
	<text transform="matrix(1 0 0 1 468.4395 266.666)" fill="#FFFFFF" font-family="'Helvetica'" font-size="12.7257">Add rice</text>
	<text transform="matrix(1 0 0 1 435.54 110.6348)" fill="#FFFFFF" font-family="'Helvetica'" font-size="12.7257">Drain pan into sieve</text>
	<text transform="matrix(1 0 0 1 217.9912 259.8203)"><tspan x="0" y="0" fill="#FFFFFF" font-family="'Helvetica'" font-size="12.7257">Is the water</tspan><tspan x="10.955" y="13.907" fill="#FFFFFF" font-family="'Helvetica'" font-size="12.7257">boiling?</tspan></text>
	<text transform="matrix(1 0 0 1 435.5391 172.1641)"><tspan x="0" y="0" fill="#FFFFFF" font-family="'Helvetica'" font-size="12.7257">Reduce heat to low,</tspan><tspan x="0.715" y="13.907" fill="#FFFFFF" font-family="'Helvetica'" font-size="12.7257">cook for 15 minutes</tspan></text>
	<text transform="matrix(1 0 0 1 201.8599 42.8457)" fill="#FFFFFF" font-family="'Helvetica-Bold'" font-size="12.7257">How to boil rice</text>
</g>
</svg>
