<?xml version="1.0" encoding="utf-8"?>
<!-- Generator: Adobe Illustrator 20.1.0, SVG Export Plug-In . SVG Version: 6.00 Build 0)  -->
<svg version="1.1" xmlns="http://www.w3.org/2000/svg" xmlns:xlink="http://www.w3.org/1999/xlink" x="0px" y="0px"
	 viewBox="0 0 730 320" style="enable-background:new 0 0 730 320;" xml:space="preserve">
<style type="text/css">
	.st0{fill:#F2F2F2;}
	.st1{fill:none;stroke:#E6E6E6;stroke-width:0.75;}
	.st2{fill:#808080;}
	.st3{font-family:'MyriadPro-Regular';}
	.st4{font-size:12px;}
	.st5{fill:#FFFFFF;stroke:#8CC63F;stroke-linejoin:round;}
	.st6{fill:#FFFFFF;stroke:#FBB03B;stroke-linecap:round;stroke-linejoin:round;}
	.st7{fill:#FFFFFF;stroke:#CE71FF;stroke-linejoin:round;}
	.st8{fill:#CE71FF;stroke:#CE71FF;stroke-linecap:round;stroke-linejoin:round;}
	.st9{fill:#FFFFFF;stroke:#CE71FF;stroke-linecap:round;stroke-linejoin:round;}
	.st10{fill:#FBB03B;stroke:#FBB03B;stroke-linecap:round;stroke-linejoin:round;}
	.st11{fill:#8CC63F;stroke:#8CC63F;stroke-linejoin:round;}
	.st12{fill:#CE71FF;stroke:#CE71FF;stroke-linejoin:round;}
	.st13{fill:none;stroke:#4D4D4D;stroke-linejoin:round;stroke-dasharray:10,6;}
	.st14{fill:none;stroke:#808080;stroke-linejoin:round;}
</style>
<g id="Layer_2">
	<rect x="17.5" y="18.5" class="st0" width="695" height="31.4"/>
	<g>
		<line class="st1" x1="712.5" y1="301.5" x2="17.5" y2="301.5"/>
		<line class="st1" x1="17.5" y1="18.5" x2="712.5" y2="18.5"/>
		<line class="st1" x1="17.5" y1="270.1" x2="712.5" y2="270.1"/>
		<line class="st1" x1="17.5" y1="238.6" x2="712.5" y2="238.6"/>
		<line class="st1" x1="17.5" y1="207.2" x2="712.5" y2="207.2"/>
		<line class="st1" x1="17.5" y1="175.7" x2="712.5" y2="175.7"/>
		<line class="st1" x1="17.5" y1="144.3" x2="712.5" y2="144.3"/>
		<line class="st1" x1="17.5" y1="112.8" x2="712.5" y2="112.8"/>
		<line class="st1" x1="17.5" y1="81.4" x2="712.5" y2="81.4"/>
		<line class="st1" x1="17.5" y1="49.9" x2="712.5" y2="49.9"/>
		<line class="st1" x1="680.9" y1="18.5" x2="680.9" y2="301.5"/>
		<line class="st1" x1="649.3" y1="18.5" x2="649.3" y2="301.5"/>
		<line class="st1" x1="617.7" y1="18.5" x2="617.7" y2="301.5"/>
		<line class="st1" x1="586.1" y1="18.5" x2="586.1" y2="301.5"/>
		<line class="st1" x1="554.5" y1="18.5" x2="554.5" y2="301.5"/>
		<line class="st1" x1="523" y1="18.5" x2="523" y2="301.5"/>
		<line class="st1" x1="491.4" y1="18.5" x2="491.4" y2="301.5"/>
		<line class="st1" x1="459.8" y1="18.5" x2="459.8" y2="301.5"/>
		<line class="st1" x1="428.2" y1="18.5" x2="428.2" y2="301.5"/>
		<line class="st1" x1="396.6" y1="18.5" x2="396.6" y2="301.5"/>
		<line class="st1" x1="365" y1="18.5" x2="365" y2="301.5"/>
		<line class="st1" x1="333.4" y1="18.5" x2="333.4" y2="301.5"/>
		<line class="st1" x1="301.8" y1="18.5" x2="301.8" y2="301.5"/>
		<line class="st1" x1="270.2" y1="18.5" x2="270.2" y2="301.5"/>
		<line class="st1" x1="238.6" y1="18.5" x2="238.6" y2="301.5"/>
		<line class="st1" x1="207" y1="18.5" x2="207" y2="301.5"/>
		<line class="st1" x1="175.5" y1="18.5" x2="175.5" y2="301.5"/>
		<line class="st1" x1="143.9" y1="18.5" x2="143.9" y2="301.5"/>
		<line class="st1" x1="112.3" y1="18.5" x2="112.3" y2="301.5"/>
		<line class="st1" x1="80.7" y1="18.5" x2="80.7" y2="301.5"/>
	</g>
</g>
<g id="Layer_1">
	<text transform="matrix(1 0 0 1 22.5 39)" class="st2 st3 st4">Weeks:</text>
	<text transform="matrix(1 0 0 1 22.5 70)"><tspan x="0" y="0" class="st2 st3 st4">A</tspan><tspan x="7.8" y="0" class="st2 st3 st4">ctivity A</tspan></text>
	<text transform="matrix(1 0 0 1 22.5 101.3333)"><tspan x="0" y="0" class="st2 st3 st4">A</tspan><tspan x="7.8" y="0" class="st2 st3 st4">ctivity B</tspan></text>
	<text transform="matrix(1 0 0 1 22.5 132)"><tspan x="0" y="0" class="st2 st3 st4">A</tspan><tspan x="7.8" y="0" class="st2 st3 st4">ctivity C</tspan></text>
	<text transform="matrix(1 0 0 1 22.5 164.3333)"><tspan x="0" y="0" class="st2 st3 st4">A</tspan><tspan x="7.8" y="0" class="st2 st3 st4">ctivity D</tspan></text>
	<text transform="matrix(1 0 0 1 22.5 194.6667)"><tspan x="0" y="0" class="st2 st3 st4">A</tspan><tspan x="7.8" y="0" class="st2 st3 st4">ctivity E</tspan></text>
	<text transform="matrix(1 0 0 1 22.5 226.3333)"><tspan x="0" y="0" class="st2 st3 st4">A</tspan><tspan x="7.8" y="0" class="st2 st3 st4">ctivity F</tspan></text>
	<text transform="matrix(1 0 0 1 22.5 258.3333)"><tspan x="0" y="0" class="st2 st3 st4">A</tspan><tspan x="7.8" y="0" class="st2 st3 st4">ctivity G</tspan></text>
	<text transform="matrix(1 0 0 1 22.5 290.3333)"><tspan x="0" y="0" class="st2 st3 st4">A</tspan><tspan x="7.8" y="0" class="st2 st3 st4">ctivity H</tspan></text>
	<text transform="matrix(1 0 0 1 92.5 39)" class="st2 st3 st4">1</text>
	<text transform="matrix(1 0 0 1 125 39)" class="st2 st3 st4">2</text>
	<text transform="matrix(1 0 0 1 156 39)" class="st2 st3 st4">3</text>
	<text transform="matrix(1 0 0 1 187.5 39)" class="st2 st3 st4">4</text>
	<text transform="matrix(1 0 0 1 219.5 39)" class="st2 st3 st4">5</text>
	<text transform="matrix(1 0 0 1 251 39)" class="st2 st3 st4">6</text>
	<text transform="matrix(1 0 0 1 282 39)" class="st2 st3 st4">7</text>
	<text transform="matrix(1 0 0 1 315 39)" class="st2 st3 st4">8</text>
	<text transform="matrix(1 0 0 1 346.6667 39)" class="st2 st3 st4">9</text>
	<text transform="matrix(1 0 0 1 374.1595 39)" class="st2 st3 st4">10</text>
	<text transform="matrix(1 0 0 1 406.6608 39)" class="st2 st3 st4">11</text>
	<text transform="matrix(1 0 0 1 437.6608 39)" class="st2 st3 st4">12</text>
	<text transform="matrix(1 0 0 1 469.9941 39)" class="st2 st3 st4">13</text>
	<text transform="matrix(1 0 0 1 501.6608 39)" class="st2 st3 st4">14</text>
	<text transform="matrix(1 0 0 1 532.6608 39)" class="st2 st3 st4">15</text>
	<text transform="matrix(1 0 0 1 564.6608 39)" class="st2 st3 st4">16</text>
	<text transform="matrix(1 0 0 1 596.3275 39)" class="st2 st3 st4">17</text>
	<text transform="matrix(1 0 0 1 627.6608 39)" class="st2 st3 st4">18</text>
	<text transform="matrix(1 0 0 1 658.9941 39)" class="st2 st3 st4">19</text>
	<text transform="matrix(1 0 0 1 691.1775 39)" class="st2 st3 st4">20</text>
</g>
<g id="Layer_3">
	<polyline class="st5" points="363.8,280.2 427.3,280.2 427.3,294.7 423.7,291 363.8,291 	"/>
	<polyline class="st6" points="174.8,123.8 206.2,123.8 206.2,138.2 202.5,134.6 174.8,134.6 	"/>
	<polyline class="st6" points="237.7,186.5 332.5,186.5 332.5,201 328.9,197.4 237.7,197.4 	"/>
	<polyline class="st5" points="364.7,154.8 396,154.8 396,169.2 392.4,165.6 364.7,165.6 	"/>
	<polyline class="st7" points="490,217.4 617.2,217.4 617.2,231.9 613.6,228.3 490,228.3 	"/>
	<polygon class="st8" points="171.5,70.9 175.1,74.5 175.1,60 81.7,60 81.7,74.5 85.3,70.9 	"/>
	<polygon class="st8" points="233.9,102.1 237.5,105.7 237.5,91.2 176.5,91.2 176.5,105.7 180.1,102.1 	"/>
	<polygon class="st9" points="707.9,260.1 711.5,263.7 711.5,249.2 618.8,249.2 618.8,263.7 622.4,260.1 	"/>
	<polyline class="st10" points="175.5,123.8 113.3,123.8 113.3,138.2 116.9,134.6 175.5,134.6 	"/>
	<polyline class="st10" points="238.5,186.4 176.3,186.4 176.3,200.9 179.9,197.3 238.5,197.3 	"/>
	<polyline class="st11" points="365.4,154.8 239.5,154.8 239.5,169.2 243.2,165.6 365.4,165.6 	"/>
	<polyline class="st12" points="491.5,217.4 397.6,217.4 397.6,231.9 401.2,228.3 491.5,228.3 	"/>
	<polyline class="st11" points="365.3,280.2 303.3,280.2 303.3,294.7 307,291 365.3,291 	"/>
</g>
<g id="Layer_4">
	<line class="st13" x1="491.4" y1="301.5" x2="491.4" y2="18.5"/>
	<g>
		<g>
			<polyline class="st14" points="175.8,66.8 183.5,66.8 183.5,87.9 			"/>
			<g>
				<polygon class="st2" points="178.6,84 179.5,83.2 183.5,87.5 187.5,83.2 188.4,84 183.5,89.2 				"/>
			</g>
		</g>
	</g>
	<g>
		<g>
			<polyline class="st14" points="617.8,223.8 625.5,223.8 625.5,245.9 			"/>
			<g>
				<polygon class="st2" points="620.6,242 621.5,241.2 625.5,245.5 629.5,241.2 630.4,242 625.5,247.2 				"/>
			</g>
		</g>
	</g>
	<g>
		<g>
			<polyline class="st14" points="238.2,97.2 246,97.2 246,151.7 			"/>
			<g>
				<polygon class="st2" points="241.1,147.7 242,146.9 246,151.2 250,146.9 250.9,147.7 246,153 				"/>
			</g>
		</g>
	</g>
	<g>
		<g>
			<polyline class="st14" points="396.2,161.2 405,161.2 405,213.7 			"/>
			<g>
				<polygon class="st2" points="400.1,209.7 401,208.9 405,213.2 409,208.9 409.9,209.7 405,215 				"/>
			</g>
		</g>
	</g>
</g>
</svg>
