<?xml version="1.0" encoding="utf-8"?>
<!-- Generator: Adobe Illustrator 16.0.0, SVG Export Plug-In . SVG Version: 6.00 Build 0)  -->
<!DOCTYPE svg PUBLIC "-//W3C//DTD SVG 1.1//EN" "http://www.w3.org/Graphics/SVG/1.1/DTD/svg11.dtd">
<svg version="1.1" xmlns="http://www.w3.org/2000/svg" xmlns:xlink="http://www.w3.org/1999/xlink" x="0px" y="0px" width="730px"
	 height="320px" viewBox="0 0 730 320" enable-background="new 0 0 730 320" xml:space="preserve">
<g id="Layer_1">
</g>
<g id="Layer_2">
	<text transform="matrix(1 0 0 1 16.8354 27.2505)" fill="#808080" font-family="'Helvetica'" font-size="11">Town A</text>
	<text transform="matrix(1.0283 0 0 1 15.0879 50.2505)" fill="#808080" font-family="'Helvetica'" font-size="11">Town B</text>
	<text transform="matrix(1.0283 0 0 1 14.4639 72.7505)" fill="#808080" font-family="'Helvetica'" font-size="11">Town C</text>
	<text transform="matrix(1.0283 0 0 1 14.4639 95.7505)" fill="#808080" font-family="'Helvetica'" font-size="11">Town D</text>
	<text transform="matrix(1.0283 0 0 1 15.0879 119.5005)" fill="#808080" font-family="'Helvetica'" font-size="11">Town E</text>
	<text transform="matrix(1.0283 0 0 1 15.7231 142.5005)" fill="#808080" font-family="'Helvetica'" font-size="11">Town F</text>
	<text transform="matrix(1.0283 0 0 1 13.834 165)" fill="#808080" font-family="'Helvetica'" font-size="11">Town G</text>
	<text transform="matrix(1.0283 0 0 1 14.4639 187.75)" fill="#808080" font-family="'Helvetica'" font-size="11">Town H</text>
	<text transform="matrix(1.0283 0 0 1 19.4897 210.75)" fill="#808080" font-family="'Helvetica'" font-size="11">Town I</text>
	<text transform="matrix(1.0283 0 0 1 16.9771 234.25)" fill="#808080" font-family="'Helvetica'" font-size="11">Town J</text>
	<text transform="matrix(1.0283 0 0 1 15.0312 256.5)" fill="#808080" font-family="'Helvetica'" font-size="11">Town K</text>
	<text transform="matrix(1.0283 0 0 1 16.6147 280)" fill="#808080" font-family="'Helvetica'" font-size="11">Town L</text>
	<text transform="matrix(1.0283 0 0 1 77.9175 305.667)" fill="#808080" font-family="'Helvetica'" font-size="11">Jan</text>
	<text transform="matrix(1.0283 0 0 1 130.9175 305.667)" fill="#808080" font-family="'Helvetica'" font-size="11">Feb</text>
	<text transform="matrix(1.0283 0 0 1 186.4175 305.667)" fill="#808080" font-family="'Helvetica'" font-size="11">Mar</text>
	<text transform="matrix(1.0283 0 0 1 238.4175 305.667)" fill="#808080" font-family="'Helvetica'" font-size="11">Apr</text>
	<text transform="matrix(1.0283 0 0 1 292.9175 305.667)" fill="#808080" font-family="'Helvetica'" font-size="11">May</text>
	<text transform="matrix(1.0283 0 0 1 347.9175 305.667)" fill="#808080" font-family="'Helvetica'" font-size="11">Jun</text>
	<text transform="matrix(1.0283 0 0 1 403.918 305.667)" fill="#808080" font-family="'Helvetica'" font-size="11">Jul</text>
	<text transform="matrix(1.0283 0 0 1 455.918 305.667)" fill="#808080" font-family="'Helvetica'" font-size="11">Aug</text>
	<text transform="matrix(1.0283 0 0 1 509.918 305.667)" fill="#808080" font-family="'Helvetica'" font-size="11">Sep</text>
	<text transform="matrix(1.0283 0 0 1 565.418 305.667)" fill="#808080" font-family="'Helvetica'" font-size="11">Oct</text>
	<text transform="matrix(1.0283 0 0 1 617.918 305.667)" fill="#808080" font-family="'Helvetica'" font-size="11">Nov</text>
	<text transform="matrix(1.0283 0 0 1 671.418 305.667)" fill="#808080" font-family="'Helvetica'" font-size="11">Dec</text>
	<rect x="60" y="12.083" fill="#94ABF5" stroke="#FFFFFF" stroke-width="0.5" width="54.167" height="23"/>
	<rect x="60" y="35.083" fill="#7F9BF5" stroke="#FFFFFF" stroke-width="0.5" width="54.167" height="23"/>
	<rect x="60" y="58.083" fill="#7F9BF5" stroke="#FFFFFF" stroke-width="0.5" width="54.167" height="23"/>
	<rect x="60" y="81.083" fill="#A0ACE1" stroke="#FFFFFF" stroke-width="0.5" width="54.167" height="23"/>
	<rect x="60" y="104.083" fill="#94ABF5" stroke="#FFFFFF" stroke-width="0.5" width="54.167" height="23"/>
	<rect x="60" y="127.083" fill="#6E8EF5" stroke="#FFFFFF" stroke-width="0.5" width="54.167" height="23"/>
	<rect x="60" y="150.083" fill="#6383EB" stroke="#FFFFFF" stroke-width="0.5" width="54.167" height="23"/>
	<rect x="60" y="173.083" fill="#7F9BF5" stroke="#FFFFFF" stroke-width="0.5" width="54.167" height="23"/>
	<rect x="60" y="196.083" fill="#94ABF5" stroke="#FFFFFF" stroke-width="0.5" width="54.167" height="23"/>
	<rect x="60" y="219.083" fill="#6C8AEB" stroke="#FFFFFF" stroke-width="0.5" width="54.167" height="23"/>
	<rect x="60" y="242.083" fill="#94ABF5" stroke="#FFFFFF" stroke-width="0.5" width="54.167" height="23"/>
	<rect x="60" y="265.083" fill="#94ABF5" stroke="#FFFFFF" stroke-width="0.5" width="54.167" height="23"/>
	<rect x="114.167" y="12.083" fill="#A0ACE1" stroke="#FFFFFF" stroke-width="0.5" width="54.167" height="23"/>
	<rect x="114.167" y="35.083" fill="#7F9BF5" stroke="#FFFFFF" stroke-width="0.5" width="54.167" height="23"/>
	<rect x="114.167" y="58.083" fill="#94ABF5" stroke="#FFFFFF" stroke-width="0.5" width="54.167" height="23"/>
	<rect x="114.167" y="81.083" fill="#ACADCE" stroke="#FFFFFF" stroke-width="0.5" width="54.167" height="23"/>
	<rect x="114.167" y="104.083" fill="#A0ACE1" stroke="#FFFFFF" stroke-width="0.5" width="54.167" height="23"/>
	<rect x="114.167" y="127.083" fill="#7F9BF5" stroke="#FFFFFF" stroke-width="0.5" width="54.167" height="23"/>
	<rect x="114.167" y="150.083" fill="#6E8EF5" stroke="#FFFFFF" stroke-width="0.5" width="54.167" height="23"/>
	<rect x="114.167" y="173.083" fill="#94ABF5" stroke="#FFFFFF" stroke-width="0.5" width="54.167" height="23"/>
	<rect x="114.167" y="196.083" fill="#94ABF5" stroke="#FFFFFF" stroke-width="0.5" width="54.167" height="23"/>
	<rect x="114.167" y="219.083" fill="#7F9BF5" stroke="#FFFFFF" stroke-width="0.5" width="54.167" height="23"/>
	<rect x="114.167" y="242.083" fill="#A0ACE1" stroke="#FFFFFF" stroke-width="0.5" width="54.167" height="23"/>
	<rect x="114.167" y="265.083" fill="#A0ACE1" stroke="#FFFFFF" stroke-width="0.5" width="54.167" height="23"/>
	<rect x="168.333" y="12.083" fill="#A0ACE1" stroke="#FFFFFF" stroke-width="0.5" width="54.167" height="23"/>
	<rect x="168.333" y="35.083" fill="#94ABF5" stroke="#FFFFFF" stroke-width="0.5" width="54.167" height="23"/>
	<rect x="168.333" y="58.083" fill="#A0ACE1" stroke="#FFFFFF" stroke-width="0.5" width="54.167" height="23"/>
	<rect x="168.333" y="81.083" fill="#ACADCE" stroke="#FFFFFF" stroke-width="0.5" width="54.167" height="23"/>
	<rect x="168.333" y="104.083" fill="#ACADCE" stroke="#FFFFFF" stroke-width="0.5" width="54.167" height="23"/>
	<rect x="168.333" y="127.083" fill="#849FF5" stroke="#FFFFFF" stroke-width="0.5" width="54.167" height="23"/>
	<rect x="168.333" y="150.083" fill="#94ABF5" stroke="#FFFFFF" stroke-width="0.5" width="54.167" height="23"/>
	<rect x="168.333" y="173.083" fill="#ACADCE" stroke="#FFFFFF" stroke-width="0.5" width="54.167" height="23"/>
	<rect x="168.333" y="196.083" fill="#A0ACE1" stroke="#FFFFFF" stroke-width="0.5" width="54.167" height="23"/>
	<rect x="168.333" y="219.083" fill="#94ABF5" stroke="#FFFFFF" stroke-width="0.5" width="54.167" height="23"/>
	<rect x="168.333" y="242.083" fill="#B8AEBA" stroke="#FFFFFF" stroke-width="0.5" width="54.167" height="23"/>
	<rect x="168.333" y="265.083" fill="#A0ACE1" stroke="#FFFFFF" stroke-width="0.5" width="54.167" height="23"/>
	<rect x="222.5" y="12.083" fill="#B8AEBA" stroke="#FFFFFF" stroke-width="0.5" width="54.167" height="23"/>
	<rect x="222.5" y="35.083" fill="#A0ACE1" stroke="#FFFFFF" stroke-width="0.5" width="54.167" height="23"/>
	<rect x="222.5" y="58.083" fill="#B8AEBA" stroke="#FFFFFF" stroke-width="0.5" width="54.167" height="23"/>
	<rect x="222.5" y="81.083" fill="#C4AFA7" stroke="#FFFFFF" stroke-width="0.5" width="54.167" height="23"/>
	<rect x="222.5" y="104.083" fill="#ACADCE" stroke="#FFFFFF" stroke-width="0.5" width="54.167" height="23"/>
	<rect x="222.5" y="127.083" fill="#94ABF5" stroke="#FFFFFF" stroke-width="0.5" width="54.167" height="23"/>
	<rect x="222.5" y="150.083" fill="#A0ACE1" stroke="#FFFFFF" stroke-width="0.5" width="54.167" height="23"/>
	<rect x="222.5" y="173.083" fill="#C4AFA7" stroke="#FFFFFF" stroke-width="0.5" width="54.167" height="23"/>
	<rect x="222.5" y="196.083" fill="#ACADCE" stroke="#FFFFFF" stroke-width="0.5" width="54.167" height="23"/>
	<rect x="222.5" y="219.083" fill="#A0ACE1" stroke="#FFFFFF" stroke-width="0.5" width="54.167" height="23"/>
	<rect x="222.5" y="242.083" fill="#DBB080" stroke="#FFFFFF" stroke-width="0.5" width="54.167" height="23"/>
	<rect x="222.5" y="265.083" fill="#B8AEBA" stroke="#FFFFFF" stroke-width="0.5" width="54.167" height="23"/>
	<rect x="276.667" y="12.083" fill="#B8AEBA" stroke="#FFFFFF" stroke-width="0.5" width="54.167" height="23"/>
	<rect x="276.667" y="35.083" fill="#ACADCE" stroke="#FFFFFF" stroke-width="0.5" width="54.167" height="23"/>
	<rect x="276.667" y="58.083" fill="#C4AFA7" stroke="#FFFFFF" stroke-width="0.5" width="54.167" height="23"/>
	<rect x="276.667" y="81.083" fill="#C4AFA7" stroke="#FFFFFF" stroke-width="0.5" width="54.167" height="23"/>
	<rect x="276.667" y="104.083" fill="#ACADCE" stroke="#FFFFFF" stroke-width="0.5" width="54.167" height="23"/>
	<rect x="276.667" y="127.083" fill="#A0ACE1" stroke="#FFFFFF" stroke-width="0.5" width="54.167" height="23"/>
	<rect x="276.667" y="150.083" fill="#B8AEBA" stroke="#FFFFFF" stroke-width="0.5" width="54.167" height="23"/>
	<rect x="276.667" y="173.083" fill="#C4AFA7" stroke="#FFFFFF" stroke-width="0.5" width="54.167" height="23"/>
	<rect x="276.667" y="196.083" fill="#C4AFA7" stroke="#FFFFFF" stroke-width="0.5" width="54.167" height="23"/>
	<rect x="276.667" y="219.083" fill="#A0ACE1" stroke="#FFFFFF" stroke-width="0.5" width="54.167" height="23"/>
	<rect x="276.667" y="242.083" fill="#E7B16C" stroke="#FFFFFF" stroke-width="0.5" width="54.167" height="23"/>
	<rect x="276.667" y="265.083" fill="#B8AEBA" stroke="#FFFFFF" stroke-width="0.5" width="54.167" height="23"/>
	<rect x="330.833" y="12.083" fill="#C4AFA7" stroke="#FFFFFF" stroke-width="0.5" width="54.167" height="23"/>
	<rect x="330.833" y="35.083" fill="#B8AEBA" stroke="#FFFFFF" stroke-width="0.5" width="54.167" height="23"/>
	<rect x="330.833" y="58.083" fill="#CFAF93" stroke="#FFFFFF" stroke-width="0.5" width="54.167" height="23"/>
	<rect x="330.833" y="81.083" fill="#E7B16C" stroke="#FFFFFF" stroke-width="0.5" width="54.167" height="23"/>
	<rect x="330.833" y="104.083" fill="#C4AFA7" stroke="#FFFFFF" stroke-width="0.5" width="54.167" height="23"/>
	<rect x="330.833" y="127.083" fill="#B8AEBA" stroke="#FFFFFF" stroke-width="0.5" width="54.167" height="23"/>
	<rect x="330.833" y="150.083" fill="#CFAF93" stroke="#FFFFFF" stroke-width="0.5" width="54.167" height="23"/>
	<rect x="330.833" y="173.083" fill="#E7B16C" stroke="#FFFFFF" stroke-width="0.5" width="54.167" height="23"/>
	<rect x="330.833" y="196.083" fill="#C4AFA7" stroke="#FFFFFF" stroke-width="0.5" width="54.167" height="23"/>
	<rect x="330.833" y="219.083" fill="#ACADCE" stroke="#FFFFFF" stroke-width="0.5" width="54.167" height="23"/>
	<rect x="330.833" y="242.083" fill="#E7B16C" stroke="#FFFFFF" stroke-width="0.5" width="54.167" height="23"/>
	<rect x="330.833" y="265.083" fill="#C4AFA7" stroke="#FFFFFF" stroke-width="0.5" width="54.167" height="23"/>
	<rect x="385" y="12.083" fill="#E7B16C" stroke="#FFFFFF" stroke-width="0.5" width="54.167" height="23"/>
	<rect x="385" y="35.083" fill="#DBB080" stroke="#FFFFFF" stroke-width="0.5" width="54.167" height="23"/>
	<rect x="385" y="58.083" fill="#F3B259" stroke="#FFFFFF" stroke-width="0.5" width="54.167" height="23"/>
	<rect x="385" y="81.083" fill="#FFB345" stroke="#FFFFFF" stroke-width="0.5" width="54.167" height="23"/>
	<rect x="385" y="104.083" fill="#CFAF93" stroke="#FFFFFF" stroke-width="0.5" width="54.167" height="23"/>
	<rect x="385" y="127.083" fill="#B8AEBA" stroke="#FFFFFF" stroke-width="0.5" width="54.167" height="23"/>
	<rect x="385" y="150.083" fill="#DBB080" stroke="#FFFFFF" stroke-width="0.5" width="54.167" height="23"/>
	<rect x="385" y="173.083" fill="#F3B259" stroke="#FFFFFF" stroke-width="0.5" width="54.167" height="23"/>
	<rect x="385" y="196.083" fill="#CFAF93" stroke="#FFFFFF" stroke-width="0.5" width="54.167" height="23"/>
	<rect x="385" y="219.083" fill="#B8AEBA" stroke="#FFFFFF" stroke-width="0.5" width="54.167" height="23"/>
	<rect x="385" y="242.083" fill="#FFB345" stroke="#FFFFFF" stroke-width="0.5" width="54.167" height="23"/>
	<rect x="385" y="265.083" fill="#DBB080" stroke="#FFFFFF" stroke-width="0.5" width="54.167" height="23"/>
	<rect x="439.167" y="12.083" fill="#C4AFA7" stroke="#FFFFFF" stroke-width="0.5" width="54.166" height="23"/>
	<rect x="439.167" y="35.083" fill="#CFAF93" stroke="#FFFFFF" stroke-width="0.5" width="54.166" height="23"/>
	<rect x="439.167" y="58.083" fill="#DBB080" stroke="#FFFFFF" stroke-width="0.5" width="54.166" height="23"/>
	<rect x="439.167" y="81.083" fill="#F3B259" stroke="#FFFFFF" stroke-width="0.5" width="54.166" height="23"/>
	<rect x="439.167" y="104.083" fill="#CFAF93" stroke="#FFFFFF" stroke-width="0.5" width="54.166" height="23"/>
	<rect x="439.167" y="127.083" fill="#B8AEBA" stroke="#FFFFFF" stroke-width="0.5" width="54.166" height="23"/>
	<rect x="439.167" y="150.083" fill="#C4AFA7" stroke="#FFFFFF" stroke-width="0.5" width="54.166" height="23"/>
	<rect x="439.167" y="173.083" fill="#DBB080" stroke="#FFFFFF" stroke-width="0.5" width="54.166" height="23"/>
	<rect x="439.167" y="196.083" fill="#C4AFA7" stroke="#FFFFFF" stroke-width="0.5" width="54.166" height="23"/>
	<rect x="439.167" y="219.083" fill="#ACADCE" stroke="#FFFFFF" stroke-width="0.5" width="54.166" height="23"/>
	<rect x="439.167" y="242.083" fill="#F3B259" stroke="#FFFFFF" stroke-width="0.5" width="54.166" height="23"/>
	<rect x="439.167" y="265.083" fill="#CFAF93" stroke="#FFFFFF" stroke-width="0.5" width="54.166" height="23"/>
	<rect x="493.333" y="12.083" fill="#B8AEBA" stroke="#FFFFFF" stroke-width="0.5" width="54.167" height="23"/>
	<rect x="493.333" y="35.083" fill="#B8AEBA" stroke="#FFFFFF" stroke-width="0.5" width="54.167" height="23"/>
	<rect x="493.333" y="58.083" fill="#C4AFA7" stroke="#FFFFFF" stroke-width="0.5" width="54.167" height="23"/>
	<rect x="493.333" y="81.083" fill="#DBB080" stroke="#FFFFFF" stroke-width="0.5" width="54.167" height="23"/>
	<rect x="493.333" y="104.083" fill="#B8AEBA" stroke="#FFFFFF" stroke-width="0.5" width="54.167" height="23"/>
	<rect x="493.333" y="127.083" fill="#ACADCE" stroke="#FFFFFF" stroke-width="0.5" width="54.167" height="23"/>
	<rect x="493.333" y="150.083" fill="#B8AEBA" stroke="#FFFFFF" stroke-width="0.5" width="54.167" height="23"/>
	<rect x="493.333" y="173.083" fill="#C4AFA7" stroke="#FFFFFF" stroke-width="0.5" width="54.167" height="23"/>
	<rect x="493.333" y="196.083" fill="#B8AEBA" stroke="#FFFFFF" stroke-width="0.5" width="54.167" height="23"/>
	<rect x="493.333" y="219.083" fill="#ACADCE" stroke="#FFFFFF" stroke-width="0.5" width="54.167" height="23"/>
	<rect x="493.333" y="242.083" fill="#DBB080" stroke="#FFFFFF" stroke-width="0.5" width="54.167" height="23"/>
	<rect x="493.333" y="265.083" fill="#B8AEBA" stroke="#FFFFFF" stroke-width="0.5" width="54.167" height="23"/>
	<rect x="547.5" y="12.083" fill="#ACADCE" stroke="#FFFFFF" stroke-width="0.5" width="54.167" height="23"/>
	<g>
		<rect x="35.723" y="-54.5" fill="#94ABF5" width="36.389" height="23"/>
		<rect x="78.176" y="-54.5" fill="#A0ACE1" width="36.389" height="23"/>
		<rect x="120.63" y="-54.5" fill="#ACADCE" width="36.389" height="23"/>
		<rect x="163.084" y="-54.5" fill="#B8AEBA" width="36.389" height="23"/>
		<rect x="205.538" y="-54.5" fill="#C4AFA7" width="36.389" height="23"/>
		<rect x="247.991" y="-54.5" fill="#CFAF93" width="36.389" height="23"/>
		<rect x="290.445" y="-54.5" fill="#DBB080" width="36.389" height="23"/>
		<rect x="332.898" y="-54.5" fill="#E7B16C" width="36.389" height="23"/>
		<rect x="375.353" y="-54.5" fill="#F3B259" width="36.389" height="23"/>
		<rect x="417.806" y="-54.5" fill="#FFB345" width="36.39" height="23"/>
	</g>
	<rect x="547.5" y="35.083" fill="#A0ACE1" stroke="#FFFFFF" stroke-width="0.5" width="54.167" height="23"/>
	<rect x="547.5" y="58.083" fill="#ACADCE" stroke="#FFFFFF" stroke-width="0.5" width="54.167" height="23"/>
	<rect x="547.5" y="81.083" fill="#C4AFA7" stroke="#FFFFFF" stroke-width="0.5" width="54.167" height="23"/>
	<rect x="547.5" y="104.083" fill="#ACADCE" stroke="#FFFFFF" stroke-width="0.5" width="54.167" height="23"/>
	<rect x="547.5" y="127.083" fill="#A0ACE1" stroke="#FFFFFF" stroke-width="0.5" width="54.167" height="23"/>
	<rect x="547.5" y="150.083" fill="#94ABF5" stroke="#FFFFFF" stroke-width="0.5" width="54.167" height="23"/>
	<rect x="547.5" y="173.083" fill="#ACADCE" stroke="#FFFFFF" stroke-width="0.5" width="54.167" height="23"/>
	<rect x="547.5" y="196.083" fill="#A0ACE1" stroke="#FFFFFF" stroke-width="0.5" width="54.167" height="23"/>
	<rect x="547.5" y="219.083" fill="#94ABF5" stroke="#FFFFFF" stroke-width="0.5" width="54.167" height="23"/>
	<rect x="547.5" y="242.083" fill="#C4AFA7" stroke="#FFFFFF" stroke-width="0.5" width="54.167" height="23"/>
	<rect x="547.5" y="265.083" fill="#B8AEBA" stroke="#FFFFFF" stroke-width="0.5" width="54.167" height="23"/>
	<rect x="601.667" y="12.083" fill="#A0ACE1" stroke="#FFFFFF" stroke-width="0.5" width="54.166" height="23"/>
	<rect x="601.667" y="35.083" fill="#94ABF5" stroke="#FFFFFF" stroke-width="0.5" width="54.166" height="23"/>
	<rect x="601.667" y="58.083" fill="#ACADCE" stroke="#FFFFFF" stroke-width="0.5" width="54.166" height="23"/>
	<rect x="601.667" y="81.083" fill="#ACADCE" stroke="#FFFFFF" stroke-width="0.5" width="54.166" height="23"/>
	<rect x="601.667" y="104.083" fill="#A0ACE1" stroke="#FFFFFF" stroke-width="0.5" width="54.166" height="23"/>
	<rect x="601.667" y="127.083" fill="#94ABF5" stroke="#FFFFFF" stroke-width="0.5" width="54.166" height="23"/>
	<rect x="601.667" y="150.083" fill="#849FF5" stroke="#FFFFFF" stroke-width="0.5" width="54.166" height="23"/>
	<rect x="601.667" y="173.083" fill="#A0ACE1" stroke="#FFFFFF" stroke-width="0.5" width="54.166" height="23"/>
	<rect x="601.667" y="196.083" fill="#94ABF5" stroke="#FFFFFF" stroke-width="0.5" width="54.166" height="23"/>
	<rect x="601.667" y="219.083" fill="#94ABF5" stroke="#FFFFFF" stroke-width="0.5" width="54.166" height="23"/>
	<rect x="601.667" y="242.083" fill="#ACADCE" stroke="#FFFFFF" stroke-width="0.5" width="54.166" height="23"/>
	<rect x="601.667" y="265.083" fill="#A0ACE1" stroke="#FFFFFF" stroke-width="0.5" width="54.166" height="23"/>
	<rect x="655.833" y="12.083" fill="#A0ACE1" stroke="#FFFFFF" stroke-width="0.5" width="54.167" height="23"/>
	<rect x="655.833" y="35.083" fill="#7F9BF5" stroke="#FFFFFF" stroke-width="0.5" width="54.167" height="23"/>
	<rect x="655.833" y="58.083" fill="#94ABF5" stroke="#FFFFFF" stroke-width="0.5" width="54.167" height="23"/>
	<rect x="655.833" y="81.083" fill="#ACADCE" stroke="#FFFFFF" stroke-width="0.5" width="54.167" height="23"/>
	<rect x="655.833" y="104.083" fill="#A0ACE1" stroke="#FFFFFF" stroke-width="0.5" width="54.167" height="23"/>
	<rect x="655.833" y="127.083" fill="#849FF5" stroke="#FFFFFF" stroke-width="0.5" width="54.167" height="23"/>
	<rect x="655.833" y="150.083" fill="#7F9BF5" stroke="#FFFFFF" stroke-width="0.5" width="54.167" height="23"/>
	<rect x="655.833" y="173.083" fill="#94ABF5" stroke="#FFFFFF" stroke-width="0.5" width="54.167" height="23"/>
	<rect x="655.833" y="196.083" fill="#94ABF5" stroke="#FFFFFF" stroke-width="0.5" width="54.167" height="23"/>
	<rect x="655.833" y="219.083" fill="#7F9BF5" stroke="#FFFFFF" stroke-width="0.5" width="54.167" height="23"/>
	<rect x="655.833" y="242.083" fill="#94ABF5" stroke="#FFFFFF" stroke-width="0.5" width="54.167" height="23"/>
	<rect x="655.833" y="265.083" fill="#94ABF5" stroke="#FFFFFF" stroke-width="0.5" width="54.167" height="23"/>
</g>
</svg>
