<?xml version="1.0" encoding="utf-8"?>
<!-- Generator: Adobe Illustrator 16.0.0, SVG Export Plug-In . SVG Version: 6.00 Build 0)  -->
<!DOCTYPE svg PUBLIC "-//W3C//DTD SVG 1.1//EN" "http://www.w3.org/Graphics/SVG/1.1/DTD/svg11.dtd">
<svg version="1.1" xmlns="http://www.w3.org/2000/svg" xmlns:xlink="http://www.w3.org/1999/xlink" x="0px" y="0px" width="730px"
	 height="320px" viewBox="0 0 730 320" enable-background="new 0 0 730 320" xml:space="preserve">
<g id="Layer_2">
	<polyline fill="none" stroke="#B3B3B3" points="17.5,300.5 672.5,300.5 672.5,15.5 	"/>
	<text transform="matrix(1 0 0 1 683.167 18.917)"><tspan x="0" y="0" fill="#999999" font-family="'Helvetica-Light'" font-size="9">2155.00</tspan><tspan x="0" y="21" fill="#999999" font-family="'Helvetica-Light'" font-size="9">2150.00</tspan><tspan x="0" y="42" fill="#999999" font-family="'Helvetica-Light'" font-size="9">2145.00</tspan><tspan x="0" y="63" fill="#999999" font-family="'Helvetica-Light'" font-size="9">2140.00</tspan><tspan x="0" y="84" fill="#999999" font-family="'Helvetica-Light'" font-size="9">2135.00</tspan><tspan x="0" y="105" fill="#999999" font-family="'Helvetica-Light'" font-size="9">2130.00</tspan><tspan x="0" y="126" fill="#999999" font-family="'Helvetica-Light'" font-size="9">2125.00</tspan><tspan x="0" y="147" fill="#999999" font-family="'Helvetica-Light'" font-size="9">2120.00</tspan><tspan x="0" y="168" fill="#999999" font-family="'Helvetica-Light'" font-size="9">2115.00</tspan><tspan x="0" y="189" fill="#999999" font-family="'Helvetica-Light'" font-size="9">2110.00</tspan><tspan x="0" y="210" fill="#999999" font-family="'Helvetica-Light'" font-size="9">2105.00</tspan><tspan x="0" y="231" fill="#999999" font-family="'Helvetica-Light'" font-size="9">2100.00</tspan><tspan x="0" y="252" fill="#999999" font-family="'Helvetica-Light'" font-size="9">2095.00</tspan><tspan x="0" y="273" fill="#999999" font-family="'Helvetica-Light'" font-size="9">2090.00</tspan></text>
	<line fill="none" stroke="#B3B3B3" x1="672.062" y1="15.5" x2="679.312" y2="15.5"/>
	<line fill="none" stroke="#B3B3B3" x1="672.062" y1="36.75" x2="679.312" y2="36.75"/>
	<line fill="none" stroke="#B3B3B3" x1="672.062" y1="57.875" x2="679.312" y2="57.875"/>
	<line fill="none" stroke="#B3B3B3" x1="672.062" y1="78.5" x2="679.312" y2="78.5"/>
	<line fill="none" stroke="#B3B3B3" x1="672.062" y1="99.75" x2="679.312" y2="99.75"/>
	<line fill="none" stroke="#B3B3B3" x1="672.062" y1="120.25" x2="679.312" y2="120.25"/>
	<line fill="none" stroke="#B3B3B3" x1="672.062" y1="141.75" x2="679.312" y2="141.75"/>
	<line fill="none" stroke="#B3B3B3" x1="672.062" y1="162.75" x2="679.312" y2="162.75"/>
	<line fill="none" stroke="#B3B3B3" x1="672.062" y1="183.625" x2="679.312" y2="183.625"/>
	<line fill="none" stroke="#B3B3B3" x1="672.062" y1="204.626" x2="679.312" y2="204.626"/>
	<line fill="none" stroke="#B3B3B3" x1="672.062" y1="225.793" x2="679.312" y2="225.793"/>
	<line fill="none" stroke="#B3B3B3" x1="672.062" y1="246.46" x2="679.312" y2="246.46"/>
	<line fill="none" stroke="#B3B3B3" x1="672.062" y1="267.626" x2="679.312" y2="267.626"/>
	<line fill="none" stroke="#B3B3B3" x1="672.062" y1="288.626" x2="679.312" y2="288.626"/>
</g>
<g id="Layer_3">
	<polyline fill="none" stroke="#F05523" stroke-width="2" points="20.375,236 20.375,277.75 27.625,277.75 27.625,236.625 	"/>
	<polyline fill="none" stroke="#F05523" stroke-width="2" points="47.25,268.875 47.25,277.875 54,277.875 54,265.625 
		61.25,265.625 61.25,284.5 67.5,284.5 67.5,266 	"/>
	<polyline fill="none" stroke="#F05523" stroke-width="2" points="127.5,188.25 127.5,215 134,215 134,173.75 	"/>
	<polyline fill="none" stroke="#F05523" stroke-width="2" points="194,190.938 194,192.688 201.062,192.688 201.062,178.75 	"/>
	<polyline fill="none" stroke="#F05523" stroke-width="2" points="207.375,193.062 207.375,217.125 214.375,217.125 
		214.438,163.938 221.25,163.938 221.25,186.125 227.688,186.125 227.688,171.625 234.562,171.625 234.562,195.438 241.625,195.438 
		241.625,173.375 247.75,173.375 247.75,217.125 254.062,217.125 254.062,173.312 261.25,173.312 261.25,192.625 267.438,192.625 
		267.438,173.625 	"/>
	<polyline fill="none" stroke="#F05523" stroke-width="2" points="287.667,176.5 287.667,214.917 294.667,214.917 294.667,154.416 
		301.667,154.416 301.667,173.249 307.917,173.249 307.917,154.416 314.25,154.416 314.25,195.499 321.333,195.499 321.333,154.75 	
		"/>
	<polyline fill="none" stroke="#F05523" stroke-width="2" points="341.333,113.583 341.333,115.5 347.833,115.5 347.833,87.083 	"/>
	<polyline fill="none" stroke="#F05523" stroke-width="2" points="368.166,115.917 368.166,134.917 374.5,134.917 374.5,84.667 	"/>
	<polyline fill="none" stroke="#F05523" stroke-width="2" points="394.5,55.833 394.5,98.666 401.083,98.666 401.083,67.167 
		407.916,67.167 407.916,89.251 415.083,89.251 415.083,67.584 	"/>
	<polyline fill="none" stroke="#F05523" stroke-width="2" points="434.582,76.833 434.582,105.917 440.916,105.917 440.916,93.75 
		447.832,93.75 447.832,108.25 454.832,108.25 454.832,93.917 461.165,93.917 461.165,113.167 468.081,113.167 468.081,94.167 	"/>
	<polyline fill="none" stroke="#F05523" stroke-width="2" points="500.834,96.5 500.834,124.917 508.001,124.917 508.001,106.084 
		514.917,106.084 514.917,147.084 521.251,147.084 521.251,132.751 528.168,132.751 528.168,152.086 535.251,152.086 
		535.251,133.086 	"/>
	<polyline fill="none" stroke="#F05523" stroke-width="2" points="568.082,123.671 568.082,124.921 575.082,124.921 
		575.082,108.587 	"/>
	<polyline fill="none" stroke="#F05523" stroke-width="2" points="608.582,118.67 608.582,175.92 614.831,175.92 614.831,163.754 
		621.331,163.754 621.331,197.671 628.247,197.671 628.247,176.004 635.247,176.004 635.247,192.588 641.497,192.588 
		641.497,176.588 	"/>
</g>
<g id="Layer_4">
	<polyline fill="none" stroke="#33B242" stroke-width="3" points="661.497,171.92 661.497,152.003 655.247,152.003 655.247,175.753 
		648.33,175.753 648.33,163.878 641.008,163.878 641.008,176.656 	"/>
	<polyline fill="none" stroke="#33B242" stroke-width="3" points="608.168,118.75 608.168,106 601.334,106 601.334,117.917 
		595.001,117.917 595.001,103.75 588.001,103.75 588.001,124.667 581.001,124.667 581.001,98.917 574.574,98.917 574.574,108.583 	
		"/>
	<polyline fill="none" stroke="#33B242" stroke-width="3" points="567.625,123.666 567.625,108.25 560.75,108.25 560.75,123 
		554.416,123 554.416,79.25 548.165,79.25 548.165,134.667 541.083,134.667 541.083,118.251 534.771,118.251 534.771,133.084 	"/>
	<polyline fill="none" stroke="#33B242" stroke-width="3" points="500.344,96.5 500.344,74.833 494.416,74.833 494.416,95.75 
		488.166,95.75 488.166,74.917 481,74.917 481,98.5 474.666,98.5 474.666,72 467.614,72 467.614,94.187 	"/>
	<polyline fill="none" stroke="#33B242" stroke-width="3" points="434.085,76.844 434.085,50.251 428.002,50.251 428.002,76.334 
		420.835,76.334 420.835,45.333 414.585,45.333 414.585,67.604 	"/>
	<polyline fill="none" stroke="#33B242" stroke-width="3" points="394.02,55.833 394.02,33.167 387.5,33.167 387.5,55.25 381,55.25 
		381,43 373.979,43 373.979,84.688 	"/>
	<polyline fill="none" stroke="#33B242" stroke-width="3" points="367.656,115.906 367.656,84.25 361.583,84.25 361.583,115.083 
		354.5,115.083 354.5,81.333 347.323,81.333 347.323,87.083 	"/>
	<polyline fill="none" stroke="#33B242" stroke-width="3" points="340.876,113.625 340.876,86.5 334.251,86.5 334.251,113 
		327.168,113 327.168,59.833 320.835,59.833 320.835,154.771 	"/>
	<polyline fill="none" stroke="#33B242" stroke-width="3" points="287.158,176.531 287.158,147 281.084,147 281.084,175.917 
		274.084,175.917 274.084,137.584 266.943,137.584 266.943,173.646 	"/>
	<polyline fill="none" stroke="#33B242" stroke-width="3" points="206.875,193.127 206.875,158.667 200.583,158.667 
		200.583,178.752 	"/>
	<polyline fill="none" stroke="#33B242" stroke-width="3" points="193.458,190.959 193.458,178.251 187.417,178.251 
		187.417,190.084 181.083,190.084 181.083,178.251 174.167,178.251 174.167,197.584 167.083,197.584 167.083,185.918 
		160.75,185.918 160.75,200.167 153.834,200.167 153.834,175.75 146.917,175.75 146.917,202.5 140.584,202.5 140.584,154.335 
		133.583,154.335 133.583,173.835 	"/>
	<polyline fill="none" stroke="#33B242" stroke-width="3" points="127.042,188.333 127.042,173.168 120.835,173.168 
		120.835,187.502 113.918,187.502 113.918,175.835 106.918,175.835 106.918,192.501 100.419,192.501 100.419,173.084 
		93.669,173.084 93.669,255.248 86.586,255.248 86.586,235.915 80.419,235.915 80.419,265.415 73.419,265.415 73.419,248.747 
		67.003,248.747 67.003,266.25 	"/>
	<polyline fill="none" stroke="#33B242" stroke-width="3" points="46.752,269.167 46.752,243.914 40.502,243.914 40.502,268.247 
		33.502,268.247 33.502,214.913 27.169,214.913 27.169,236.833 	"/>
</g>
</svg>
