<?xml version="1.0" encoding="utf-8"?>
<!-- Generator: Adobe Illustrator 16.0.0, SVG Export Plug-In . SVG Version: 6.00 Build 0)  -->
<!DOCTYPE svg PUBLIC "-//W3C//DTD SVG 1.1//EN" "http://www.w3.org/Graphics/SVG/1.1/DTD/svg11.dtd">
<svg version="1.1" xmlns="http://www.w3.org/2000/svg" xmlns:xlink="http://www.w3.org/1999/xlink" x="0px" y="0px" width="730px"
	 height="320px" viewBox="0 0 730 320" enable-background="new 0 0 730 320" xml:space="preserve">
<g id="Layer_3">
	<line fill="none" stroke="#E6E6E6" stroke-width="0.5" x1="88.5" y1="288.5" x2="88.5" y2="22"/>
	<line fill="none" stroke="#E6E6E6" stroke-width="0.5" x1="100.5" y1="288.5" x2="100.5" y2="22"/>
	<line fill="none" stroke="#E6E6E6" stroke-width="0.5" x1="112.5" y1="288.5" x2="112.5" y2="22"/>
	<line fill="none" stroke="#E6E6E6" stroke-width="0.5" x1="124.5" y1="288.5" x2="124.5" y2="22"/>
	<line fill="none" stroke="#E6E6E6" stroke-width="0.5" x1="52.5" y1="288.5" x2="52.5" y2="22"/>
	<line fill="none" stroke="#E6E6E6" stroke-width="0.5" x1="64.5" y1="288.5" x2="64.5" y2="22"/>
	<line fill="none" stroke="#E6E6E6" stroke-width="0.5" x1="76.5" y1="288.5" x2="76.5" y2="22"/>
	<line fill="none" stroke="#E6E6E6" stroke-width="0.5" x1="136.5" y1="288.5" x2="136.5" y2="22"/>
	<line fill="none" stroke="#E6E6E6" stroke-width="0.5" x1="148.5" y1="288.5" x2="148.5" y2="22"/>
	<line fill="none" stroke="#E6E6E6" stroke-width="0.5" x1="160.5" y1="288.5" x2="160.5" y2="22"/>
	<line fill="none" stroke="#E6E6E6" stroke-width="0.5" x1="172.5" y1="288.5" x2="172.5" y2="22"/>
	<line fill="none" stroke="#E6E6E6" stroke-width="0.5" x1="184.5" y1="288.5" x2="184.5" y2="22"/>
	<line fill="none" stroke="#E6E6E6" stroke-width="0.5" x1="196.5" y1="288.5" x2="196.5" y2="22"/>
	<line fill="none" stroke="#E6E6E6" stroke-width="0.5" x1="208.5" y1="288.5" x2="208.5" y2="22"/>
	<line fill="none" stroke="#E6E6E6" stroke-width="0.5" x1="220.5" y1="288.5" x2="220.5" y2="22"/>
	<line fill="none" stroke="#E6E6E6" stroke-width="0.5" x1="232.5" y1="288.5" x2="232.5" y2="22"/>
	<line fill="none" stroke="#E6E6E6" stroke-width="0.5" x1="244.5" y1="288.5" x2="244.5" y2="22"/>
	<line fill="none" stroke="#E6E6E6" stroke-width="0.5" x1="256.5" y1="288.5" x2="256.5" y2="22"/>
	<line fill="none" stroke="#E6E6E6" stroke-width="0.5" x1="268.5" y1="288.5" x2="268.5" y2="22"/>
	<line fill="none" stroke="#E6E6E6" stroke-width="0.5" x1="280.5" y1="288.5" x2="280.5" y2="22"/>
	<line fill="none" stroke="#E6E6E6" stroke-width="0.5" x1="292.5" y1="288.5" x2="292.5" y2="22"/>
	<line fill="none" stroke="#E6E6E6" stroke-width="0.5" x1="304.5" y1="288.5" x2="304.5" y2="22"/>
	<line fill="none" stroke="#E6E6E6" stroke-width="0.5" x1="316.5" y1="288.5" x2="316.5" y2="22"/>
	<line fill="none" stroke="#E6E6E6" stroke-width="0.5" x1="328.5" y1="288.5" x2="328.5" y2="22"/>
	<line fill="none" stroke="#E6E6E6" stroke-width="0.5" x1="340.5" y1="288.5" x2="340.5" y2="22"/>
	<line fill="none" stroke="#E6E6E6" stroke-width="0.5" x1="352.5" y1="288.5" x2="352.5" y2="22"/>
	<line fill="none" stroke="#E6E6E6" stroke-width="0.5" x1="364.5" y1="288.5" x2="364.5" y2="22"/>
	<line fill="none" stroke="#E6E6E6" stroke-width="0.5" x1="376.5" y1="288.5" x2="376.5" y2="22"/>
	<line fill="none" stroke="#E6E6E6" stroke-width="0.5" x1="388.5" y1="288.5" x2="388.5" y2="22"/>
	<line fill="none" stroke="#E6E6E6" stroke-width="0.5" x1="400.5" y1="288.5" x2="400.5" y2="22"/>
	<line fill="none" stroke="#E6E6E6" stroke-width="0.5" x1="412.5" y1="288.5" x2="412.5" y2="22"/>
	<line fill="none" stroke="#E6E6E6" stroke-width="0.5" x1="424.5" y1="288.5" x2="424.5" y2="22"/>
	<line fill="none" stroke="#E6E6E6" stroke-width="0.5" x1="436.5" y1="288.5" x2="436.5" y2="22"/>
	<line fill="none" stroke="#E6E6E6" stroke-width="0.5" x1="448.5" y1="288.5" x2="448.5" y2="22"/>
	<line fill="none" stroke="#E6E6E6" stroke-width="0.5" x1="460.5" y1="288.5" x2="460.5" y2="22"/>
	<line fill="none" stroke="#E6E6E6" stroke-width="0.5" x1="472.5" y1="288.5" x2="472.5" y2="22"/>
	<line fill="none" stroke="#E6E6E6" stroke-width="0.5" x1="484.5" y1="288.5" x2="484.5" y2="22"/>
	<line fill="none" stroke="#E6E6E6" stroke-width="0.5" x1="496.5" y1="288.5" x2="496.5" y2="22"/>
	<line fill="none" stroke="#E6E6E6" stroke-width="0.5" x1="508.5" y1="288.5" x2="508.5" y2="22"/>
	<line fill="none" stroke="#E6E6E6" stroke-width="0.5" x1="520.5" y1="288.5" x2="520.5" y2="22"/>
	<line fill="none" stroke="#E6E6E6" stroke-width="0.5" x1="532.5" y1="288.5" x2="532.5" y2="22"/>
	<line fill="none" stroke="#E6E6E6" stroke-width="0.5" x1="544.5" y1="288.5" x2="544.5" y2="22"/>
	<line fill="none" stroke="#E6E6E6" stroke-width="0.5" x1="556.5" y1="288.5" x2="556.5" y2="22"/>
	<line fill="none" stroke="#E6E6E6" stroke-width="0.5" x1="568.5" y1="288.5" x2="568.5" y2="22"/>
	<line fill="none" stroke="#E6E6E6" stroke-width="0.5" x1="580.5" y1="288.5" x2="580.5" y2="22"/>
	<line fill="none" stroke="#E6E6E6" stroke-width="0.5" x1="592.5" y1="288.5" x2="592.5" y2="22"/>
	<line fill="none" stroke="#E6E6E6" stroke-width="0.5" x1="604.5" y1="288.5" x2="604.5" y2="22"/>
	<line fill="none" stroke="#E6E6E6" stroke-width="0.5" x1="616.5" y1="288.5" x2="616.5" y2="22"/>
	<line fill="none" stroke="#E6E6E6" stroke-width="0.5" x1="628.5" y1="288.5" x2="628.5" y2="22"/>
	<line fill="none" stroke="#E6E6E6" stroke-width="0.5" x1="640.5" y1="288.5" x2="640.5" y2="22"/>
	<line fill="none" stroke="#E6E6E6" stroke-width="0.5" x1="652.5" y1="288.5" x2="652.5" y2="22"/>
	<line fill="none" stroke="#E6E6E6" stroke-width="0.5" x1="664.5" y1="288.5" x2="664.5" y2="22"/>
	<line fill="none" stroke="#E6E6E6" stroke-width="0.5" x1="676.5" y1="288.5" x2="676.5" y2="22"/>
	<line fill="none" stroke="#E6E6E6" stroke-width="0.5" x1="688.5" y1="288.5" x2="688.5" y2="22"/>
	<line fill="none" stroke="#E6E6E6" stroke-width="0.5" x1="700.5" y1="288.5" x2="700.5" y2="22"/>
	<line fill="none" stroke="#E6E6E6" stroke-width="0.5" x1="712.5" y1="288.5" x2="712.5" y2="22"/>
</g>
<g id="Layer_2">
	<polyline fill="none" stroke="#CCCCCC" points="42.5,22 42.5,288.5 713.5,288.5 	"/>
	<line fill="none" stroke="#CCCCCC" x1="43" y1="22" x2="36.5" y2="22"/>
	<line fill="none" stroke="#CCCCCC" x1="42.5" y1="51.333" x2="36.5" y2="51.333"/>
	<line fill="none" stroke="#CCCCCC" x1="42.5" y1="80.499" x2="36.5" y2="80.499"/>
	<line fill="none" stroke="#CCCCCC" x1="42.5" y1="109.832" x2="36.5" y2="109.832"/>
	<line fill="none" stroke="#CCCCCC" x1="42.5" y1="138.999" x2="36.5" y2="138.999"/>
	<line fill="none" stroke="#CCCCCC" x1="42.5" y1="167.999" x2="36.5" y2="167.999"/>
	<line fill="none" stroke="#CCCCCC" x1="42.5" y1="197.333" x2="36.5" y2="197.333"/>
	<line fill="none" stroke="#CCCCCC" x1="42.5" y1="226.166" x2="36.5" y2="226.166"/>
	<line fill="none" stroke="#CCCCCC" x1="42.5" y1="255.665" x2="36.5" y2="255.665"/>
	<line fill="none" stroke="#CCCCCC" x1="88.5" y1="294.5" x2="88.5" y2="288.5"/>
	<line fill="none" stroke="#CCCCCC" x1="448.5" y1="294.5" x2="448.5" y2="288.5"/>
	<line fill="none" stroke="#CCCCCC" x1="42.5" y1="288.5" x2="36.5" y2="288.5"/>
	<text transform="matrix(1 0 0 1 21.6562 292.166)" fill="#999999" font-family="'Helvetica'" font-size="11">$0</text>
	<text transform="matrix(1 0 0 1 74.833 307.5)" fill="#999999" font-family="'Helvetica'" font-size="11">June</text>
	<text transform="matrix(1 0 0 1 437.5 307.5)" fill="#999999" font-family="'Helvetica'" font-size="11">July</text>
	<text transform="matrix(1 0 0 1 15.2642 259.3145)" fill="#999999" font-family="'Helvetica'" font-size="11">$10</text>
	<text transform="matrix(1 0 0 1 15.2642 230.1299)" fill="#999999" font-family="'Helvetica'" font-size="11">$20</text>
	<text transform="matrix(1 0 0 1 15.2642 200.9443)" fill="#999999" font-family="'Helvetica'" font-size="11">$30</text>
	<text transform="matrix(1 0 0 1 15.2642 171.7598)" fill="#999999" font-family="'Helvetica'" font-size="11">$40</text>
	<text transform="matrix(1 0 0 1 15.2642 142.5742)" fill="#999999" font-family="'Helvetica'" font-size="11">$50</text>
	<text transform="matrix(1 0 0 1 15.2642 113.3896)" fill="#999999" font-family="'Helvetica'" font-size="11">$60</text>
	<text transform="matrix(1 0 0 1 15.2642 84.2051)" fill="#999999" font-family="'Helvetica'" font-size="11">$70</text>
	<text transform="matrix(1 0 0 1 15.2642 55.0195)" fill="#999999" font-family="'Helvetica'" font-size="11">$80</text>
	<text transform="matrix(1 0 0 1 15.2642 25.834)" fill="#999999" font-family="'Helvetica'" font-size="11">$90</text>
</g>
<g id="Layer_4">
	<line fill="none" stroke="#ED454A" stroke-width="2" x1="52.5" y1="186.667" x2="52.5" y2="145"/>
	<line fill="none" stroke="#39B54A" stroke-width="2" x1="64.5" y1="167.999" x2="64.5" y2="197.333"/>
	<line fill="none" stroke="#ED454A" stroke-width="2" x1="76.5" y1="167.999" x2="76.5" y2="225.501"/>
	<line fill="none" stroke="#ED454A" stroke-width="2" x1="88.5" y1="211" x2="88.5" y2="243.746"/>
	<line fill="none" stroke="#39B54A" stroke-width="2" x1="124.5" y1="190.25" x2="124.5" y2="245.807"/>
	<line fill="none" stroke="#39B54A" stroke-width="2" x1="172.5" y1="87" x2="172.5" y2="132.5"/>
	<line fill="none" stroke="#ED454A" stroke-width="2" x1="208.5" y1="157.25" x2="208.5" y2="192.666"/>
	<line fill="none" stroke="#ED454A" stroke-width="2" x1="220.5" y1="168.959" x2="220.5" y2="208.125"/>
	<line fill="none" stroke="#39B54A" stroke-width="2" x1="244.5" y1="201.655" x2="244.5" y2="238.167"/>
	<line fill="none" stroke="#ED454A" stroke-width="2" x1="280.5" y1="136.07" x2="280.5" y2="176.256"/>
	<line fill="none" stroke="#ED454A" stroke-width="2" x1="292.5" y1="164.052" x2="292.5" y2="204.238"/>
	<line fill="none" stroke="#ED454A" stroke-width="2" x1="376.5" y1="144" x2="376.5" y2="192.001"/>
	<line fill="none" stroke="#ED454A" stroke-width="2" x1="388.5" y1="165.166" x2="388.5" y2="195.875"/>
	<line fill="none" stroke="#39B54A" stroke-width="2" x1="400.5" y1="147.167" x2="400.5" y2="184.937"/>
	<line fill="none" stroke="#39B54A" stroke-width="2" x1="304.5" y1="145.944" x2="304.5" y2="219.911"/>
	<line fill="none" stroke="#ED454A" stroke-width="2" x1="328.5" y1="130.352" x2="328.5" y2="194.875"/>
	<line fill="none" stroke="#ED454A" stroke-width="2" x1="352.5" y1="75.75" x2="352.5" y2="125"/>
	<line fill="none" stroke="#39B54A" stroke-width="2" x1="340.5" y1="105.778" x2="340.5" y2="185.096"/>
	<line fill="none" stroke="#ED454A" stroke-width="2" x1="364.5" y1="93.75" x2="364.5" y2="184.145"/>
	<line fill="none" stroke="#39B54A" stroke-width="2" x1="316.5" y1="137.267" x2="316.5" y2="199.986"/>
	<line fill="none" stroke="#ED454A" stroke-width="2" x1="256.5" y1="201.655" x2="256.5" y2="257.5"/>
	<line fill="none" stroke="#ED454A" stroke-width="2" x1="268.5" y1="222.75" x2="268.5" y2="284.167"/>
	<line fill="none" stroke="#ED454A" stroke-width="2" x1="232.5" y1="188.542" x2="232.5" y2="224.167"/>
	<line fill="none" stroke="#39B54A" stroke-width="2" x1="184.5" y1="70.066" x2="184.5" y2="109.75"/>
	<line fill="none" stroke="#ED454A" stroke-width="2" x1="196.5" y1="84.205" x2="196.5" y2="176.499"/>
	<line fill="none" stroke="#39B54A" stroke-width="2" x1="148.5" y1="137.592" x2="148.5" y2="255.749"/>
	<line fill="none" stroke="#39B54A" stroke-width="2" x1="160.5" y1="119.671" x2="160.5" y2="196.671"/>
	<line fill="none" stroke="#39B54A" stroke-width="2" x1="112.5" y1="241.5" x2="112.5" y2="268"/>
	<line fill="none" stroke="#ED454A" stroke-width="2" x1="136.5" y1="214.88" x2="136.5" y2="245.807"/>
	<line fill="none" stroke="#ED454A" stroke-width="2" x1="100.5" y1="224.812" x2="100.5" y2="272.123"/>
	<line fill="none" stroke="#ED454A" stroke-width="2" x1="412.5" y1="166.052" x2="412.5" y2="205.667"/>
	<line fill="none" stroke="#39B54A" stroke-width="2" x1="424.5" y1="182.563" x2="424.5" y2="205.667"/>
	<line fill="none" stroke="#ED454A" stroke-width="2" x1="436.5" y1="203.167" x2="436.5" y2="166.052"/>
	<line fill="none" stroke="#39B54A" stroke-width="2" x1="448.5" y1="180.521" x2="448.5" y2="205.667"/>
	<line fill="none" stroke="#ED454A" stroke-width="2" x1="460.5" y1="158.027" x2="460.5" y2="223.5"/>
	<line fill="none" stroke="#ED454A" stroke-width="2" x1="472.5" y1="203.167" x2="472.5" y2="163.75"/>
	<line fill="none" stroke="#ED454A" stroke-width="2" x1="484.5" y1="238.833" x2="484.5" y2="176.132"/>
	<line fill="none" stroke="#ED454A" stroke-width="2" x1="496.5" y1="264.5" x2="496.5" y2="220.5"/>
	<line fill="none" stroke="#ED454A" stroke-width="2" x1="508.5" y1="254.833" x2="508.5" y2="286.833"/>
	<line fill="none" stroke="#39B54A" stroke-width="2" x1="520.5" y1="284.963" x2="520.5" y2="220.5"/>
	<line fill="none" stroke="#ED454A" stroke-width="2" x1="532.5" y1="246.166" x2="532.5" y2="220.5"/>
	<line fill="none" stroke="#ED454A" stroke-width="2" x1="544.5" y1="275.265" x2="544.5" y2="235.166"/>
	<line fill="none" stroke="#ED454A" stroke-width="2" x1="556.5" y1="281.963" x2="556.5" y2="250.117"/>
	<line fill="none" stroke="#39B54A" stroke-width="2" x1="568.5" y1="238.833" x2="568.5" y2="194.115"/>
	<line fill="none" stroke="#39B54A" stroke-width="2" x1="580.5" y1="193.094" x2="580.5" y2="231.499"/>
	<line fill="none" stroke="#ED454A" stroke-width="2" x1="592.5" y1="230.13" x2="592.5" y2="176.132"/>
	<line fill="none" stroke="#39B54A" stroke-width="2" x1="604.5" y1="194.875" x2="604.5" y2="231.499"/>
	<line fill="none" stroke="#39B54A" stroke-width="2" x1="616.5" y1="205.667" x2="616.5" y2="151.833"/>
	<line fill="none" stroke="#39B54A" stroke-width="2" x1="628.5" y1="156.25" x2="628.5" y2="114.39"/>
	<line fill="none" stroke="#ED454A" stroke-width="2" x1="640.5" y1="120.166" x2="640.5" y2="155.25"/>
	<line fill="none" stroke="#ED454A" stroke-width="2" x1="652.5" y1="131.253" x2="652.5" y2="199.576"/>
	<line fill="none" stroke="#39B54A" stroke-width="2" x1="664.5" y1="153.493" x2="664.5" y2="88.498"/>
	<line fill="none" stroke="#39B54A" stroke-width="2" x1="676.5" y1="64.165" x2="676.5" y2="128.043"/>
	<line fill="none" stroke="#39B54A" stroke-width="2" x1="688.5" y1="48.832" x2="688.5" y2="92.165"/>
	<line fill="none" stroke="#39B54A" stroke-width="2" x1="700.5" y1="32.832" x2="700.5" y2="73.832"/>
	<line fill="none" stroke="#ED454A" stroke-width="2" x1="712.5" y1="55.02" x2="712.5" y2="108.498"/>
</g>
<g id="Layer_5">
	<line fill="none" stroke="#ED454A" stroke-width="2" x1="52.5" y1="154.083" x2="47.75" y2="154.083"/>
	<line fill="none" stroke="#ED454A" stroke-width="2" x1="57.25" y1="181.666" x2="52.5" y2="181.666"/>
	<line fill="none" stroke="#39B54A" stroke-width="2" x1="64.5" y1="181.666" x2="59.75" y2="181.666"/>
	<line fill="none" stroke="#39B54A" stroke-width="2" x1="69.25" y1="171.333" x2="64.5" y2="171.333"/>
	<line fill="none" stroke="#ED454A" stroke-width="2" x1="76.583" y1="175.417" x2="71.833" y2="175.417"/>
	<line fill="none" stroke="#ED454A" stroke-width="2" x1="81.25" y1="224.499" x2="76.5" y2="224.499"/>
	<line fill="none" stroke="#ED454A" stroke-width="2" x1="88.5" y1="225.499" x2="83.75" y2="225.499"/>
	<line fill="none" stroke="#ED454A" stroke-width="2" x1="93.25" y1="229.434" x2="88.5" y2="229.434"/>
	<line fill="none" stroke="#ED454A" stroke-width="2" x1="100.5" y1="228.166" x2="95.75" y2="228.166"/>
	<line fill="none" stroke="#39B54A" stroke-width="2" x1="112.5" y1="262.083" x2="107.75" y2="262.083"/>
	<line fill="none" stroke="#39B54A" stroke-width="2" x1="117.25" y1="249.333" x2="112.5" y2="249.333"/>
	<line fill="none" stroke="#39B54A" stroke-width="2" x1="124.835" y1="233.329" x2="120.085" y2="233.329"/>
	<line fill="none" stroke="#ED454A" stroke-width="2" x1="136.5" y1="218.411" x2="131.75" y2="218.411"/>
	<line fill="none" stroke="#ED454A" stroke-width="2" x1="141.25" y1="230.911" x2="136.5" y2="230.911"/>
	<line fill="none" stroke="#39B54A" stroke-width="2" x1="148.5" y1="235.411" x2="143.75" y2="235.411"/>
	<line fill="none" stroke="#39B54A" stroke-width="2" x1="129.25" y1="225.499" x2="124.5" y2="225.499"/>
	<line fill="none" stroke="#ED454A" stroke-width="2" x1="105.25" y1="265.583" x2="100.5" y2="265.583"/>
	<line fill="none" stroke="#39B54A" stroke-width="2" x1="153.25" y1="165.498" x2="148.5" y2="165.498"/>
	<line fill="none" stroke="#39B54A" stroke-width="2" x1="160.5" y1="170.748" x2="155.75" y2="170.748"/>
	<line fill="none" stroke="#39B54A" stroke-width="2" x1="165.25" y1="125.748" x2="160.5" y2="125.748"/>
	<line fill="none" stroke="#39B54A" stroke-width="2" x1="172.5" y1="112.414" x2="167.75" y2="112.414"/>
	<line fill="none" stroke="#39B54A" stroke-width="2" x1="177.25" y1="99.247" x2="172.5" y2="99.247"/>
	<line fill="none" stroke="#39B54A" stroke-width="2" x1="184.5" y1="95.413" x2="179.75" y2="95.413"/>
	<line fill="none" stroke="#ED454A" stroke-width="2" x1="196.5" y1="91.33" x2="191.75" y2="91.33"/>
	<line fill="none" stroke="#39B54A" stroke-width="2" x1="189.25" y1="93.747" x2="184.5" y2="93.747"/>
	<line fill="none" stroke="#ED454A" stroke-width="2" x1="201.25" y1="169.413" x2="196.5" y2="169.413"/>
	<line fill="none" stroke="#ED454A" stroke-width="2" x1="208.5" y1="169.83" x2="203.75" y2="169.83"/>
	<line fill="none" stroke="#ED454A" stroke-width="2" x1="213.25" y1="170.748" x2="208.5" y2="170.748"/>
	<line fill="none" stroke="#ED454A" stroke-width="2" x1="221" y1="174.958" x2="216.25" y2="174.958"/>
	<line fill="none" stroke="#ED454A" stroke-width="2" x1="225.25" y1="195.33" x2="220.5" y2="195.33"/>
	<line fill="none" stroke="#ED454A" stroke-width="2" x1="232.5" y1="194.162" x2="227.75" y2="194.162"/>
	<line fill="none" stroke="#ED454A" stroke-width="2" x1="237.25" y1="221.826" x2="232.5" y2="221.826"/>
	<line fill="none" stroke="#39B54A" stroke-width="2" x1="244.5" y1="226.493" x2="239.75" y2="226.493"/>
	<line fill="none" stroke="#39B54A" stroke-width="2" x1="249.25" y1="209.077" x2="244.5" y2="209.077"/>
	<line fill="none" stroke="#ED454A" stroke-width="2" x1="256.5" y1="209.077" x2="251.75" y2="209.077"/>
	<line fill="none" stroke="#ED454A" stroke-width="2" x1="261.25" y1="224.167" x2="256.5" y2="224.167"/>
	<line fill="none" stroke="#ED454A" stroke-width="2" x1="268.5" y1="233.327" x2="263.75" y2="233.327"/>
	<line fill="none" stroke="#ED454A" stroke-width="2" x1="273.25" y1="261.909" x2="268.5" y2="261.909"/>
	<line fill="none" stroke="#ED454A" stroke-width="2" x1="280.5" y1="149.743" x2="275.75" y2="149.743"/>
	<line fill="none" stroke="#ED454A" stroke-width="2" x1="285.25" y1="169.909" x2="280.5" y2="169.909"/>
	<line fill="none" stroke="#ED454A" stroke-width="2" x1="292.5" y1="169.159" x2="287.75" y2="169.159"/>
	<line fill="none" stroke="#ED454A" stroke-width="2" x1="297.25" y1="192.083" x2="292.5" y2="192.083"/>
	<line fill="none" stroke="#39B54A" stroke-width="2" x1="304.5" y1="192.083" x2="299.75" y2="192.083"/>
	<line fill="none" stroke="#39B54A" stroke-width="2" x1="309.25" y1="191.083" x2="304.5" y2="191.083"/>
	<line fill="none" stroke="#39B54A" stroke-width="2" x1="316.5" y1="187.418" x2="311.75" y2="187.418"/>
	<line fill="none" stroke="#39B54A" stroke-width="2" x1="321.25" y1="143.417" x2="316.5" y2="143.417"/>
	<line fill="none" stroke="#ED454A" stroke-width="2" x1="328.5" y1="145.944" x2="323.75" y2="145.944"/>
	<line fill="none" stroke="#ED454A" stroke-width="2" x1="333.25" y1="151.667" x2="328.5" y2="151.667"/>
	<line fill="none" stroke="#39B54A" stroke-width="2" x1="340.5" y1="114.25" x2="335.75" y2="114.25"/>
	<line fill="none" stroke="#39B54A" stroke-width="2" x1="345.25" y1="157.5" x2="340.5" y2="157.5"/>
	<line fill="none" stroke="#ED454A" stroke-width="2" x1="352.5" y1="106.75" x2="347.75" y2="106.75"/>
	<line fill="none" stroke="#ED454A" stroke-width="2" x1="357.25" y1="115.25" x2="352.5" y2="115.25"/>
	<line fill="none" stroke="#ED454A" stroke-width="2" x1="364.5" y1="112.083" x2="359.75" y2="112.083"/>
	<line fill="none" stroke="#ED454A" stroke-width="2" x1="369.75" y1="179.916" x2="365" y2="179.916"/>
	<line fill="none" stroke="#ED454A" stroke-width="2" x1="376.5" y1="168.999" x2="371.75" y2="168.999"/>
	<line fill="none" stroke="#ED454A" stroke-width="2" x1="381.25" y1="168.999" x2="376.5" y2="168.999"/>
	<line fill="none" stroke="#ED454A" stroke-width="2" x1="388.5" y1="170.416" x2="383.75" y2="170.416"/>
	<line fill="none" stroke="#ED454A" stroke-width="2" x1="393.25" y1="176.132" x2="388.5" y2="176.132"/>
	<line fill="none" stroke="#39B54A" stroke-width="2" x1="400.5" y1="177.75" x2="395.75" y2="177.75"/>
	<line fill="none" stroke="#39B54A" stroke-width="2" x1="405.25" y1="175.041" x2="400.5" y2="175.041"/>
	<line fill="none" stroke="#ED454A" stroke-width="2" x1="412.5" y1="169.458" x2="407.75" y2="169.458"/>
	<line fill="none" stroke="#ED454A" stroke-width="2" x1="417.25" y1="193.5" x2="412.5" y2="193.5"/>
	<line fill="none" stroke="#39B54A" stroke-width="2" x1="424.5" y1="190.416" x2="419.75" y2="190.416"/>
	<line fill="none" stroke="#39B54A" stroke-width="2" x1="429.115" y1="185.385" x2="424.365" y2="185.385"/>
	<line fill="none" stroke="#ED454A" stroke-width="2" x1="436.5" y1="184.937" x2="431.75" y2="184.937"/>
	<line fill="none" stroke="#ED454A" stroke-width="2" x1="441.25" y1="192.415" x2="436.5" y2="192.415"/>
	<line fill="none" stroke="#39B54A" stroke-width="2" x1="448.5" y1="191.688" x2="443.75" y2="191.688"/>
	<line fill="none" stroke="#39B54A" stroke-width="2" x1="453.25" y1="183.459" x2="448.5" y2="183.459"/>
	<line fill="none" stroke="#ED454A" stroke-width="2" x1="460.5" y1="187.489" x2="455.75" y2="187.489"/>
	<line fill="none" stroke="#ED454A" stroke-width="2" x1="465.25" y1="193.812" x2="460.5" y2="193.812"/>
	<line fill="none" stroke="#ED454A" stroke-width="2" x1="472.5" y1="196.75" x2="467.75" y2="196.75"/>
	<line fill="none" stroke="#ED454A" stroke-width="2" x1="477.25" y1="198.875" x2="472.5" y2="198.875"/>
	<line fill="none" stroke="#ED454A" stroke-width="2" x1="484.5" y1="202.25" x2="479.75" y2="202.25"/>
	<line fill="none" stroke="#ED454A" stroke-width="2" x1="489.25" y1="226.062" x2="484.5" y2="226.062"/>
	<line fill="none" stroke="#ED454A" stroke-width="2" x1="496.5" y1="228.5" x2="491.75" y2="228.5"/>
	<line fill="none" stroke="#ED454A" stroke-width="2" x1="501.25" y1="258.312" x2="496.5" y2="258.312"/>
	<line fill="none" stroke="#ED454A" stroke-width="2" x1="508.5" y1="258.312" x2="503.75" y2="258.312"/>
	<line fill="none" stroke="#ED454A" stroke-width="2" x1="513.25" y1="281" x2="508.5" y2="281"/>
	<line fill="none" stroke="#39B54A" stroke-width="2" x1="520.5" y1="274.375" x2="515.75" y2="274.375"/>
	<line fill="none" stroke="#39B54A" stroke-width="2" x1="525.25" y1="225.875" x2="520.5" y2="225.875"/>
	<line fill="none" stroke="#ED454A" stroke-width="2" x1="532.5" y1="227.75" x2="527.75" y2="227.75"/>
	<line fill="none" stroke="#ED454A" stroke-width="2" x1="537.25" y1="237.875" x2="532.5" y2="237.875"/>
	<line fill="none" stroke="#ED454A" stroke-width="2" x1="544.5" y1="244.125" x2="539.75" y2="244.125"/>
	<line fill="none" stroke="#ED454A" stroke-width="2" x1="549.25" y1="270.5" x2="544.5" y2="270.5"/>
	<line fill="none" stroke="#ED454A" stroke-width="2" x1="556.5" y1="270.5" x2="551.75" y2="270.5"/>
	<line fill="none" stroke="#ED454A" stroke-width="2" x1="561.25" y1="277" x2="556.5" y2="277"/>
	<line fill="none" stroke="#39B54A" stroke-width="2" x1="568.5" y1="231.875" x2="563.75" y2="231.875"/>
	<line fill="none" stroke="#39B54A" stroke-width="2" x1="573.25" y1="200.944" x2="568.5" y2="200.944"/>
	<line fill="none" stroke="#39B54A" stroke-width="2" x1="580.5" y1="202.125" x2="575.75" y2="202.125"/>
	<line fill="none" stroke="#39B54A" stroke-width="2" x1="585.25" y1="197.062" x2="580.5" y2="197.062"/>
	<line fill="none" stroke="#ED454A" stroke-width="2" x1="592.5" y1="200.944" x2="587.75" y2="200.944"/>
	<line fill="none" stroke="#ED454A" stroke-width="2" x1="597.25" y1="225.875" x2="592.5" y2="225.875"/>
	<line fill="none" stroke="#39B54A" stroke-width="2" x1="604.5" y1="223.5" x2="599.75" y2="223.5"/>
	<line fill="none" stroke="#39B54A" stroke-width="2" x1="609.25" y1="198.938" x2="604.5" y2="198.938"/>
	<line fill="none" stroke="#39B54A" stroke-width="2" x1="616.5" y1="198.938" x2="611.75" y2="198.938"/>
	<line fill="none" stroke="#39B54A" stroke-width="2" x1="621.25" y1="161.188" x2="616.5" y2="161.188"/>
	<line fill="none" stroke="#39B54A" stroke-width="2" x1="628.5" y1="152.625" x2="623.75" y2="152.625"/>
	<line fill="none" stroke="#39B54A" stroke-width="2" x1="633.25" y1="122.625" x2="628.5" y2="122.625"/>
	<line fill="none" stroke="#ED454A" stroke-width="2" x1="640.5" y1="125.75" x2="635.75" y2="125.75"/>
	<line fill="none" stroke="#ED454A" stroke-width="2" x1="645.25" y1="130.375" x2="640.5" y2="130.375"/>
	<line fill="none" stroke="#ED454A" stroke-width="2" x1="652.5" y1="136.25" x2="647.75" y2="136.25"/>
	<line fill="none" stroke="#ED454A" stroke-width="2" x1="657.25" y1="194.688" x2="652.5" y2="194.688"/>
	<line fill="none" stroke="#39B54A" stroke-width="2" x1="664.5" y1="152.562" x2="659.75" y2="152.562"/>
	<line fill="none" stroke="#39B54A" stroke-width="2" x1="669.25" y1="97.5" x2="664.5" y2="97.5"/>
	<line fill="none" stroke="#39B54A" stroke-width="2" x1="676.5" y1="101.688" x2="671.75" y2="101.688"/>
	<line fill="none" stroke="#39B54A" stroke-width="2" x1="681.25" y1="72.125" x2="676.5" y2="72.125"/>
	<line fill="none" stroke="#39B54A" stroke-width="2" x1="688.5" y1="69.812" x2="683.75" y2="69.812"/>
	<line fill="none" stroke="#39B54A" stroke-width="2" x1="693.25" y1="61.812" x2="688.5" y2="61.812"/>
	<line fill="none" stroke="#39B54A" stroke-width="2" x1="700.5" y1="70.125" x2="695.75" y2="70.125"/>
	<line fill="none" stroke="#39B54A" stroke-width="2" x1="705.25" y1="40.062" x2="700.5" y2="40.062"/>
	<line fill="none" stroke="#ED454A" stroke-width="2" x1="712.5" y1="63.5" x2="707.75" y2="63.5"/>
	<line fill="none" stroke="#ED454A" stroke-width="2" x1="717.25" y1="78.438" x2="712.5" y2="78.438"/>
</g>
</svg>
