<?xml version="1.0" encoding="utf-8"?>
<!-- Generator: Adobe Illustrator 20.1.0, SVG Export Plug-In . SVG Version: 6.00 Build 0)  -->
<svg version="1.1" xmlns="http://www.w3.org/2000/svg" xmlns:xlink="http://www.w3.org/1999/xlink" x="0px" y="0px"
	 viewBox="0 0 730 320" style="enable-background:new 0 0 730 320;" xml:space="preserve">
<style type="text/css">
	.st0{fill:none;stroke:#CCCCCC;stroke-width:0.75;}
	.st1{fill:#666666;}
	.st2{font-family:'Helvetica';}
	.st3{font-size:9.802px;}
	.st4{fill:none;stroke:#8CC63F;stroke-width:3;stroke-linecap:round;}
	.st5{fill:none;stroke:#F14D24;stroke-width:3;stroke-linecap:round;}
	.st6{fill:#FFFFFF;stroke:#F14D24;stroke-width:3;stroke-linecap:round;}
</style>
<g id="Layer_1">
	<line class="st0" x1="20.5" y1="20.4" x2="710.5" y2="20.4"/>
	<line class="st0" x1="20.5" y1="285.6" x2="710.5" y2="285.6"/>
	<line class="st0" x1="20.5" y1="263.5" x2="710.5" y2="263.5"/>
	<line class="st0" x1="20.5" y1="241.4" x2="710.5" y2="241.4"/>
	<line class="st0" x1="20.5" y1="219.3" x2="710.5" y2="219.3"/>
	<line class="st0" x1="20.5" y1="197.2" x2="710.5" y2="197.2"/>
	<line class="st0" x1="20.5" y1="175.1" x2="710.5" y2="175.1"/>
	<line class="st0" x1="20.5" y1="153" x2="710.5" y2="153"/>
	<line class="st0" x1="20.5" y1="130.9" x2="710.5" y2="130.9"/>
	<line class="st0" x1="20.5" y1="108.8" x2="710.5" y2="108.8"/>
	<line class="st0" x1="20.5" y1="86.7" x2="710.5" y2="86.7"/>
	<line class="st0" x1="20.5" y1="64.6" x2="710.5" y2="64.6"/>
	<line class="st0" x1="20.5" y1="42.5" x2="710.5" y2="42.5"/>
	<line class="st0" x1="681.8" y1="20.4" x2="681.8" y2="285.4"/>
	<line class="st0" x1="660" y1="20.4" x2="660" y2="285.4"/>
	<line class="st0" x1="638.1" y1="20.4" x2="638.1" y2="285.4"/>
	<line class="st0" x1="616.3" y1="20.4" x2="616.3" y2="285.4"/>
	<line class="st0" x1="594.4" y1="20.4" x2="594.4" y2="285.4"/>
	<line class="st0" x1="572.6" y1="20.4" x2="572.6" y2="285.4"/>
	<line class="st0" x1="550.7" y1="20.4" x2="550.7" y2="285.4"/>
	<line class="st0" x1="528.9" y1="20.4" x2="528.9" y2="285.4"/>
	<line class="st0" x1="507" y1="20.4" x2="507" y2="285.4"/>
	<line class="st0" x1="485.2" y1="20.4" x2="485.2" y2="285.4"/>
	<line class="st0" x1="463.3" y1="20.4" x2="463.3" y2="285.4"/>
	<line class="st0" x1="441.5" y1="20.4" x2="441.5" y2="285.4"/>
	<line class="st0" x1="419.6" y1="20.4" x2="419.6" y2="285.4"/>
	<line class="st0" x1="397.8" y1="20.4" x2="397.8" y2="285.4"/>
	<line class="st0" x1="375.9" y1="20.4" x2="375.9" y2="285.4"/>
	<line class="st0" x1="354.1" y1="20.4" x2="354.1" y2="285.4"/>
	<line class="st0" x1="332.2" y1="20.4" x2="332.2" y2="285.4"/>
	<line class="st0" x1="310.4" y1="20.4" x2="310.4" y2="285.4"/>
	<line class="st0" x1="288.5" y1="20.4" x2="288.5" y2="285.4"/>
	<line class="st0" x1="266.7" y1="20.4" x2="266.7" y2="285.4"/>
	<line class="st0" x1="244.8" y1="20.4" x2="244.8" y2="285.4"/>
	<line class="st0" x1="223" y1="20.4" x2="223" y2="285.4"/>
	<line class="st0" x1="201.1" y1="20.4" x2="201.1" y2="285.4"/>
	<line class="st0" x1="179.3" y1="20.4" x2="179.3" y2="285.4"/>
	<line class="st0" x1="157.4" y1="20.4" x2="157.4" y2="285.4"/>
	<line class="st0" x1="135.6" y1="20.4" x2="135.6" y2="285.4"/>
	<line class="st0" x1="113.8" y1="20.4" x2="113.8" y2="285.4"/>
	<line class="st0" x1="91.9" y1="20.4" x2="91.9" y2="285.4"/>
	<line class="st0" x1="70.1" y1="20.4" x2="70.1" y2="285.4"/>
	<line class="st0" x1="48.2" y1="20.4" x2="48.2" y2="285.4"/>
	<line class="st0" x1="81" y1="285.6" x2="81" y2="292.9"/>
	<line class="st0" x1="256.2" y1="285.6" x2="256.2" y2="292.9"/>
	<line class="st0" x1="409.1" y1="285.6" x2="409.1" y2="292.9"/>
	<line class="st0" x1="605.6" y1="285.6" x2="605.6" y2="292.9"/>
</g>
<g id="Layer_2">
	<text transform="matrix(1 0 0 1 19.1665 279.1816)" class="st1 st2 st3">22.00</text>
	<text transform="matrix(1 0 0 1 74.7109 303.6865)" class="st1 st2 st3">03</text>
	<text transform="matrix(1 0 0 1 250.792 303.6865)" class="st1 st2 st3">07</text>
	<text transform="matrix(1 0 0 1 403.4609 303.6865)" class="st1 st2 st3">13</text>
	<text transform="matrix(1 0 0 1 599.8271 303.6865)" class="st1 st2 st3">24</text>
	<text transform="matrix(1 0 0 1 19.1665 256.1465)" class="st1 st2 st3">24.00</text>
	<text transform="matrix(1 0 0 1 19.1665 234.582)" class="st1 st2 st3">26.00</text>
	<text transform="matrix(1 0 0 1 19.1665 212.5283)" class="st1 st2 st3">28.00</text>
	<text transform="matrix(1 0 0 1 19.1665 190.9639)" class="st1 st2 st3">30.00</text>
	<text transform="matrix(1 0 0 1 19.1665 167.9287)" class="st1 st2 st3">32.00</text>
	<text transform="matrix(1 0 0 1 19.1665 146.3643)" class="st1 st2 st3">34.00</text>
	<text transform="matrix(1 0 0 1 19.1665 124.1465)" class="st1 st2 st3">36.00</text>
	<text transform="matrix(1 0 0 1 19.1665 101.9287)" class="st1 st2 st3">38.00</text>
	<text transform="matrix(1 0 0 1 19.1665 79.7109)" class="st1 st2 st3">40.00</text>
	<text transform="matrix(1 0 0 1 19.1665 58.1465)" class="st1 st2 st3">42.00</text>
	<text transform="matrix(1 0 0 1 19.1665 35.2754)" class="st1 st2 st3">44.00</text>
	<text transform="matrix(1 0 0 1 687.6621 279.1816)" class="st1 st2 st3">22.00</text>
	<text transform="matrix(1 0 0 1 687.6621 256.1465)" class="st1 st2 st3">24.00</text>
	<text transform="matrix(1 0 0 1 687.6621 234.582)" class="st1 st2 st3">26.00</text>
	<text transform="matrix(1 0 0 1 687.6621 212.5283)" class="st1 st2 st3">28.00</text>
	<text transform="matrix(1 0 0 1 687.6621 190.9639)" class="st1 st2 st3">30.00</text>
	<text transform="matrix(1 0 0 1 687.6621 167.9287)" class="st1 st2 st3">32.00</text>
	<text transform="matrix(1 0 0 1 687.6621 146.3643)" class="st1 st2 st3">34.00</text>
	<text transform="matrix(1 0 0 1 687.6621 124.1465)" class="st1 st2 st3">36.00</text>
	<text transform="matrix(1 0 0 1 687.6621 101.9287)" class="st1 st2 st3">38.00</text>
	<text transform="matrix(1 0 0 1 687.6621 79.7109)" class="st1 st2 st3">40.00</text>
	<text transform="matrix(1 0 0 1 687.6621 58.1465)" class="st1 st2 st3">42.00</text>
	<text transform="matrix(1 0 0 1 687.6621 35.2754)" class="st1 st2 st3">44.00</text>
</g>
<g id="Layer_3">
	<g>
		<line class="st4" x1="75.7" y1="170" x2="86.2" y2="158.7"/>
		<line class="st4" x1="75.8" y1="158.7" x2="86.2" y2="170"/>
	</g>
	<g>
		<line class="st4" x1="119.8" y1="236.6" x2="130.3" y2="225.4"/>
		<line class="st4" x1="119.9" y1="225.4" x2="130.3" y2="236.6"/>
	</g>
	<g>
		<line class="st4" x1="119.8" y1="214.6" x2="130.3" y2="203.3"/>
		<line class="st4" x1="119.9" y1="203.3" x2="130.3" y2="214.6"/>
	</g>
	<g>
		<line class="st4" x1="119.8" y1="192" x2="130.3" y2="180.8"/>
		<line class="st4" x1="119.9" y1="180.8" x2="130.3" y2="192"/>
	</g>
	<g>
		<line class="st4" x1="119.8" y1="170.5" x2="130.3" y2="159.2"/>
		<line class="st4" x1="119.9" y1="159.2" x2="130.3" y2="170.5"/>
	</g>
	<g>
		<line class="st4" x1="293.8" y1="192" x2="304.3" y2="180.8"/>
		<line class="st4" x1="293.9" y1="180.8" x2="304.3" y2="192"/>
	</g>
	<g>
		<line class="st4" x1="293.8" y1="169.5" x2="304.3" y2="158.2"/>
		<line class="st4" x1="293.9" y1="158.2" x2="304.3" y2="169.5"/>
	</g>
	<g>
		<line class="st4" x1="293.8" y1="147.9" x2="304.3" y2="136.6"/>
		<line class="st4" x1="293.9" y1="136.6" x2="304.3" y2="147.9"/>
	</g>
	<g>
		<line class="st4" x1="337.9" y1="214.1" x2="348.4" y2="202.8"/>
		<line class="st4" x1="338" y1="202.8" x2="348.4" y2="214.1"/>
	</g>
	<g>
		<line class="st4" x1="337.9" y1="191.5" x2="348.4" y2="180.3"/>
		<line class="st4" x1="338" y1="180.3" x2="348.4" y2="191.5"/>
	</g>
	<g>
		<line class="st4" x1="337.9" y1="170" x2="348.4" y2="158.7"/>
		<line class="st4" x1="338" y1="158.7" x2="348.4" y2="170"/>
	</g>
	<g>
		<line class="st4" x1="382.4" y1="237" x2="392.8" y2="225.7"/>
		<line class="st4" x1="382.4" y1="225.7" x2="392.9" y2="237"/>
	</g>
	<g>
		<line class="st4" x1="382.4" y1="214.4" x2="392.8" y2="203.1"/>
		<line class="st4" x1="382.4" y1="203.1" x2="392.9" y2="214.4"/>
	</g>
	<g>
		<line class="st4" x1="425.2" y1="258.8" x2="435.6" y2="247.6"/>
		<line class="st4" x1="425.2" y1="247.6" x2="435.7" y2="258.8"/>
	</g>
	<g>
		<line class="st4" x1="425.2" y1="236.3" x2="435.6" y2="225"/>
		<line class="st4" x1="425.2" y1="225" x2="435.7" y2="236.3"/>
	</g>
	<g>
		<line class="st4" x1="469.3" y1="258.8" x2="479.7" y2="247.6"/>
		<line class="st4" x1="469.3" y1="247.6" x2="479.8" y2="258.8"/>
	</g>
	<g>
		<line class="st4" x1="469.3" y1="236.3" x2="479.7" y2="225"/>
		<line class="st4" x1="469.3" y1="225" x2="479.8" y2="236.3"/>
	</g>
	<g>
		<line class="st4" x1="469.3" y1="214.7" x2="479.7" y2="203.5"/>
		<line class="st4" x1="469.3" y1="203.5" x2="479.8" y2="214.7"/>
	</g>
	<g>
		<line class="st4" x1="512.7" y1="236.2" x2="523.2" y2="224.9"/>
		<line class="st4" x1="512.8" y1="224.9" x2="523.2" y2="236.2"/>
	</g>
	<g>
		<line class="st4" x1="512.7" y1="213.7" x2="523.2" y2="202.4"/>
		<line class="st4" x1="512.8" y1="202.4" x2="523.2" y2="213.7"/>
	</g>
	<g>
		<line class="st4" x1="512.7" y1="192.1" x2="523.2" y2="180.8"/>
		<line class="st4" x1="512.8" y1="180.8" x2="523.2" y2="192.1"/>
	</g>
	<g>
		<line class="st4" x1="512.7" y1="170.3" x2="523.2" y2="159"/>
		<line class="st4" x1="512.8" y1="159" x2="523.2" y2="170.3"/>
	</g>
	<g>
		<line class="st4" x1="512.7" y1="148" x2="523.2" y2="136.7"/>
		<line class="st4" x1="512.8" y1="136.7" x2="523.2" y2="148"/>
	</g>
	<g>
		<line class="st4" x1="557.3" y1="191.1" x2="567.8" y2="179.9"/>
		<line class="st4" x1="557.4" y1="179.9" x2="567.8" y2="191.1"/>
	</g>
	<g>
		<line class="st4" x1="557.3" y1="168.6" x2="567.8" y2="157.3"/>
		<line class="st4" x1="557.4" y1="157.3" x2="567.8" y2="168.6"/>
	</g>
	<g>
		<line class="st4" x1="557.3" y1="147" x2="567.8" y2="135.7"/>
		<line class="st4" x1="557.4" y1="135.7" x2="567.8" y2="147"/>
	</g>
	<g>
		<line class="st4" x1="557.3" y1="125.2" x2="567.8" y2="113.9"/>
		<line class="st4" x1="557.4" y1="113.9" x2="567.8" y2="125.2"/>
	</g>
	<g>
		<line class="st4" x1="600.3" y1="191.6" x2="610.8" y2="180.3"/>
		<line class="st4" x1="600.3" y1="180.3" x2="610.8" y2="191.6"/>
	</g>
	<g>
		<line class="st4" x1="600.3" y1="169.1" x2="610.8" y2="157.8"/>
		<line class="st4" x1="600.3" y1="157.8" x2="610.8" y2="169.1"/>
	</g>
	<g>
		<line class="st4" x1="600.3" y1="147.5" x2="610.8" y2="136.2"/>
		<line class="st4" x1="600.3" y1="136.2" x2="610.8" y2="147.5"/>
	</g>
	<g>
		<line class="st4" x1="600.3" y1="125.7" x2="610.8" y2="114.4"/>
		<line class="st4" x1="600.3" y1="114.4" x2="610.8" y2="125.7"/>
	</g>
	<g>
		<line class="st4" x1="600.3" y1="104" x2="610.8" y2="92.7"/>
		<line class="st4" x1="600.3" y1="92.7" x2="610.8" y2="104"/>
	</g>
	<g>
		<line class="st4" x1="600.3" y1="81.6" x2="610.8" y2="70.3"/>
		<line class="st4" x1="600.3" y1="70.3" x2="610.8" y2="81.6"/>
	</g>
	<g>
		<line class="st4" x1="644.1" y1="125" x2="654.5" y2="113.7"/>
		<line class="st4" x1="644.1" y1="113.7" x2="654.6" y2="125"/>
	</g>
	<g>
		<line class="st4" x1="644.1" y1="103.4" x2="654.5" y2="92.1"/>
		<line class="st4" x1="644.1" y1="92.1" x2="654.6" y2="103.4"/>
	</g>
	<g>
		<line class="st4" x1="644.1" y1="81.6" x2="654.5" y2="70.3"/>
		<line class="st4" x1="644.1" y1="70.3" x2="654.6" y2="81.6"/>
	</g>
	<g>
		<line class="st4" x1="644.1" y1="59.9" x2="654.5" y2="48.6"/>
		<line class="st4" x1="644.1" y1="48.6" x2="654.6" y2="59.9"/>
	</g>
	<g>
		<line class="st4" x1="644.1" y1="37.5" x2="654.5" y2="26.2"/>
		<line class="st4" x1="644.1" y1="26.2" x2="654.6" y2="37.5"/>
	</g>
	<g>
		<line class="st4" x1="382.4" y1="192.8" x2="392.8" y2="181.6"/>
		<line class="st4" x1="382.4" y1="181.6" x2="392.9" y2="192.8"/>
	</g>
	<g>
		<line class="st4" x1="382.4" y1="170" x2="392.8" y2="158.7"/>
		<line class="st4" x1="382.4" y1="158.7" x2="392.9" y2="170"/>
	</g>
	<g>
		<line class="st4" x1="293.8" y1="126.4" x2="304.3" y2="115.1"/>
		<line class="st4" x1="293.9" y1="115.1" x2="304.3" y2="126.4"/>
	</g>
	<g>
		<line class="st4" x1="163.2" y1="213.8" x2="173.7" y2="202.6"/>
		<line class="st4" x1="163.2" y1="202.6" x2="173.7" y2="213.8"/>
	</g>
	<g>
		<line class="st4" x1="163.2" y1="191.8" x2="173.7" y2="180.5"/>
		<line class="st4" x1="163.2" y1="180.5" x2="173.7" y2="191.8"/>
	</g>
	<g>
		<line class="st4" x1="163.2" y1="169.2" x2="173.7" y2="158"/>
		<line class="st4" x1="163.2" y1="158" x2="173.7" y2="169.2"/>
	</g>
	<g>
		<line class="st4" x1="163.2" y1="147.7" x2="173.7" y2="136.4"/>
		<line class="st4" x1="163.2" y1="136.4" x2="173.7" y2="147.7"/>
	</g>
	<g>
		<line class="st4" x1="163.2" y1="126.1" x2="173.7" y2="114.8"/>
		<line class="st4" x1="163.2" y1="114.8" x2="173.7" y2="126.1"/>
	</g>
	<g>
		<line class="st4" x1="251" y1="81.8" x2="261.4" y2="70.6"/>
		<line class="st4" x1="251" y1="70.6" x2="261.5" y2="81.8"/>
	</g>
	<g>
		<line class="st4" x1="251" y1="103.4" x2="261.4" y2="92.1"/>
		<line class="st4" x1="251" y1="92.1" x2="261.5" y2="103.4"/>
	</g>
	<g>
		<line class="st4" x1="251" y1="59.3" x2="261.4" y2="48"/>
		<line class="st4" x1="251" y1="48" x2="261.5" y2="59.3"/>
	</g>
	<g>
		<line class="st4" x1="251" y1="37" x2="261.4" y2="25.7"/>
		<line class="st4" x1="251" y1="25.7" x2="261.5" y2="37"/>
	</g>
	<g>
		<line class="st4" x1="207.1" y1="170" x2="217.5" y2="158.7"/>
		<line class="st4" x1="207.1" y1="158.7" x2="217.6" y2="170"/>
	</g>
	<g>
		<line class="st4" x1="207.1" y1="147.9" x2="217.5" y2="136.6"/>
		<line class="st4" x1="207.1" y1="136.6" x2="217.6" y2="147.9"/>
	</g>
	<g>
		<line class="st4" x1="207.1" y1="125.4" x2="217.5" y2="114.1"/>
		<line class="st4" x1="207.1" y1="114.1" x2="217.6" y2="125.4"/>
	</g>
	<g>
		<line class="st4" x1="207.1" y1="103.8" x2="217.5" y2="92.5"/>
		<line class="st4" x1="207.1" y1="92.5" x2="217.6" y2="103.8"/>
	</g>
	<g>
		<line class="st4" x1="207.1" y1="81.5" x2="217.5" y2="70.2"/>
		<line class="st4" x1="207.1" y1="70.2" x2="217.6" y2="81.5"/>
	</g>
	<g>
		<line class="st4" x1="207.1" y1="59.9" x2="217.5" y2="48.7"/>
		<line class="st4" x1="207.1" y1="48.7" x2="217.6" y2="59.9"/>
	</g>
	<g>
		<line class="st4" x1="75.7" y1="148.6" x2="86.2" y2="137.3"/>
		<line class="st4" x1="75.8" y1="137.3" x2="86.2" y2="148.6"/>
	</g>
	<g>
		<line class="st4" x1="75.7" y1="126.3" x2="86.2" y2="115"/>
		<line class="st4" x1="75.8" y1="115" x2="86.2" y2="126.3"/>
	</g>
	<g>
		<line class="st4" x1="75.7" y1="104.1" x2="86.2" y2="92.8"/>
		<line class="st4" x1="75.8" y1="92.8" x2="86.2" y2="104.1"/>
	</g>
	<circle class="st5" cx="59.2" cy="186.7" r="5.7"/>
	<circle class="st5" cx="59.2" cy="164.8" r="5.7"/>
	<circle class="st5" cx="59.2" cy="142.9" r="5.7"/>
	<circle class="st6" cx="102.8" cy="120.7" r="5.7"/>
	<circle class="st6" cx="102.8" cy="142.5" r="5.7"/>
	<circle class="st6" cx="102.8" cy="164.3" r="5.7"/>
	<circle class="st6" cx="102.8" cy="186.8" r="5.7"/>
	<circle class="st6" cx="102.8" cy="208.4" r="5.7"/>
	<circle class="st6" cx="102.8" cy="230.9" r="5.7"/>
	<circle class="st6" cx="146.6" cy="185.8" r="5.7"/>
	<circle class="st6" cx="146.6" cy="208.4" r="5.7"/>
	<circle class="st6" cx="146.6" cy="230.6" r="5.7"/>
	<circle class="st6" cx="190.4" cy="163.9" r="5.7"/>
	<circle class="st6" cx="190.4" cy="142.2" r="5.7"/>
	<circle class="st6" cx="190.4" cy="186.4" r="5.7"/>
	<circle class="st6" cx="234.1" cy="97.9" r="5.7"/>
	<circle class="st6" cx="234.1" cy="76.2" r="5.7"/>
	<circle class="st6" cx="234.1" cy="120.4" r="5.7"/>
	<circle class="st6" cx="277.5" cy="75.6" r="5.7"/>
	<circle class="st6" cx="277.5" cy="54" r="5.7"/>
	<circle class="st6" cx="277.8" cy="97.7" r="5.7"/>
	<circle class="st6" cx="277.8" cy="120" r="5.7"/>
	<circle class="st6" cx="277.8" cy="142.3" r="5.7"/>
	<circle class="st6" cx="277.8" cy="164.1" r="5.7"/>
	<circle class="st6" cx="277.8" cy="186.2" r="5.7"/>
	<circle class="st6" cx="277.8" cy="208.7" r="5.7"/>
	<circle class="st6" cx="320.9" cy="142.3" r="5.7"/>
	<circle class="st6" cx="320.9" cy="164.1" r="5.7"/>
	<circle class="st6" cx="320.9" cy="186.2" r="5.7"/>
	<circle class="st6" cx="320.9" cy="208.7" r="5.7"/>
	<circle class="st6" cx="320.9" cy="231.2" r="5.7"/>
	<circle class="st6" cx="365" cy="186.2" r="5.7"/>
	<circle class="st6" cx="365" cy="208.7" r="5.7"/>
	<circle class="st6" cx="365" cy="231.2" r="5.7"/>
	<circle class="st6" cx="365" cy="252.7" r="5.7"/>
	<circle class="st6" cx="409.1" cy="186.2" r="5.7"/>
	<circle class="st6" cx="409.1" cy="208.7" r="5.7"/>
	<circle class="st6" cx="409.1" cy="231.2" r="5.7"/>
	<circle class="st6" cx="540" cy="164.6" r="5.7"/>
	<circle class="st6" cx="540" cy="187.1" r="5.7"/>
	<circle class="st6" cx="540" cy="209.7" r="5.7"/>
	<circle class="st6" cx="583.8" cy="141.9" r="5.7"/>
	<circle class="st6" cx="583.8" cy="164.5" r="5.7"/>
	<circle class="st6" cx="583.8" cy="187" r="5.7"/>
	<circle class="st6" cx="627.6" cy="96.8" r="5.7"/>
	<circle class="st6" cx="627.6" cy="119.4" r="5.7"/>
	<circle class="st6" cx="627.6" cy="141.9" r="5.7"/>
	<circle class="st6" cx="583.8" cy="208.6" r="5.7"/>
	<circle class="st6" cx="671.3" cy="52.8" r="5.7"/>
	<circle class="st6" cx="671.3" cy="75.3" r="5.7"/>
	<circle class="st6" cx="671.3" cy="97.8" r="5.7"/>
	<circle class="st6" cx="671.3" cy="119.4" r="5.7"/>
	<circle class="st6" cx="409.1" cy="252.7" r="5.7"/>
	<circle class="st6" cx="496.4" cy="231.2" r="5.7"/>
	<circle class="st6" cx="496.4" cy="252.7" r="5.7"/>
	<circle class="st6" cx="409.1" cy="274.3" r="5.7"/>
	<circle class="st6" cx="452.6" cy="252.7" r="5.7"/>
	<circle class="st6" cx="452.6" cy="274.3" r="5.7"/>
	<circle class="st6" cx="102.8" cy="252.7" r="5.7"/>
</g>
</svg>
