<?xml version="1.0" encoding="utf-8"?>
<!-- Generator: Adobe Illustrator 16.0.0, SVG Export Plug-In . SVG Version: 6.00 Build 0)  -->
<!DOCTYPE svg PUBLIC "-//W3C//DTD SVG 1.1//EN" "http://www.w3.org/Graphics/SVG/1.1/DTD/svg11.dtd">
<svg version="1.1" xmlns="http://www.w3.org/2000/svg" xmlns:xlink="http://www.w3.org/1999/xlink" x="0px" y="0px" width="730px"
	 height="320px" viewBox="0 0 730 320" enable-background="new 0 0 730 320" xml:space="preserve">
<g id="Layer_1">
	<g>
		<g>
			<path fill="none" stroke="#CCCCCC" d="M523.034,33.708c-70.197,0-127,56.803-127,127s56.803,127,127,127s127-56.803,127-127
				S593.231,33.708,523.034,33.708z"/>
			<path fill="none" stroke="#CCCCCC" d="M628.889,160.708c0,58.539-47.377,105.792-105.854,105.792
				c-58.477,0-105.854-47.253-105.854-105.792S464.558,54.916,523.034,54.916C581.512,54.916,628.889,102.169,628.889,160.708z"/>
			<path fill="none" stroke="#CCCCCC" d="M523.034,76c-46.818,0-84.646,37.951-84.646,84.708s37.827,84.708,84.646,84.708
				c46.819,0,84.646-37.951,84.646-84.708S569.854,76,523.034,76z"/>
			<path fill="none" stroke="#CCCCCC" d="M586.534,160.708c0,35.099-28.4,63.5-63.5,63.5c-35.098,0-63.5-28.401-63.5-63.5
				s28.402-63.5,63.5-63.5C558.134,97.208,586.534,125.609,586.534,160.708z"/>
			<path fill="none" stroke="#CCCCCC" d="M523.034,118.416c-23.378,0-42.354,18.852-42.354,42.292S499.656,203,523.034,203
				c23.379,0,42.354-18.852,42.354-42.292S546.413,118.416,523.034,118.416z"/>
			<path fill="none" stroke="#CCCCCC" d="M544.181,160.708c0,11.658-9.426,21.208-21.146,21.208c-11.72,0-21.146-9.55-21.146-21.208
				s9.426-21.208,21.146-21.208C534.755,139.5,544.181,149.05,544.181,160.708z"/>
		</g>
		<g>
			<line fill="none" stroke="#CCCCCC" x1="523.034" y1="160.708" x2="523.034" y2="33.708"/>
			<line fill="none" stroke="#CCCCCC" x1="523.034" y1="160.708" x2="643.833" y2="121.517"/>
			<line fill="none" stroke="#CCCCCC" x1="523.034" y1="160.708" x2="597.696" y2="263.399"/>
			<line fill="none" stroke="#CCCCCC" x1="523.034" y1="160.708" x2="448.372" y2="263.399"/>
			<line fill="none" stroke="#CCCCCC" x1="523.034" y1="160.708" x2="402.235" y2="121.517"/>
		</g>
	</g>
	<g>
		<g>
			<path fill="none" stroke="#CCCCCC" d="M201.824,33.708c-70.197,0-127,56.803-127,127c0,70.197,56.803,127,127,127
				s127-56.803,127-127C328.824,90.51,272.021,33.708,201.824,33.708z"/>
			<path fill="none" stroke="#CCCCCC" d="M307.678,160.707c0,58.539-47.377,105.793-105.854,105.793S95.97,219.246,95.97,160.707
				c0-58.539,47.377-105.792,105.854-105.792S307.678,102.168,307.678,160.707z"/>
			<path fill="none" stroke="#CCCCCC" d="M201.824,76c-46.819,0-84.646,37.951-84.646,84.708c0,46.758,37.827,84.709,84.646,84.709
				s84.646-37.951,84.646-84.709C286.47,113.951,248.643,76,201.824,76z"/>
			<path fill="none" stroke="#CCCCCC" d="M265.324,160.707c0,35.1-28.401,63.5-63.5,63.5s-63.5-28.4-63.5-63.5
				c0-35.098,28.401-63.5,63.5-63.5S265.324,125.609,265.324,160.707z"/>
			<path fill="none" stroke="#CCCCCC" d="M201.824,118.416c-23.378,0-42.354,18.852-42.354,42.292
				c0,23.441,18.976,42.293,42.354,42.293s42.354-18.852,42.354-42.293C244.178,137.267,225.203,118.416,201.824,118.416z"/>
			<path fill="none" stroke="#CCCCCC" d="M222.97,160.707c0,11.658-9.426,21.209-21.146,21.209s-21.146-9.551-21.146-21.209
				c0-11.658,9.426-21.208,21.146-21.208S222.97,149.049,222.97,160.707z"/>
		</g>
		<g>
			<line fill="none" stroke="#CCCCCC" x1="201.824" y1="160.707" x2="201.824" y2="33.708"/>
			<line fill="none" stroke="#CCCCCC" x1="201.824" y1="160.707" x2="276.486" y2="58.016"/>
			<line fill="none" stroke="#CCCCCC" x1="201.824" y1="160.707" x2="322.623" y2="121.516"/>
			<line fill="none" stroke="#CCCCCC" x1="201.824" y1="160.707" x2="322.623" y2="199.898"/>
			<line fill="none" stroke="#CCCCCC" x1="201.824" y1="160.707" x2="276.486" y2="263.398"/>
			<line fill="none" stroke="#CCCCCC" x1="201.824" y1="160.707" x2="201.824" y2="287.707"/>
			<line fill="none" stroke="#CCCCCC" x1="201.824" y1="160.707" x2="127.162" y2="263.398"/>
			<line fill="none" stroke="#CCCCCC" x1="201.824" y1="160.707" x2="81.025" y2="199.898"/>
			<line fill="none" stroke="#CCCCCC" x1="201.824" y1="160.707" x2="81.025" y2="121.516"/>
			<line fill="none" stroke="#CCCCCC" x1="201.824" y1="160.707" x2="127.162" y2="58.016"/>
		</g>
	</g>
</g>
<g id="Layer_2">
	<rect x="239.155" y="153.333" fill="#FFFFFF" width="9.524" height="13.333"/>
	<rect x="260.562" y="153.333" fill="#FFFFFF" width="9.524" height="13.333"/>
	<rect x="281.708" y="153.333" fill="#FFFFFF" width="9.524" height="13.333"/>
	<rect x="302.917" y="153.333" fill="#FFFFFF" width="9.524" height="13.333"/>
	<rect x="324.062" y="153.333" fill="#FFFFFF" width="9.524" height="13.333"/>
	<rect x="219.345" y="155.667" fill="#FFFFFF" width="7.333" height="9.167"/>
	<text transform="matrix(1 0 0 1 196.8452 26.668)" fill="#666666" font-family="'MyriadPro-Regular'" font-size="16">A</text>
	<text transform="matrix(1 0 0 1 278.5117 53.5015)" fill="#666666" font-family="'MyriadPro-Regular'" font-size="16">B</text>
	<text transform="matrix(1 0 0 1 328.1782 124.5161)" fill="#666666" font-family="'MyriadPro-Regular'" font-size="16">C</text>
	<text transform="matrix(1 0 0 1 328.1782 207.1836)" fill="#666666" font-family="'MyriadPro-Regular'" font-size="16">D</text>
	<text transform="matrix(1 0 0 1 278.5117 278.1836)" fill="#666666" font-family="'MyriadPro-Regular'" font-size="16">E</text>
	<text transform="matrix(1 0 0 1 197.8452 305.1836)" fill="#666666" font-family="'MyriadPro-Regular'" font-size="16">F</text>
	<text transform="matrix(1 0 0 1 518.2676 26.8345)" fill="#666666" font-family="'MyriadPro-Regular'" font-size="16">A</text>
	<text transform="matrix(1 0 0 1 649.0342 124.5166)" fill="#666666" font-family="'MyriadPro-Regular'" font-size="16">B</text>
	<text transform="matrix(1 0 0 1 598.6953 277.1836)" fill="#666666" font-family="'MyriadPro-Regular'" font-size="16">C</text>
	<text transform="matrix(1 0 0 1 436.3887 277.1836)" fill="#666666" font-family="'MyriadPro-Regular'" font-size="16">D</text>
	<text transform="matrix(1 0 0 1 389.2666 122.416)" fill="#666666" font-family="'MyriadPro-Regular'" font-size="16">E</text>
	<text transform="matrix(1 0 0 1 116.1782 279.1836)" fill="#666666" font-family="'MyriadPro-Regular'" font-size="16">G</text>
	<text transform="matrix(1 0 0 1 65.5117 209.1836)" fill="#666666" font-family="'MyriadPro-Regular'" font-size="16">H</text>
	<text transform="matrix(1 0 0 1 70.1782 122.8496)" fill="#666666" font-family="'MyriadPro-Regular'" font-size="16">I</text>
	<text transform="matrix(1 0 0 1 118.1782 52.8496)" fill="#666666" font-family="'MyriadPro-Regular'" font-size="16">J</text>
	<text transform="matrix(1 0 0 1 220.3452 163.5)" fill="#999999" font-family="'MyriadPro-Regular'" font-size="10">2</text>
	<text transform="matrix(1 0 0 1 241.4282 163.5)" fill="#999999" font-family="'MyriadPro-Regular'" font-size="10">4</text>
	<text transform="matrix(1 0 0 1 262.6406 163.5)" fill="#999999" font-family="'MyriadPro-Regular'" font-size="10">6</text>
	<text transform="matrix(1 0 0 1 283.9741 163.5)" fill="#999999" font-family="'MyriadPro-Regular'" font-size="10">8</text>
	<text transform="matrix(1 0 0 1 303.1411 163.5)" fill="#999999" font-family="'MyriadPro-Regular'" font-size="10">10</text>
	<text transform="matrix(1 0 0 1 324.1411 163.5)" fill="#999999" font-family="'MyriadPro-Regular'" font-size="10">12</text>
	<rect x="560.322" y="151.333" fill="#FFFFFF" width="9.524" height="13.333"/>
	<rect x="581.729" y="151.333" fill="#FFFFFF" width="9.524" height="13.333"/>
	<rect x="602.876" y="151.333" fill="#FFFFFF" width="9.524" height="13.333"/>
	<rect x="624.084" y="151.333" fill="#FFFFFF" width="9.523" height="14.167"/>
	<rect x="645.23" y="151.333" fill="#FFFFFF" width="9.523" height="14.167"/>
	<polygon fill="#FFFFFF" points="539.613,163.732 546.946,163.732 547.846,153.667 540.513,155.667 	"/>
	<text transform="matrix(1 0 0 1 539.5127 161.5)" fill="#999999" font-family="'MyriadPro-Regular'" font-size="10">-2</text>
	<text transform="matrix(1 0 0 1 561.5957 161.5)" fill="#999999" font-family="'MyriadPro-Regular'" font-size="10">-1</text>
	<text transform="matrix(1 0 0 1 583.8086 161.5)" fill="#999999" font-family="'MyriadPro-Regular'" font-size="10">0</text>
	<text transform="matrix(1 0 0 1 605.1416 161.5)" fill="#999999" font-family="'MyriadPro-Regular'" font-size="10">1</text>
	<text transform="matrix(1 0 0 1 626.3086 161.5)" fill="#999999" font-family="'MyriadPro-Regular'" font-size="10">2</text>
	<text transform="matrix(1 0 0 1 647.3086 161.5)" fill="#999999" font-family="'MyriadPro-Regular'" font-size="10">3</text>
</g>
<g id="Layer_3">
	<line fill="none" stroke="#3F85B8" stroke-width="15" x1="201.824" y1="160.707" x2="201.824" y2="46.833"/>
	<line fill="none" stroke="#3F85B8" stroke-width="15" x1="201.824" y1="160.707" x2="257.364" y2="84.317"/>
	<line fill="none" stroke="#3F85B8" stroke-width="15" x1="201.824" y1="160.707" x2="250.63" y2="144.873"/>
	<line fill="none" stroke="#3F85B8" stroke-width="15" x1="201.824" y1="160.707" x2="295.932" y2="191.239"/>
	<line fill="none" stroke="#3F85B8" stroke-width="15" x1="201.824" y1="160.707" x2="239.209" y2="212.053"/>
	<line fill="none" stroke="#3F85B8" stroke-width="15" x1="201.824" y1="160.707" x2="201.824" y2="277.184"/>
	<line fill="none" stroke="#3F85B8" stroke-width="15" x1="201.824" y1="160.707" x2="147.396" y2="235.567"/>
	<line fill="none" stroke="#3F85B8" stroke-width="15" x1="201.824" y1="160.707" x2="161.532" y2="173.779"/>
	<line fill="none" stroke="#3F85B8" stroke-width="15" x1="201.824" y1="160.707" x2="111.531" y2="131.413"/>
	<line fill="none" stroke="#3F85B8" stroke-width="15" x1="201.824" y1="160.707" x2="155.656" y2="97.207"/>
	<line fill="none" stroke="#7EBA2D" stroke-width="10" x1="583.434" y1="141.047" x2="634.588" y2="124.516"/>
	<line fill="none" stroke="#F15A24" stroke-width="10" x1="583.434" y1="141.047" x2="551.929" y2="151.333"/>
	<line fill="none" stroke="#7EBA2D" stroke-width="10" x1="523.034" y1="35.75" x2="523.034" y2="97.208"/>
	<line fill="none" stroke="#F15A24" stroke-width="10" x1="523.034" y1="97.208" x2="523.034" y2="153.667"/>
	<line fill="none" stroke="#7EBA2D" stroke-width="10" x1="560.323" y1="211.995" x2="572.842" y2="229.214"/>
	<line fill="none" stroke="#7EBA2D" stroke-width="10" x1="485.567" y1="211.995" x2="460.792" y2="246.316"/>
	<line fill="none" stroke="#7EBA2D" stroke-width="10" x1="462.636" y1="141.047" x2="435.079" y2="132.782"/>
	<line fill="none" stroke="#F15A24" stroke-width="10" x1="462.636" y1="141.047" x2="471.648" y2="144.037"/>
	<line fill="none" stroke="#F15A24" stroke-width="10" x1="485.567" y1="211.995" x2="500.656" y2="191.487"/>
	<line fill="none" stroke="#F15A24" stroke-width="10" x1="560.323" y1="211.995" x2="534.278" y2="176.174"/>
</g>
</svg>
