<?xml version="1.0" encoding="utf-8"?>
<!-- Generator: Adobe Illustrator 16.0.0, SVG Export Plug-In . SVG Version: 6.00 Build 0)  -->
<!DOCTYPE svg PUBLIC "-//W3C//DTD SVG 1.1//EN" "http://www.w3.org/Graphics/SVG/1.1/DTD/svg11.dtd">
<svg version="1.1" id="Layer_1" xmlns="http://www.w3.org/2000/svg" xmlns:xlink="http://www.w3.org/1999/xlink" x="0px" y="0px"
	 width="730px" height="320px" viewBox="0 0 730 320" enable-background="new 0 0 730 320" xml:space="preserve">
<rect x="341.5" y="9.166" opacity="0.2" fill="#C7B299" enable-background="new    " width="46" height="296.334"/>
<text transform="matrix(1 0 0 1 350.002 26.5)" fill="#534741" font-family="'Helvetica-Bold'" font-size="12">Hour</text>
<text transform="matrix(1 0 0 1 360.6631 55.2998)" fill="#534741" font-family="'Helvetica-Bold'" font-size="12">5</text>
<text transform="matrix(1 0 0 1 360.6631 69.7002)" fill="#534741" font-family="'Helvetica-Bold'" font-size="12">6</text>
<text transform="matrix(1 0 0 1 360.6631 84.0996)" fill="#534741" font-family="'Helvetica-Bold'" font-size="12">7</text>
<text transform="matrix(1 0 0 1 360.6631 98.5)" fill="#534741" font-family="'Helvetica-Bold'" font-size="12">8</text>
<text transform="matrix(1 0 0 1 360.6631 112.9004)" fill="#534741" font-family="'Helvetica-Bold'" font-size="12">9</text>
<text transform="matrix(1 0 0 1 357.3262 127.2998)" fill="#534741" font-family="'Helvetica-Bold'" font-size="12">10</text>
<text transform="matrix(1 0 0 1 357.3262 141.7002)" fill="#534741" font-family="'Helvetica-Bold'" font-size="12">11</text>
<text transform="matrix(1 0 0 1 357.3262 156.0996)" fill="#534741" font-family="'Helvetica-Bold'" font-size="12">12</text>
<text transform="matrix(1 0 0 1 357.3262 170.5)" fill="#534741" font-family="'Helvetica-Bold'" font-size="12">13</text>
<text transform="matrix(1 0 0 1 357.3262 184.9004)" fill="#534741" font-family="'Helvetica-Bold'" font-size="12">14</text>
<text transform="matrix(1 0 0 1 357.3262 199.2998)" fill="#534741" font-family="'Helvetica-Bold'" font-size="12">15</text>
<text transform="matrix(1 0 0 1 357.3262 213.7002)" fill="#534741" font-family="'Helvetica-Bold'" font-size="12">16</text>
<text transform="matrix(1 0 0 1 357.3262 228.0996)" fill="#534741" font-family="'Helvetica-Bold'" font-size="12">17</text>
<text transform="matrix(1 0 0 1 357.3262 242.5)" fill="#534741" font-family="'Helvetica-Bold'" font-size="12">18</text>
<text transform="matrix(1 0 0 1 357.3262 256.9004)" fill="#534741" font-family="'Helvetica-Bold'" font-size="12">19</text>
<text transform="matrix(1 0 0 1 357.3262 271.2998)" fill="#534741" font-family="'Helvetica-Bold'" font-size="12">20</text>
<text transform="matrix(1 0 0 1 357.3262 285.7002)" fill="#534741" font-family="'Helvetica-Bold'" font-size="12">21</text>
<text transform="matrix(1 0 0 1 357.3262 300.0996)" fill="#534741" font-family="'Helvetica-Bold'" font-size="12">22</text>
<line fill="none" stroke="#736357" x1="341.5" y1="9.166" x2="341.5" y2="305.5"/>
<line fill="none" stroke="#736357" x1="387.5" y1="9.166" x2="387.5" y2="305.5"/>
<line fill="none" stroke="#736357" x1="27.5" y1="36.5" x2="702.5" y2="36.5"/>
<text transform="matrix(1 0 0 1 263.9185 26.5)" fill="#534741" font-family="'HelveticaNeue'" font-size="12">Northbound</text>
<text transform="matrix(1 0 0 1 281.6958 55.5)" fill="#998675" font-family="'HelveticaNeue'" font-size="12">45 20 03</text>
<text transform="matrix(1 0 0 1 231.6558 69.9004)" fill="#998675" font-family="'HelveticaNeue'" font-size="12">55 49 32 20 13 01</text>
<text transform="matrix(1 0 0 1 148.2559 84.2998)" fill="#998675" font-family="'HelveticaNeue'" font-size="12">58 53 49 44 38 32 25 19 13 08 02</text>
<text transform="matrix(1 0 0 1 48.1763 98.7002)" fill="#998675" font-family="'HelveticaNeue'" font-size="12">59 57 54 50 47 44 39 35 31 28 24 21 18 14 09 05 00</text>
<text transform="matrix(1 0 0 1 164.936 113.0996)" fill="#998675" font-family="'HelveticaNeue'" font-size="12">52 48 44 39 34 29 23 18 12 05</text>
<text transform="matrix(1 0 0 1 181.6157 127.5)" fill="#998675" font-family="'HelveticaNeue'" font-size="12">53 47 41 37 32 27 22 15 07</text>
<text transform="matrix(1 0 0 1 198.2959 141.9004)" fill="#998675" font-family="'HelveticaNeue'" font-size="12">55 49 35 29 23 16 08 01</text>
<text transform="matrix(1 0 0 1 181.6157 156.2998)" fill="#998675" font-family="'HelveticaNeue'" font-size="12">56 48 44 39 32 27 21 14 05</text>
<text transform="matrix(1 0 0 1 198.2959 170.7002)" fill="#998675" font-family="'HelveticaNeue'" font-size="12">50 45 35 30 25 20 15 05</text>
<text transform="matrix(1 0 0 1 231.6558 185.0996)" fill="#998675" font-family="'HelveticaNeue'" font-size="12">52 43 32 24 12 03</text>
<text transform="matrix(1 0 0 1 231.6558 199.5)" fill="#998675" font-family="'HelveticaNeue'" font-size="12">58 44 31 26 15 06</text>
<text transform="matrix(1 0 0 1 248.3359 213.9004)" fill="#998675" font-family="'HelveticaNeue'" font-size="12">56 40 30 22 11</text>
<text transform="matrix(1 0 0 1 231.6558 228.2998)" fill="#998675" font-family="'HelveticaNeue'" font-size="12">55 41 32 23 14 01</text>
<text transform="matrix(1 0 0 1 198.2959 242.7002)" fill="#998675" font-family="'HelveticaNeue'" font-size="12">58 49 42 36 28 22 16 09</text>
<text transform="matrix(1 0 0 1 148.2559 257.0996)" fill="#998675" font-family="'HelveticaNeue'" font-size="12">57 51 46 39 33 28 23 17 13 08 02</text>
<text transform="matrix(1 0 0 1 231.6558 271.5)" fill="#998675" font-family="'HelveticaNeue'" font-size="12">52 43 30 21 15 06</text>
<text transform="matrix(1 0 0 1 265.0161 285.9004)" fill="#998675" font-family="'HelveticaNeue'" font-size="12">45 30 16 03</text>
<text transform="matrix(1 0 0 1 281.6958 300.2998)" fill="#998675" font-family="'HelveticaNeue'" font-size="12">50 30 10</text>
<text transform="matrix(1 0 0 1 398.5 55.5)" fill="#998675" font-family="'HelveticaNeue'" font-size="12">05 48</text>
<text transform="matrix(1 0 0 1 398.5 69.9004)" fill="#998675" font-family="'HelveticaNeue'" font-size="12">02 23 35 57</text>
<text transform="matrix(1 0 0 1 398.5 84.2998)" fill="#998675" font-family="'HelveticaNeue'" font-size="12">00 07 16 20 26 30 37 46 52 59</text>
<text transform="matrix(1 0 0 1 398.5 98.7002)" fill="#998675" font-family="'HelveticaNeue'" font-size="12">01 08 12 17 21 29 31 35 39 44 49 53 58</text>
<text transform="matrix(1 0 0 1 398.5 113.0996)" fill="#998675" font-family="'HelveticaNeue'" font-size="12">03 10 18 27 32 37 45 51 58</text>
<text transform="matrix(1 0 0 1 398.5 127.5)" fill="#998675" font-family="'HelveticaNeue'" font-size="12">00 07 14 21 30 39 48 57</text>
<text transform="matrix(1 0 0 1 398.5 141.9004)" fill="#998675" font-family="'HelveticaNeue'" font-size="12">06 11 19 27 34 41 50 59</text>
<text transform="matrix(1 0 0 1 398.5 156.2998)" fill="#998675" font-family="'HelveticaNeue'" font-size="12">02 15 30 45 57</text>
<text transform="matrix(1 0 0 1 398.5 170.7002)" fill="#998675" font-family="'HelveticaNeue'" font-size="12">03 10 18 23 29 37 45 56</text>
<text transform="matrix(1 0 0 1 398.5 185.0996)" fill="#998675" font-family="'HelveticaNeue'" font-size="12">00 09 18 27 39 48 57</text>
<text transform="matrix(1 0 0 1 398.5 199.5)" fill="#998675" font-family="'HelveticaNeue'" font-size="12">01 17 29 41 55</text>
<text transform="matrix(1 0 0 1 398.5 213.9004)" fill="#998675" font-family="'HelveticaNeue'" font-size="12">10 25 38 50</text>
<text transform="matrix(1 0 0 1 398.5 228.2998)" fill="#998675" font-family="'HelveticaNeue'" font-size="12">00 20 34 53</text>
<text transform="matrix(1 0 0 1 398.5 242.7002)" fill="#998675" font-family="'HelveticaNeue'" font-size="12">05 14 21 29 37 45 56</text>
<text transform="matrix(1 0 0 1 398.5 257.0996)" fill="#998675" font-family="'HelveticaNeue'" font-size="12">02 09 14 19 23 27 32 36 40 44 48 53 57</text>
<text transform="matrix(1 0 0 1 398.5 271.5)" fill="#998675" font-family="'HelveticaNeue'" font-size="12">09 17 26 34 40 49 55</text>
<text transform="matrix(1 0 0 1 398.5 285.9004)" fill="#998675" font-family="'HelveticaNeue'" font-size="12">10 20 30 40 50</text>
<text transform="matrix(1 0 0 1 398.5 300.2998)" fill="#998675" font-family="'HelveticaNeue'" font-size="12">15 35 55</text>
<text transform="matrix(1 0 0 1 398.0244 26.5)" fill="#534741" font-family="'HelveticaNeue'" font-size="12">Southbound</text>
<g id="Layer_2">
</g>
</svg>
